P3
64 64
255
105 105 105 105 105 105 105 105 105 105 105 105 105 105 105 105 105 105 94 94 94 105 105 105 105 105 105 105 105 105 49 49 49 49 49 49 105 105 105 105 105 105 105 105 105 105 105 105 105 105 105 105 105 105 105 105 105 105 105 105 105 105 105 105 105 105 105 105 105 105 105 105 105 105 105 105 105 105 105 105 105 105 105 105 105 105 105 105 105 105 105 105 105 105 105 105 105 105 105 105 105 105 105 105 105 105 105 105 105 105 105 105 105 105 105 105 105 105 105 105 105 105 105 105 105 105 105 105 105 105 105 105 105 105 105 105 105 105 105 105 105 105 105 105 105 105 105 105 105 105 105 105 105 105 105 105 105 105 105 105 105 105 105 105 105 105 105 105 105 105 105 105 105 105 105 105 105 105 105 105 105 105 105 105 105 105 105 105 105 105 105 105 
105 105 105 105 105 105 105 105 105 105 105 105 105 105 105 105 105 105 105 105 105 94 94 94 105 105 105 105 105 105 105 105 105 49 49 49 105 105 105 105 105 105 105 105 105 105 105 105 105 105 105 105 105 105 105 105 105 105 105 105 105 105 105 105 105 105 105 105 105 105 105 105 105 105 105 105 105 105 105 105 105 105 105 105 105 105 105 94 94 94 105 105 105 49 49 49 105 105 105 105 105 105 105 105 105 105 105 105 105 105 105 105 105 105 105 105 105 94 94 94 105 105 105 105 105 105 105 105 105 105 105 105 105 105 105 105 105 105 105 105 105 105 105 105 105 105 105 105 105 105 105 105 105 105 105 105 105 105 105 105 105 105 105 105 105 105 105 105 105 105 105 105 105 105 105 105 105 105 105 105 105 105 105 105 105 105 105 105 105 105 105 105 
105 105 105 105 105 105 105 105 105 105 105 105 105 105 105 105 105 105 105 105 105 94 94 94 105 105 105 105 105 105 105 105 105 105 105 105 49 49 49 105 105 105 105 105 105 105 105 105 105 105 105 105 105 105 105 105 105 105 105 105 105 105 105 105 105 105 105 105 105 105 105 105 105 105 105 105 105 105 105 105 105 105 105 105 94 94 94 105 105 105 105 105 105 49 49 49 49 49 49 105 105 105 105 105 105 105 105 105 105 105 105 105 105 105 105 105 105 105 105 105 94 94 94 105 105 105 105 105 105 105 105 105 94 94 94 105 105 105 105 105 105 105 105 105 105 105 105 105 105 105 105 105 105 105 105 105 105 105 105 105 105 105 105 105 105 105 105 105 105 105 105 105 105 105 105 105 105 105 105 105 105 105 105 105 105 105 105 105 105 105 105 105 
105 105 105 105 105 105 105 105 105 105 105 105 105 105 105 105 105 105 105 105 105 105 105 105 94 94 94 105 105 105 105 105 105 105 105 105 49 49 49 105 105 105 105 105 105 105 105 105 105 105 105 105 105 105 94 94 94 105 105 105 105 105 105 105 105 105 105 105 105 105 105 105 105 105 105 105 105 105 105 105 105 105 105 105 94 94 94 105 105 105 105 105 105 105 105 105 49 49 49 49 49 49 105 105 105 105 105 105 105 105 105 105 105 105 105 105 105 105 105 105 94 94 94 105 105 105 105 105 105 105 105 105 94 94 94 105 105 105 105 105 105 105 105 105 105 105 105 105 105 105 105 105 105 105 105 105 105 105 105 105 105 105 105 105 105 105 105 105 105 105 105 105 105 105 105 105 105 105 105 105 105 105 105 105 105 105 105 105 105 105 105 105 
105 105 105 105 105 105 105 105 105 105 105 105 105 105 105 105 105 105 105 105 105 105 105 105 94 94 94 94 94 94 105 105 105 105 105 105 49 49 49 105 105 105 105 105 105 105 105 105 105 105 105 105 105 105 94 94 94 105 105 105 105 105 105 105 105 105 105 105 105 105 105 105 105 105 105 105 105 105 105 105 105 105 105 105 94 94 94 105 105 105 105 105 105 105 105 105 105 105 105 49 49 49 105 105 105 105 105 105 105 105 105 105 105 105 105 105 105 105 105 105 94 94 94 94 94 94 94 94 94 94 94 94 94 94 94 105 105 105 105 105 105 105 105 105 49 49 49 105 105 105 105 105 105 105 105 105 105 105 105 105 105 105 105 105 105 105 105 105 105 105 105 105 105 105 105 105 105 105 105 105 105 105 105 105 105 105 105 105 105 105 105 105 
105 105 105 105 105 105 105 105 105 105 105 105 105 105 105 105 105 105 105 105 105 105 105 105 105 105 105 94 94 94 105 105 105 105 105 105 105 105 105 49 49 49 105 105 105 105 105 105 105 105 105 105 105 105 105 105 105 94 94 94 105 105 105 105 105 105 105 105 105 105 105 105 105 105 105 105 105 105 105 105 105 94 94 94 105 105 105 105 105 105 105 105 105 105 105 105 105 105 105 105 105 105 49 49 49 105 105 105 105 105 105 105 105 105 105 105 105 105 105 105 105 105 105 105 105 105 105 105 105 105 105 105 105 105 105 105 105 105 105 105 105 49 49 49 105 105 105 105 105 105 105 105 105 105 105 105 105 105 105 105 105 105 105 105 105 105 105 105 94 94 94 94 94 94 94 94 94 105 105 105 105 105 105 105 105 105 105 105 105 105 105 105 
105 105 105 105 105 105 105 105 105 105 105 105 105 105 105 105 105 105 105 105 105 105 105 105 105 105 105 94 94 94 105 105 105 105 105 105 105 105 105 49 49 49 49 49 49 105 105 105 105 105 105 105 105 105 105 105 105 94 94 94 94 94 94 105 105 105 105 105 105 105 105 105 105 105 105 105 105 105 105 105 105 94 94 94 105 105 105 105 105 105 105 105 105 105 105 105 105 105 105 105 105 105 49 49 49 49 49 49 105 105 105 105 105 105 105 105 105 105 105 105 105 105 105 105 105 105 105 105 105 105 105 105 105 105 105 105 105 105 105 105 105 49 49 49 105 105 105 105 105 105 105 105 105 105 105 105 105 105 105 105 105 105 105 105 105 94 94 94 94 94 94 105 105 105 105 105 105 105 105 105 105 105 105 105 105 105 105 105 105 105 105 105 
105 105 105 105 105 105 105 105 105 105 105 105 105 105 105 105 105 105 105 105 105 105 105 105 105 105 105 105 105 105 94 94 94 105 105 105 105 105 105 105 105 105 49 49 49 105 105 105 105 105 105 105 105 105 105 105 105 105 105 105 94 94 94 94 94 94 94 94 94 94 94 94 94 94 94 94 94 94 94 94 94 94 94 94 105 105 105 105 105 105 105 105 105 105 105 105 105 105 105 105 105 105 105 105 105 49 49 49 49 49 49 105 105 105 105 105 105 105 105 105 105 105 105 105 105 105 105 105 105 105 105 105 105 105 105 105 105 105 49 49 49 105 105 105 105 105 105 105 105 105 105 105 105 105 105 105 105 105 105 105 105 105 105 105 105 94 94 94 105 105 105 105 105 105 49 49 49 49 49 49 49 49 49 49 49 49 49 49 49 49 49 49 
105 105 105 105 105 105 105 105 105 105 105 105 105 105 105 105 105 105 105 105 105 105 105 105 105 105 105 105 105 105 94 94 94 105 105 105 105 105 105 105 105 105 49 49 49 49 49 49 105 105 105 105 105 105 105 105 105 105 105 105 105 105 105 105 105 105 105 105 105 105 105 105 105 105 105 105 105 105 105 105 105 105 105 105 105 105 105 105 105 105 105 105 105 105 105 105 49 49 49 49 49 49 49 49 49 49 49 49 49 49 49 49 49 49 105 105 105 105 105 105 105 105 105 105 105 105 105 105 105 105 105 105 105 105 105 49 49 49 105 105 105 105 105 105 105 105 105 105 105 105 105 105 105 105 105 105 105 105 105 105 105 105 94 94 94 94 94 94 105 105 105 105 105 105 49 49 49 105 105 105 105 105 105 105 105 105 105 105 105 105 105 105 
105 105 105 105 105 105 105 105 105 105 105 105 105 105 105 105 105 105 105 105 105 105 105 105 105 105 105 105 105 105 94 94 94 105 105 105 105 105 105 105 105 105 105 105 105 49 49 49 105 105 105 105 105 105 105 105 105 105 105 105 105 105 105 105 105 105 105 105 105 105 105 105 105 105 105 105 105 105 105 105 105 105 105 105 105 105 105 105 105 105 105 105 105 105 105 105 49 49 49 105 105 105 105 105 105 105 105 105 105 105 105 49 49 49 105 105 105 105 105 105 105 105 105 105 105 105 105 105 105 105 105 105 49 49 49 49 49 49 105 105 105 105 105 105 105 105 105 105 105 105 105 105 105 105 105 105 105 105 105 94 94 94 94 94 94 105 105 105 105 105 105 49 49 49 105 105 105 105 105 105 105 105 105 105 105 105 105 105 105 105 105 105 
105 105 105 105 105 105 105 105 105 105 105 105 105 105 105 105 105 105 105 105 105 105 105 105 105 105 105 105 105 105 94 94 94 105 105 105 105 105 105 105 105 105 105 105 105 105 105 105 49 49 49 105 105 105 105 105 105 105 105 105 105 105 105 105 105 105 105 105 105 105 105 105 105 105 105 105 105 105 105 105 105 105 105 105 105 105 105 105 105 105 105 105 105 49 49 49 105 105 105 105 105 105 105 105 105 105 105 105 105 105 105 49 49 49 49 49 49 105 105 105 105 105 105 105 105 105 105 105 105 105 105 105 49 49 49 105 105 105 105 105 105 105 105 105 105 105 105 105 105 105 105 105 105 105 105 105 105 105 105 105 105 105 105 105 105 105 105 105 49 49 49 49 49 49 105 105 105 105 105 105 105 105 105 105 105 105 105 105 105 105 105 105 
105 105 105 105 105 105 105 105 105 105 105 105 105 105 105 105 105 105 105 105 105 105 105 105 105 105 105 94 94 94 94 94 94 105 105 105 105 105 105 105 105 105 105 105 105 105 105 105 49 49 49 49 49 49 105 105 105 105 105 105 105 105 105 105 105 105 105 105 105 105 105 105 105 105 105 105 105 105 105 105 105 105 105 105 105 105 105 105 105 105 49 49 49 105 105 105 94 94 94 94 94 94 94 94 94 94 94 94 94 94 94 105 105 105 49 49 49 105 105 105 105 105 105 105 105 105 105 105 105 105 105 105 49 49 49 105 105 105 105 105 105 105 105 105 105 105 105 105 105 105 105 105 105 105 105 105 105 105 105 49 49 49 49 49 49 49 49 49 49 49 49 105 105 105 105 105 105 105 105 105 105 105 105 105 105 105 105 105 105 105 105 105 
105 105 105 105 105 105 105 105 105 105 105 105 105 105 105 105 105 105 105 105 105 105 105 105 105 105 105 94 94 94 105 105 105 105 105 105 105 105 105 105 105 105 105 105 105 105 105 105 105 105 105 49 49 49 105 105 105 105 105 105 105 105 105 105 105 105 105 105 105 105 105 105 105 105 105 105 105 105 105 105 105 105 105 105 105 105 105 49 49 49 105 105 105 105 105 105 94 94 94 105 105 105 94 94 94 94 94 94 105 105 105 105 105 105 49 49 49 105 105 105 105 105 105 105 105 105 105 105 105 49 49 49 105 105 105 105 105 105 105 105 105 105 105 105 105 105 105 105 105 105 105 105 105 105 105 105 105 105 105 105 105 105 105 105 105 105 105 105 105 105 105 105 105 105 105 105 105 105 105 105 105 105 105 105 105 105 105 105 105 105 105 105 
105 105 105 105 105 105 105 105 105 105 105 105 105 105 105 105 105 105 105 105 105 105 105 105 105 105 105 94 94 94 105 105 105 105 105 105 105 105 105 105 105 105 105 105 105 105 105 105 49 49 49 105 105 105 105 105 105 105 105 105 105 105 105 105 105 105 105 105 105 105 105 105 105 105 105 105 105 105 105 105 105 105 105 105 49 49 49 49 49 49 105 105 105 94 94 94 105 105 105 94 94 94 105 105 105 105 105 105 94 94 94 105 105 105 49 49 49 105 105 105 105 105 105 105 105 105 105 105 105 49 49 49 105 105 105 105 105 105 105 105 105 105 105 105 94 94 94 105 105 105 105 105 105 105 105 105 105 105 105 105 105 105 105 105 105 105 105 105 105 105 105 105 105 105 105 105 105 105 105 105 105 105 105 105 105 105 105 105 105 105 105 105 
105 105 105 105 105 105 105 105 105 105 105 105 105 105 105 105 105 105 105 105 105 105 105 105 94 94 94 105 105 105 105 105 105 105 105 105 105 105 105 105 105 105 105 105 105 105 105 105 49 49 49 49 49 49 49 49 49 49 49 49 105 105 105 105 105 105 105 105 105 105 105 105 105 105 105 105 105 105 105 105 105 49 49 49 49 49 49 105 105 105 94 94 94 94 94 94 94 94 94 94 94 94 105 105 105 105 105 105 94 94 94 105 105 105 49 49 49 105 105 105 105 105 105 105 105 105 105 105 105 49 49 49 105 105 105 105 105 105 105 105 105 94 94 94 94 94 94 105 105 105 105 105 105 105 105 105 105 105 105 105 105 105 105 105 105 105 105 105 105 105 105 105 105 105 105 105 105 105 105 105 105 105 105 105 105 105 105 105 105 105 105 105 
105 105 105 105 105 105 94 94 94 105 105 105 105 105 105 105 105 105 94 94 94 94 94 94 105 105 105 105 105 105 105 105 105 105 105 105 105 105 105 105 105 105 105 105 105 105 105 105 49 49 49 105 105 105 105 105 105 49 49 49 49 49 49 105 105 105 105 105 105 105 105 105 105 105 105 105 105 105 105 105 105 105 105 105 49 49 49 105 105 105 105 105 105 105 105 105 94 94 94 105 105 105 105 105 105 105 105 105 105 105 105 105 105 105 49 49 49 105 105 105 105 105 105 105 105 105 49 49 49 105 105 105 105 105 105 105 105 105 105 105 105 94 94 94 105 105 105 105 105 105 105 105 105 105 105 105 105 105 105 105 105 105 105 105 105 105 105 105 105 105 105 105 105 105 105 105 105 105 105 105 105 105 105 105 105 105 105 105 105 105 105 105 
105 105 105 105 105 105 94 94 94 94 94 94 94 94 94 94 94 94 94 94 94 105 105 105 105 105 105 105 105 105 105 105 105 105 105 105 105 105 105 105 105 105 105 105 105 49 49 49 49 49 49 105 105 105 105 105 105 105 105 105 49 49 49 105 105 105 105 105 105 105 105 105 105 105 105 105 105 105 105 105 105 105 105 105 49 49 49 105 105 105 105 105 105 94 94 94 94 94 94 105 105 105 105 105 105 105 105 105 105 105 105 105 105 105 105 105 105 105 105 105 105 105 105 105 105 105 49 49 49 105 105 105 105 105 105 105 105 105 105 105 105 94 94 94 105 105 105 105 105 105 105 105 105 105 105 105 105 105 105 105 105 105 105 105 105 105 105 105 94 94 94 105 105 105 105 105 105 105 105 105 105 105 105 105 105 105 105 105 105 105 105 105 
105 105 105 105 105 105 105 105 105 105 105 105 105 105 105 105 105 105 105 105 105 105 105 105 105 105 105 105 105 105 105 105 105 105 105 105 105 105 105 105 105 105 49 49 49 49 49 49 105 105 105 105 105 105 105 105 105 105 105 105 105 105 105 49 49 49 105 105 105 105 105 105 105 105 105 105 105 105 105 105 105 105 105 105 49 49 49 49 49 49 105 105 105 105 105 105 105 105 105 105 105 105 105 105 105 105 105 105 105 105 105 105 105 105 105 105 105 105 105 105 105 105 105 105 105 105 49 49 49 105 105 105 105 105 105 105 105 105 94 94 94 105 105 105 105 105 105 105 105 105 105 105 105 105 105 105 105 105 105 105 105 105 94 94 94 94 94 94 105 105 105 105 105 105 105 105 105 105 105 105 49 49 49 49 49 49 105 105 105 105 105 105 
105 105 105 105 105 105 105 105 105 105 105 105 105 105 105 105 105 105 105 105 105 105 105 105 105 105 105 105 105 105 105 105 105 105 105 105 49 49 49 49 49 49 49 49 49 105 105 105 105 105 105 105 105 105 105 105 105 105 105 105 105 105 105 105 105 105 105 105 105 105 105 105 105 105 105 105 105 105 105 105 105 105 105 105 105 105 105 105 105 105 105 105 105 105 105 105 105 105 105 105 105 105 105 105 105 105 105 105 105 105 105 105 105 105 105 105 105 105 105 105 105 105 105 105 105 105 105 105 105 105 105 105 105 105 105 94 94 94 105 105 105 105 105 105 105 105 105 105 105 105 105 105 105 105 105 105 105 105 105 105 105 105 94 94 94 105 105 105 105 105 105 49 49 49 49 49 49 49 49 49 49 49 49 105 105 105 105 105 105 105 105 105 
105 105 105 105 105 105 105 105 105 105 105 105 105 105 105 105 105 105 105 105 105 105 105 105 105 105 105 105 105 105 105 105 105 105 105 105 49 49 49 105 105 105 105 105 105 105 105 105 105 105 105 105 105 105 105 105 105 105 105 105 105 105 105 105 105 105 105 105 105 105 105 105 105 105 105 105 105 105 105 105 105 105 105 105 105 105 105 105 105 105 105 105 105 105 105 105 105 105 105 105 105 105 105 105 105 105 105 105 105 105 105 105 105 105 105 105 105 105 105 105 105 105 105 105 105 105 105 105 105 105 105 105 105 105 105 94 94 94 105 105 105 105 105 105 105 105 105 105 105 105 105 105 105 105 105 105 105 105 105 94 94 94 94 94 94 105 105 105 49 49 49 49 49 49 105 105 105 105 105 105 105 105 105 94 94 94 105 105 105 105 105 105 
105 105 105 105 105 105 105 105 105 105 105 105 105 105 105 105 105 105 105 105 105 105 105 105 105 105 105 105 105 105 105 105 105 105 105 105 105 105 105 105 105 105 105 105 105 105 105 105 105 105 105 105 105 105 105 105 105 105 105 105 105 105 105 105 105 105 105 105 105 105 105 105 105 105 105 105 105 105 105 105 105 105 105 105 105 105 105 105 105 105 105 105 105 105 105 105 105 105 105 105 105 105 105 105 105 105 105 105 105 105 105 105 105 105 105 105 105 105 105 105 105 105 105 105 105 105 105 105 105 105 105 105 94 94 94 105 105 105 105 105 105 105 105 105 105 105 105 105 105 105 105 105 105 105 105 105 105 105 105 94 94 94 105 105 105 49 49 49 105 105 105 105 105 105 105 105 105 105 105 105 94 94 94 94 94 94 105 105 105 105 105 105 
49 49 49 105 105 105 105 105 105 105 105 105 105 105 105 105 105 105 105 105 105 105 105 105 105 105 105 105 105 105 105 105 105 105 105 105 105 105 105 105 105 105 105 105 105 49 49 49 105 105 105 105 105 105 105 105 105 105 105 105 105 105 105 105 105 105 105 105 105 105 105 105 105 105 105 105 105 105 105 105 105 105 105 105 105 105 105 105 105 105 105 105 105 105 105 105 105 105 105 105 105 105 105 105 105 105 105 105 105 105 105 105 105 105 105 105 105 105 105 105 105 105 105 105 105 105 105 105 105 105 105 105 94 94 94 105 105 105 105 105 105 105 105 105 105 105 105 105 105 105 105 105 105 105 105 105 94 94 94 94 94 94 49 49 49 105 105 105 105 105 105 105 105 105 105 105 105 94 94 94 94 94 94 105 105 105 105 105 105 105 105 105 
49 49 49 49 49 49 105 105 105 105 105 105 105 105 105 105 105 105 105 105 105 105 105 105 105 105 105 105 105 105 105 105 105 105 105 105 105 105 105 105 105 105 105 105 105 49 49 49 49 49 49 105 105 105 105 105 105 105 105 105 105 105 105 105 105 105 105 105 105 105 105 105 105 105 105 105 105 105 105 105 105 105 105 105 105 105 105 105 105 105 105 105 105 105 105 105 105 105 105 105 105 105 105 105 105 105 105 105 105 105 105 105 105 105 49 49 49 49 49 49 49 49 49 49 49 49 105 105 105 94 94 94 94 94 94 105 105 105 105 105 105 105 105 105 105 105 105 105 105 105 105 105 105 105 105 105 94 94 94 105 105 105 49 49 49 105 105 105 105 105 105 105 105 105 94 94 94 94 94 94 105 105 105 105 105 105 105 105 105 105 105 105 
105 105 105 105 105 105 49 49 49 105 105 105 105 105 105 105 105 105 105 105 105 105 105 105 105 105 105 105 105 105 105 105 105 105 105 105 105 105 105 105 105 105 105 105 105 105 105 105 49 49 49 105 105 105 105 105 105 105 105 105 105 105 105 105 105 105 105 105 105 105 105 105 105 105 105 105 105 105 105 105 105 105 105 105 105 105 105 105 105 105 105 105 105 105 105 105 105 105 105 105 105 105 105 105 105 105 105 105 49 49 49 49 49 49 49 49 49 105 105 105 94 94 94 94 94 94 94 94 94 94 94 94 105 105 105 105 105 105 105 105 105 105 105 105 105 105 105 105 105 105 105 105 105 94 94 94 94 94 94 105 105 105 49 49 49 105 105 105 105 105 105 94 94 94 94 94 94 105 105 105 105 105 105 105 105 105 105 105 105 105 105 105 
105 105 105 105 105 105 105 105 105 49 49 49 105 105 105 105 105 105 105 105 105 105 105 105 105 105 105 105 105 105 105 105 105 105 105 105 105 105 105 105 105 105 105 105 105 105 105 105 49 49 49 105 105 105 105 105 105 105 105 105 105 105 105 105 105 105 105 105 105 105 105 105 105 105 105 105 105 105 105 105 105 105 105 105 105 105 105 105 105 105 105 105 105 105 105 105 105 105 105 49 49 49 49 49 49 49 49 49 105 105 105 105 105 105 105 105 105 105 105 105 94 94 94 105 105 105 105 105 105 105 105 105 105 105 105 105 105 105 105 105 105 105 105 105 105 105 105 105 105 105 105 105 105 94 94 94 105 105 105 105 105 105 49 49 49 105 105 105 105 105 105 94 94 94 105 105 105 105 105 105 105 105 105 105 105 105 105 105 105 105 105 105 
105 105 105 105 105 105 105 105 105 49 49 49 49 49 49 49 49 49 49 49 49 105 105 105 105 105 105 105 105 105 105 105 105 105 105 105 105 105 105 105 105 105 105 105 105 105 105 105 49 49 49 49 49 49 49 49 49 105 105 105 105 105 105 105 105 105 105 105 105 105 105 105 105 105 105 105 105 105 105 105 105 105 105 105 105 105 105 105 105 105 105 105 105 49 49 49 49 49 49 105 105 105 105 105 105 105 105 105 105 105 105 105 105 105 105 105 105 105 105 105 105 105 105 105 105 105 105 105 105 105 105 105 105 105 105 105 105 105 105 105 105 105 105 105 105 105 105 105 105 105 105 105 105 94 94 94 105 105 105 105 105 105 49 49 49 105 105 105 105 105 105 94 94 94 105 105 105 105 105 105 105 105 105 105 105 105 105 105 105 105 105 105 
105 105 105 105 105 105 105 105 105 49 49 49 49 49 49 105 105 105 105 105 105 49 49 49 49 49 49 49 49 49 105 105 105 105 105 105 105 105 105 105 105 105 105 105 105 105 105 105 105 105 105 105 105 105 105 105 105 49 49 49 49 49 49 49 49 49 49 49 49 49 49 49 49 49 49 49 49 49 49 49 49 49 49 49 49 49 49 105 105 105 105 105 105 49 49 49 105 105 105 105 105 105 105 105 105 105 105 105 105 105 105 105 105 105 105 105 105 105 105 105 105 105 105 105 105 105 105 105 105 105 105 105 105 105 105 105 105 105 105 105 105 105 105 105 105 105 105 105 105 105 105 105 105 94 94 94 105 105 105 49 49 49 105 105 105 105 105 105 105 105 105 105 105 105 94 94 94 94 94 94 105 105 105 105 105 105 105 105 105 105 105 105 
105 105 105 105 105 105 105 105 105 49 49 49 105 105 105 105 105 105 105 105 105 105 105 105 105 105 105 49 49 49 105 105 105 105 105 105 105 105 105 105 105 105 105 105 105 105 105 105 105 105 105 105 105 105 105 105 105 105 105 105 105 105 105 49 49 49 49 49 49 49 49 49 105 105 105 105 105 105 105 105 105 105 105 105 105 105 105 49 49 49 105 105 105 49 49 49 105 105 105 105 105 105 105 105 105 105 105 105 105 105 105 105 105 105 105 105 105 105 105 105 105 105 105 105 105 105 105 105 105 105 105 105 105 105 105 105 105 105 105 105 105 105 105 105 105 105 105 105 105 105 94 94 94 105 105 105 105 105 105 49 49 49 105 105 105 105 105 105 105 105 105 105 105 105 105 105 105 94 94 94 94 94 94 105 105 105 105 105 105 105 105 105 
105 105 105 105 105 105 105 105 105 49 49 49 105 105 105 105 105 105 105 105 105 105 105 105 105 105 105 105 105 105 49 49 49 105 105 105 105 105 105 105 105 105 105 105 105 105 105 105 49 49 49 49 49 49 49 49 49 49 49 49 49 49 49 105 105 105 105 105 105 105 105 105 105 105 105 105 105 105 105 105 105 105 105 105 105 105 105 105 105 105 49 49 49 49 49 49 105 105 105 105 105 105 105 105 105 105 105 105 105 105 105 105 105 105 105 105 105 105 105 105 105 105 105 105 105 105 105 105 105 105 105 105 105 105 105 105 105 105 105 105 105 105 105 105 105 105 105 105 105 105 94 94 94 105 105 105 105 105 105 49 49 49 105 105 105 105 105 105 105 105 105 105 105 105 105 105 105 105 105 105 94 94 94 105 105 105 105 105 105 105 105 105 
105 105 105 105 105 105 105 105 105 49 49 49 105 105 105 105 105 105 105 105 105 105 105 105 105 105 105 105 105 105 49 49 49 105 105 105 105 105 105 105 105 105 105 105 105 49 49 49 49 49 49 105 105 105 105 105 105 105 105 105 105 105 105 105 105 105 105 105 105 105 105 105 105 105 105 94 94 94 94 94 94 105 105 105 105 105 105 105 105 105 49 49 49 105 105 105 105 105 105 105 105 105 105 105 105 105 105 105 105 105 105 105 105 105 105 105 105 105 105 105 105 105 105 105 105 105 105 105 105 105 105 105 105 105 105 105 105 105 105 105 105 105 105 105 105 105 105 105 105 105 94 94 94 105 105 105 105 105 105 49 49 49 105 105 105 105 105 105 105 105 105 105 105 105 105 105 105 105 105 105 94 94 94 105 105 105 105 105 105 105 105 105 
105 105 105 105 105 105 49 49 49 49 49 49 105 105 105 105 105 105 105 105 105 105 105 105 105 105 105 105 105 105 105 105 105 49 49 49 105 105 105 105 105 105 105 105 105 49 49 49 105 105 105 105 105 105 105 105 105 105 105 105 105 105 105 105 105 105 105 105 105 105 105 105 94 94 94 94 94 94 94 94 94 105 105 105 105 105 105 105 105 105 49 49 49 105 105 105 105 105 105 105 105 105 105 105 105 105 105 105 105 105 105 105 105 105 105 105 105 105 105 105 49 49 49 49 49 49 105 105 105 105 105 105 105 105 105 105 105 105 105 105 105 105 105 105 105 105 105 94 94 94 94 94 94 105 105 105 49 49 49 49 49 49 49 49 49 49 49 49 49 49 49 49 49 49 105 105 105 105 105 105 94 94 94 105 105 105 105 105 105 105 105 105 
105 105 105 105 105 105 105 105 105 49 49 49 105 105 105 105 105 105 94 94 94 94 94 94 94 94 94 94 94 94 105 105 105 105 105 105 105 105 105 105 105 105 49 49 49 49 49 49 105 105 105 94 94 94 94 94 94 94 94 94 94 94 94 105 105 105 105 105 105 94 94 94 105 105 105 94 94 94 94 94 94 105 105 105 105 105 105 105 105 105 49 49 49 105 105 105 105 105 105 105 105 105 105 105 105 105 105 105 105 105 105 105 105 105 49 49 49 49 49 49 105 105 105 105 105 105 105 105 105 105 105 105 105 105 105 105 105 105 105 105 105 105 105 105 105 105 105 94 94 94 105 105 105 105 105 105 49 49 49 105 105 105 105 105 105 105 105 105 105 105 105 49 49 49 105 105 105 105 105 105 94 94 94 105 105 105 105 105 105 105 105 105 
105 105 105 105 105 105 105 105 105 49 49 49 49 49 49 105 105 105 94 94 94 105 105 105 105 105 105 105 105 105 105 105 105 105 105 105 105 105 105 105 105 105 49 49 49 105 105 105 105 105 105 105 105 105 105 105 105 105 105 105 105 105 105 94 94 94 94 94 94 94 94 94 94 94 94 105 105 105 105 105 105 105 105 105 105 105 105 105 105 105 49 49 49 105 105 105 49 49 49 49 49 49 49 49 49 49 49 49 49 49 49 49 49 49 105 105 105 105 105 105 105 105 105 105 105 105 105 105 105 105 105 105 105 105 105 105 105 105 105 105 105 105 105 105 94 94 94 94 94 94 105 105 105 105 105 105 49 49 49 105 105 105 105 105 105 105 105 105 105 105 105 105 105 105 49 49 49 105 105 105 105 105 105 94 94 94 105 105 105 105 105 105 
105 105 105 105 105 105 105 105 105 105 105 105 49 49 49 105 105 105 105 105 105 94 94 94 105 105 105 105 105 105 105 105 105 105 105 105 105 105 105 105 105 105 49 49 49 105 105 105 105 105 105 105 105 105 105 105 105 105 105 105 94 94 94 94 94 94 105 105 105 105 105 105 105 105 105 105 105 105 105 105 105 105 105 105 105 105 105 105 105 105 49 49 49 49 49 49 49 49 49 105 105 105 105 105 105 105 105 105 105 105 105 105 105 105 105 105 105 105 105 105 105 105 105 105 105 105 105 105 105 105 105 105 105 105 105 105 105 105 105 105 105 94 94 94 94 94 94 105 105 105 105 105 105 49 49 49 49 49 49 105 105 105 105 105 105 105 105 105 105 105 105 105 105 105 49 49 49 105 105 105 105 105 105 94 94 94 105 105 105 105 105 105 
105 105 105 105 105 105 105 105 105 105 105 105 49 49 49 105 105 105 105 105 105 94 94 94 105 105 105 105 105 105 105 105 105 105 105 105 105 105 105 105 105 105 49 49 49 105 105 105 105 105 105 105 105 105 105 105 105 105 105 105 105 105 105 105 105 105 94 94 94 94 94 94 94 94 94 94 94 94 94 94 94 105 105 105 105 105 105 105 105 105 49 49 49 105 105 105 105 105 105 105 105 105 105 105 105 105 105 105 105 105 105 105 105 105 105 105 105 105 105 105 105 105 105 105 105 105 105 105 105 105 105 105 105 105 105 105 105 105 105 105 105 94 94 94 105 105 105 49 49 49 49 49 49 105 105 105 105 105 105 105 105 105 105 105 105 105 105 105 105 105 105 105 105 105 105 105 105 49 49 49 105 105 105 94 94 94 105 105 105 105 105 105 
105 105 105 105 105 105 105 105 105 105 105 105 49 49 49 49 49 49 105 105 105 94 94 94 94 94 94 105 105 105 105 105 105 105 105 105 105 105 105 105 105 105 49 49 49 105 105 105 105 105 105 105 105 105 105 105 105 105 105 105 105 105 105 105 105 105 105 105 105 105 105 105 105 105 105 105 105 105 105 105 105 105 105 105 105 105 105 105 105 105 49 49 49 105 105 105 105 105 105 105 105 105 105 105 105 105 105 105 105 105 105 105 105 105 105 105 105 105 105 105 105 105 105 105 105 105 105 105 105 105 105 105 105 105 105 105 105 105 105 105 105 49 49 49 49 49 49 49 49 49 105 105 105 105 105 105 105 105 105 105 105 105 105 105 105 105 105 105 94 94 94 105 105 105 105 105 105 49 49 49 105 105 105 94 94 94 105 105 105 105 105 105 
105 105 105 105 105 105 105 105 105 105 105 105 105 105 105 49 49 49 105 105 105 105 105 105 94 94 94 94 94 94 105 105 105 105 105 105 105 105 105 105 105 105 105 105 105 49 49 49 49 49 49 105 105 105 105 105 105 105 105 105 105 105 105 105 105 105 105 105 105 105 105 105 105 105 105 105 105 105 105 105 105 105 105 105 105 105 105 105 105 105 49 49 49 105 105 105 105 105 105 105 105 105 105 105 105 105 105 105 105 105 105 105 105 105 105 105 105 105 105 105 105 105 105 105 105 105 105 105 105 105 105 105 105 105 105 105 105 105 105 105 105 105 105 105 105 105 105 49 49 49 105 105 105 105 105 105 105 105 105 105 105 105 105 105 105 105 105 105 94 94 94 94 94 94 105 105 105 49 49 49 49 49 49 94 94 94 105 105 105 105 105 105 
105 105 105 105 105 105 105 105 105 105 105 105 105 105 105 105 105 105 49 49 49 105 105 105 105 105 105 105 105 105 105 105 105 105 105 105 105 105 105 105 105 105 105 105 105 105 105 105 49 49 49 49 49 49 49 49 49 49 49 49 49 49 49 49 49 49 49 49 49 49 49 49 49 49 49 49 49 49 105 105 105 105 105 105 105 105 105 105 105 105 49 49 49 105 105 105 105 105 105 105 105 105 105 105 105 105 105 105 105 105 105 105 105 105 105 105 105 105 105 105 105 105 105 105 105 105 105 105 105 105 105 105 105 105 105 105 105 105 105 105 105 105 105 105 105 105 105 105 105 105 105 105 105 105 105 105 105 105 105 105 105 105 105 105 105 105 105 105 105 105 105 94 94 94 105 105 105 105 105 105 49 49 49 94 94 94 105 105 105 105 105 105 
105 105 105 105 105 105 105 105 105 105 105 105 105 105 105 105 105 105 49 49 49 49 49 49 105 105 105 105 105 105 105 105 105 105 105 105 105 105 105 105 105 105 105 105 105 105 105 105 105 105 105 105 105 105 105 105 105 105 105 105 105 105 105 105 105 105 105 105 105 105 105 105 105 105 105 49 49 49 49 49 49 105 105 105 105 105 105 105 105 105 49 49 49 105 105 105 105 105 105 105 105 105 105 105 105 105 105 105 105 105 105 105 105 105 105 105 105 105 105 105 105 105 105 105 105 105 105 105 105 105 105 105 105 105 105 105 105 105 105 105 105 105 105 105 105 105 105 105 105 105 105 105 105 105 105 105 105 105 105 105 105 105 105 105 105 105 105 105 105 105 105 94 94 94 105 105 105 105 105 105 49 49 49 94 94 94 105 105 105 105 105 105 
105 105 105 105 105 105 105 105 105 105 105 105 105 105 105 105 105 105 105 105 105 105 105 105 105 105 105 105 105 105 105 105 105 105 105 105 105 105 105 105 105 105 105 105 105 105 105 105 105 105 105 105 105 105 105 105 105 105 105 105 105 105 105 105 105 105 105 105 105 105 105 105 105 105 105 105 105 105 49 49 49 105 105 105 105 105 105 105 105 105 49 49 49 105 105 105 105 105 105 105 105 105 105 105 105 105 105 105 105 105 105 105 105 105 105 105 105 105 105 105 105 105 105 105 105 105 105 105 105 105 105 105 105 105 105 105 105 105 105 105 105 105 105 105 105 105 105 105 105 105 105 105 105 105 105 105 105 105 105 105 105 105 105 105 105 105 105 105 105 105 105 94 94 94 105 105 105 105 105 105 49 49 49 94 94 94 105 105 105 105 105 105 
105 105 105 105 105 105 105 105 105 105 105 105 105 105 105 105 105 105 105 105 105 105 105 105 105 105 105 105 105 105 105 105 105 105 105 105 105 105 105 105 105 105 105 105 105 105 105 105 105 105 105 105 105 105 105 105 105 105 105 105 105 105 105 105 105 105 105 105 105 105 105 105 105 105 105 105 105 105 49 49 49 49 49 49 49 49 49 105 105 105 49 49 49 105 105 105 105 105 105 105 105 105 105 105 105 105 105 105 105 105 105 105 105 105 105 105 105 105 105 105 105 105 105 105 105 105 105 105 105 105 105 105 105 105 105 105 105 105 105 105 105 105 105 105 105 105 105 105 105 105 105 105 105 105 105 105 105 105 105 105 105 105 105 105 105 105 105 105 105 105 105 94 94 94 105 105 105 105 105 105 49 49 49 94 94 94 105 105 105 105 105 105 
105 105 105 105 105 105 105 105 105 105 105 105 105 105 105 105 105 105 105 105 105 105 105 105 105 105 105 105 105 105 105 105 105 105 105 105 105 105 105 105 105 105 105 105 105 105 105 105 105 105 105 105 105 105 105 105 105 105 105 105 105 105 105 105 105 105 105 105 105 49 49 49 49 49 49 49 49 49 105 105 105 105 105 105 49 49 49 49 49 49 49 49 49 105 105 105 105 105 105 105 105 105 105 105 105 105 105 105 105 105 105 105 105 105 105 105 105 105 105 105 105 105 105 105 105 105 105 105 105 105 105 105 105 105 105 105 105 105 105 105 105 105 105 105 105 105 105 105 105 105 105 105 105 105 105 105 105 105 105 105 105 105 105 105 105 105 105 105 105 105 105 94 94 94 94 94 94 105 105 105 49 49 49 94 94 94 105 105 105 105 105 105 
105 105 105 105 105 105 105 105 105 105 105 105 105 105 105 105 105 105 105 105 105 105 105 105 105 105 105 105 105 105 105 105 105 105 105 105 105 105 105 105 105 105 105 105 105 105 105 105 105 105 105 105 105 105 105 105 105 105 105 105 105 105 105 105 105 105 105 105 105 49 49 49 105 105 105 105 105 105 105 105 105 105 105 105 105 105 105 105 105 105 49 49 49 105 105 105 105 105 105 105 105 105 105 105 105 105 105 105 105 105 105 94 94 94 94 94 94 94 94 94 105 105 105 105 105 105 105 105 105 105 105 105 105 105 105 105 105 105 105 105 105 105 105 105 105 105 105 105 105 105 105 105 105 105 105 105 105 105 105 105 105 105 105 105 105 105 105 105 105 105 105 105 105 105 94 94 94 105 105 105 49 49 49 94 94 94 105 105 105 105 105 105 
105 105 105 105 105 105 105 105 105 105 105 105 105 105 105 105 105 105 105 105 105 105 105 105 105 105 105 105 105 105 105 105 105 105 105 105 105 105 105 105 105 105 105 105 105 105 105 105 105 105 105 105 105 105 105 105 105 105 105 105 105 105 105 105 105 105 49 49 49 105 105 105 105 105 105 105 105 105 105 105 105 105 105 105 105 105 105 105 105 105 105 105 105 105 105 105 105 105 105 105 105 105 105 105 105 105 105 105 105 105 105 105 105 105 105 105 105 94 94 94 105 105 105 105 105 105 105 105 105 49 49 49 105 105 105 105 105 105 105 105 105 94 94 94 94 94 94 105 105 105 105 105 105 105 105 105 105 105 105 105 105 105 105 105 105 105 105 105 105 105 105 105 105 105 94 94 94 94 94 94 105 105 105 94 94 94 105 105 105 105 105 105 
105 105 105 105 105 105 105 105 105 105 105 105 105 105 105 105 105 105 105 105 105 105 105 105 105 105 105 105 105 105 105 105 105 105 105 105 105 105 105 105 105 105 105 105 105 105 105 105 105 105 105 105 105 105 105 105 105 49 49 49 49 49 49 49 49 49 49 49 49 105 105 105 105 105 105 105 105 105 105 105 105 105 105 105 105 105 105 105 105 105 105 105 105 105 105 105 105 105 105 105 105 105 105 105 105 105 105 105 105 105 105 105 105 105 105 105 105 94 94 94 105 105 105 105 105 105 105 105 105 105 105 105 49 49 49 105 105 105 105 105 105 105 105 105 94 94 94 94 94 94 94 94 94 105 105 105 105 105 105 105 105 105 105 105 105 105 105 105 105 105 105 105 105 105 105 105 105 94 94 94 94 94 94 94 94 94 105 105 105 105 105 105 
105 105 105 105 105 105 105 105 105 105 105 105 105 105 105 105 105 105 105 105 105 105 105 105 105 105 105 105 105 105 105 105 105 105 105 105 105 105 105 105 105 105 49 49 49 49 49 49 49 49 49 49 49 49 49 49 49 49 49 49 105 105 105 105 105 105 105 105 105 105 105 105 105 105 105 105 105 105 105 105 105 105 105 105 105 105 105 105 105 105 105 105 105 105 105 105 105 105 105 105 105 105 105 105 105 105 105 105 105 105 105 105 105 105 94 94 94 94 94 94 105 105 105 105 105 105 105 105 105 105 105 105 105 105 105 49 49 49 105 105 105 105 105 105 105 105 105 105 105 105 105 105 105 94 94 94 94 94 94 105 105 105 105 105 105 105 105 105 105 105 105 105 105 105 105 105 105 105 105 105 105 105 105 105 105 105 105 105 105 105 105 105 
105 105 105 105 105 105 105 105 105 105 105 105 105 105 105 105 105 105 105 105 105 105 105 105 105 105 105 105 105 105 105 105 105 105 105 105 105 105 105 105 105 105 105 105 105 105 105 105 105 105 105 105 105 105 105 105 105 94 94 94 105 105 105 105 105 105 105 105 105 105 105 105 105 105 105 105 105 105 105 105 105 105 105 105 105 105 105 105 105 105 105 105 105 105 105 105 105 105 105 94 94 94 94 94 94 94 94 94 94 94 94 94 94 94 94 94 94 105 105 105 105 105 105 105 105 105 105 105 105 105 105 105 105 105 105 105 105 105 49 49 49 49 49 49 105 105 105 105 105 105 105 105 105 105 105 105 94 94 94 94 94 94 105 105 105 105 105 105 105 105 105 105 105 105 105 105 105 105 105 105 105 105 105 105 105 105 105 105 105 105 105 105 
105 105 105 105 105 105 105 105 105 105 105 105 105 105 105 105 105 105 105 105 105 105 105 105 105 105 105 105 105 105 105 105 105 105 105 105 105 105 105 105 105 105 105 105 105 105 105 105 105 105 105 105 105 105 105 105 105 105 105 105 94 94 94 105 105 105 105 105 105 105 105 105 49 49 49 105 105 105 105 105 105 105 105 105 105 105 105 105 105 105 105 105 105 105 105 105 105 105 105 105 105 105 105 105 105 105 105 105 105 105 105 105 105 105 105 105 105 105 105 105 105 105 105 105 105 105 105 105 105 105 105 105 105 105 105 105 105 105 49 49 49 49 49 49 105 105 105 105 105 105 105 105 105 105 105 105 105 105 105 94 94 94 94 94 94 105 105 105 105 105 105 105 105 105 105 105 105 105 105 105 105 105 105 105 105 105 105 105 105 105 105 105 
105 105 105 105 105 105 105 105 105 105 105 105 105 105 105 105 105 105 105 105 105 105 105 105 94 94 94 94 94 94 94 94 94 94 94 94 94 94 94 94 94 94 94 94 94 94 94 94 94 94 94 94 94 94 105 105 105 105 105 105 94 94 94 94 94 94 105 105 105 105 105 105 49 49 49 105 105 105 105 105 105 105 105 105 105 105 105 105 105 105 105 105 105 105 105 105 105 105 105 49 49 49 49 49 49 49 49 49 49 49 49 49 49 49 49 49 49 49 49 49 49 49 49 49 49 49 49 49 49 49 49 49 49 49 49 49 49 49 105 105 105 49 49 49 49 49 49 105 105 105 105 105 105 105 105 105 105 105 105 105 105 105 94 94 94 94 94 94 105 105 105 105 105 105 105 105 105 105 105 105 105 105 105 105 105 105 105 105 105 105 105 105 
105 105 105 105 105 105 105 105 105 94 94 94 94 94 94 94 94 94 94 94 94 94 94 94 105 105 105 105 105 105 105 105 105 105 105 105 105 105 105 105 105 105 105 105 105 105 105 105 105 105 105 105 105 105 94 94 94 105 105 105 105 105 105 105 105 105 94 94 94 94 94 94 105 105 105 49 49 49 49 49 49 105 105 105 105 105 105 105 105 105 105 105 105 105 105 105 105 105 105 105 105 105 105 105 105 105 105 105 105 105 105 105 105 105 105 105 105 105 105 105 105 105 105 105 105 105 105 105 105 105 105 105 105 105 105 105 105 105 105 105 105 105 105 105 105 105 105 49 49 49 49 49 49 105 105 105 105 105 105 105 105 105 105 105 105 94 94 94 94 94 94 105 105 105 105 105 105 105 105 105 105 105 105 105 105 105 105 105 105 105 105 105 
105 105 105 105 105 105 105 105 105 105 105 105 105 105 105 105 105 105 105 105 105 105 105 105 105 105 105 105 105 105 105 105 105 105 105 105 105 105 105 105 105 105 105 105 105 105 105 105 105 105 105 105 105 105 94 94 94 105 105 105 105 105 105 105 105 105 105 105 105 94 94 94 94 94 94 105 105 105 49 49 49 49 49 49 105 105 105 105 105 105 105 105 105 105 105 105 105 105 105 105 105 105 105 105 105 105 105 105 105 105 105 105 105 105 105 105 105 94 94 94 94 94 94 94 94 94 94 94 94 94 94 94 94 94 94 105 105 105 105 105 105 105 105 105 105 105 105 105 105 105 49 49 49 105 105 105 105 105 105 105 105 105 105 105 105 105 105 105 94 94 94 94 94 94 105 105 105 105 105 105 105 105 105 105 105 105 105 105 105 105 105 105 
105 105 105 105 105 105 105 105 105 105 105 105 105 105 105 105 105 105 49 49 49 49 49 49 49 49 49 49 49 49 49 49 49 49 49 49 49 49 49 49 49 49 49 49 49 105 105 105 105 105 105 105 105 105 94 94 94 105 105 105 105 105 105 105 105 105 105 105 105 105 105 105 94 94 94 105 105 105 105 105 105 49 49 49 105 105 105 105 105 105 105 105 105 105 105 105 105 105 105 105 105 105 105 105 105 105 105 105 105 105 105 105 105 105 105 105 105 105 105 105 105 105 105 105 105 105 105 105 105 105 105 105 105 105 105 94 94 94 105 105 105 105 105 105 105 105 105 105 105 105 105 105 105 49 49 49 105 105 105 105 105 105 105 105 105 105 105 105 105 105 105 94 94 94 105 105 105 105 105 105 105 105 105 105 105 105 105 105 105 105 105 105 
105 105 105 105 105 105 105 105 105 49 49 49 49 49 49 49 49 49 105 105 105 105 105 105 105 105 105 105 105 105 105 105 105 105 105 105 105 105 105 105 105 105 49 49 49 49 49 49 49 49 49 105 105 105 105 105 105 94 94 94 94 94 94 94 94 94 94 94 94 94 94 94 94 94 94 105 105 105 105 105 105 49 49 49 49 49 49 105 105 105 105 105 105 105 105 105 105 105 105 105 105 105 105 105 105 105 105 105 105 105 105 105 105 105 105 105 105 105 105 105 105 105 105 105 105 105 105 105 105 105 105 105 105 105 105 94 94 94 94 94 94 105 105 105 105 105 105 105 105 105 105 105 105 49 49 49 49 49 49 105 105 105 105 105 105 105 105 105 105 105 105 94 94 94 94 94 94 105 105 105 105 105 105 105 105 105 105 105 105 105 105 105 
105 105 105 105 105 105 105 105 105 105 105 105 105 105 105 105 105 105 105 105 105 105 105 105 105 105 105 105 105 105 105 105 105 105 105 105 105 105 105 105 105 105 105 105 105 105 105 105 49 49 49 105 105 105 105 105 105 105 105 105 105 105 105 105 105 105 105 105 105 105 105 105 105 105 105 105 105 105 105 105 105 105 105 105 49 49 49 49 49 49 105 105 105 105 105 105 105 105 105 105 105 105 105 105 105 105 105 105 105 105 105 105 105 105 105 105 105 105 105 105 105 105 105 105 105 105 105 105 105 105 105 105 105 105 105 105 105 105 94 94 94 105 105 105 105 105 105 105 105 105 105 105 105 105 105 105 49 49 49 49 49 49 105 105 105 105 105 105 105 105 105 105 105 105 105 105 105 105 105 105 105 105 105 105 105 105 105 105 105 105 105 105 
105 105 105 105 105 105 105 105 105 105 105 105 105 105 105 105 105 105 105 105 105 105 105 105 105 105 105 105 105 105 105 105 105 105 105 105 105 105 105 105 105 105 105 105 105 105 105 105 49 49 49 105 105 105 105 105 105 105 105 105 105 105 105 105 105 105 105 105 105 105 105 105 105 105 105 105 105 105 105 105 105 105 105 105 105 105 105 49 49 49 49 49 49 49 49 49 105 105 105 105 105 105 105 105 105 105 105 105 105 105 105 105 105 105 105 105 105 105 105 105 105 105 105 105 105 105 105 105 105 105 105 105 105 105 105 105 105 105 94 94 94 105 105 105 105 105 105 105 105 105 105 105 105 105 105 105 105 105 105 105 105 105 49 49 49 105 105 105 105 105 105 105 105 105 105 105 105 105 105 105 105 105 105 105 105 105 105 105 105 105 105 105 
105 105 105 94 94 94 94 94 94 94 94 94 94 94 94 94 94 94 105 105 105 105 105 105 105 105 105 105 105 105 105 105 105 105 105 105 105 105 105 105 105 105 105 105 105 49 49 49 105 105 105 49 49 49 105 105 105 105 105 105 105 105 105 105 105 105 105 105 105 105 105 105 105 105 105 105 105 105 105 105 105 105 105 105 105 105 105 105 105 105 105 105 105 105 105 105 49 49 49 105 105 105 105 105 105 105 105 105 105 105 105 105 105 105 105 105 105 105 105 105 105 105 105 105 105 105 105 105 105 105 105 105 105 105 105 105 105 105 105 105 105 94 94 94 105 105 105 105 105 105 105 105 105 105 105 105 105 105 105 105 105 105 49 49 49 105 105 105 105 105 105 105 105 105 105 105 105 105 105 105 105 105 105 105 105 105 105 105 105 105 105 105 
105 105 105 105 105 105 105 105 105 105 105 105 105 105 105 105 105 105 94 94 94 94 94 94 94 94 94 105 105 105 105 105 105 105 105 105 105 105 105 105 105 105 105 105 105 49 49 49 105 105 105 105 105 105 49 49 49 105 105 105 49 49 49 49 49 49 49 49 49 105 105 105 105 105 105 105 105 105 105 105 105 105 105 105 105 105 105 105 105 105 105 105 105 105 105 105 105 105 105 49 49 49 49 49 49 49 49 49 105 105 105 105 105 105 105 105 105 105 105 105 105 105 105 105 105 105 105 105 105 105 105 105 105 105 105 105 105 105 105 105 105 94 94 94 105 105 105 105 105 105 105 105 105 105 105 105 105 105 105 105 105 105 49 49 49 105 105 105 105 105 105 105 105 105 105 105 105 105 105 105 105 105 105 105 105 105 105 105 105 105 105 105 
105 105 105 105 105 105 105 105 105 105 105 105 105 105 105 105 105 105 105 105 105 105 105 105 94 94 94 105 105 105 105 105 105 105 105 105 105 105 105 105 105 105 105 105 105 49 49 49 105 105 105 105 105 105 105 105 105 49 49 49 49 49 49 105 105 105 105 105 105 105 105 105 105 105 105 49 49 49 49 49 49 49 49 49 49 49 49 105 105 105 105 105 105 105 105 105 49 49 49 49 49 49 49 49 49 49 49 49 49 49 49 49 49 49 105 105 105 105 105 105 105 105 105 105 105 105 105 105 105 105 105 105 105 105 105 105 105 105 105 105 105 105 105 105 105 105 105 105 105 105 105 105 105 105 105 105 105 105 105 105 105 105 105 105 105 105 105 105 105 105 105 105 105 105 105 105 105 105 105 105 105 105 105 105 105 105 105 105 105 105 105 105 
105 105 105 105 105 105 105 105 105 105 105 105 105 105 105 105 105 105 105 105 105 105 105 105 94 94 94 105 105 105 105 105 105 105 105 105 105 105 105 105 105 105 49 49 49 105 105 105 105 105 105 105 105 105 105 105 105 94 94 94 94 94 94 94 94 94 94 94 94 94 94 94 94 94 94 94 94 94 94 94 94 94 94 94 94 94 94 94 94 94 94 94 94 94 94 94 105 105 105 105 105 105 105 105 105 105 105 105 105 105 105 105 105 105 49 49 49 49 49 49 49 49 49 105 105 105 105 105 105 105 105 105 105 105 105 105 105 105 105 105 105 105 105 105 105 105 105 105 105 105 105 105 105 105 105 105 105 105 105 105 105 105 105 105 105 105 105 105 105 105 105 105 105 105 105 105 105 105 105 105 105 105 105 105 105 105 105 105 105 105 105 105 
105 105 105 105 105 105 105 105 105 105 105 105 105 105 105 105 105 105 105 105 105 105 105 105 94 94 94 105 105 105 105 105 105 105 105 105 105 105 105 105 105 105 49 49 49 105 105 105 105 105 105 105 105 105 94 94 94 94 94 94 105 105 105 105 105 105 94 94 94 105 105 105 105 105 105 105 105 105 105 105 105 105 105 105 105 105 105 105 105 105 105 105 105 105 105 105 94 94 94 94 94 94 94 94 94 94 94 94 94 94 94 94 94 94 94 94 94 105 105 105 105 105 105 49 49 49 49 49 49 105 105 105 105 105 105 105 105 105 105 105 105 105 105 105 105 105 105 105 105 105 105 105 105 105 105 105 105 105 105 105 105 105 105 105 105 105 105 105 105 105 105 105 105 105 105 105 105 105 105 105 105 105 105 105 105 105 105 105 105 105 105 105 
105 105 105 105 105 105 105 105 105 105 105 105 105 105 105 94 94 94 105 105 105 94 94 94 94 94 94 105 105 105 105 105 105 105 105 105 105 105 105 105 105 105 49 49 49 105 105 105 105 105 105 94 94 94 105 105 105 105 105 105 105 105 105 105 105 105 105 105 105 105 105 105 105 105 105 105 105 105 105 105 105 105 105 105 105 105 105 105 105 105 105 105 105 105 105 105 105 105 105 105 105 105 105 105 105 105 105 105 105 105 105 105 105 105 94 94 94 105 105 105 105 105 105 105 105 105 105 105 105 49 49 49 105 105 105 105 105 105 105 105 105 105 105 105 105 105 105 105 105 105 105 105 105 105 105 105 105 105 105 105 105 105 105 105 105 105 105 105 105 105 105 105 105 105 105 105 105 105 105 105 105 105 105 105 105 105 105 105 105 105 105 105 
105 105 105 105 105 105 105 105 105 105 105 105 105 105 105 105 105 105 94 94 94 105 105 105 105 105 105 105 105 105 105 105 105 105 105 105 105 105 105 49 49 49 49 49 49 105 105 105 105 105 105 94 94 94 105 105 105 105 105 105 105 105 105 105 105 105 105 105 105 105 105 105 105 105 105 105 105 105 105 105 105 105 105 105 105 105 105 105 105 105 105 105 105 105 105 105 105 105 105 105 105 105 105 105 105 105 105 105 105 105 105 105 105 105 105 105 105 105 105 105 105 105 105 105 105 105 105 105 105 105 105 105 49 49 49 105 105 105 105 105 105 105 105 105 105 105 105 105 105 105 105 105 105 105 105 105 105 105 105 105 105 105 105 105 105 105 105 105 105 105 105 105 105 105 105 105 105 105 105 105 105 105 105 105 105 105 105 105 105 105 105 105 
105 105 105 105 105 105 105 105 105 105 105 105 105 105 105 105 105 105 105 105 105 105 105 105 105 105 105 105 105 105 105 105 105 105 105 105 105 105 105 49 49 49 105 105 105 105 105 105 105 105 105 105 105 105 105 105 105 105 105 105 105 105 105 105 105 105 105 105 105 105 105 105 105 105 105 105 105 105 105 105 105 105 105 105 105 105 105 105 105 105 105 105 105 105 105 105 105 105 105 105 105 105 105 105 105 105 105 105 105 105 105 105 105 105 105 105 105 105 105 105 105 105 105 105 105 105 105 105 105 105 105 105 49 49 49 49 49 49 105 105 105 105 105 105 105 105 105 105 105 105 105 105 105 105 105 105 105 105 105 105 105 105 105 105 105 105 105 105 105 105 105 105 105 105 105 105 105 105 105 105 105 105 105 105 105 105 105 105 105 105 105 105 
105 105 105 105 105 105 105 105 105 105 105 105 105 105 105 105 105 105 105 105 105 105 105 105 105 105 105 105 105 105 105 105 105 105 105 105 105 105 105 49 49 49 105 105 105 105 105 105 105 105 105 105 105 105 105 105 105 105 105 105 105 105 105 105 105 105 105 105 105 105 105 105 105 105 105 105 105 105 105 105 105 105 105 105 105 105 105 105 105 105 105 105 105 105 105 105 105 105 105 105 105 105 105 105 105 105 105 105 105 105 105 105 105 105 105 105 105 105 105 105 105 105 105 105 105 105 105 105 105 105 105 105 105 105 105 105 105 105 105 105 105 105 105 105 105 105 105 105 105 105 105 105 105 105 105 105 105 105 105 105 105 105 105 105 105 105 105 105 105 105 105 105 105 105 105 105 105 105 105 105 105 105 105 105 105 105 105 105 105 105 105 105 
