P3
64 64
255
126 70 17 126 70 17 126 70 17 126 70 17 126 70 17 126 70 17 126 70 17 126 70 17 126 70 17 126 70 17 126 70 17 126 70 17 126 70 17 126 70 17 126 70 17 126 70 17 126 70 17 126 70 17 126 70 17 126 70 17 126 70 17 126 70 17 126 70 17 126 70 17 126 70 17 126 70 17 126 70 17 126 70 17 126 70 17 126 70 17 126 70 17 126 70 17 126 70 17 126 70 17 126 70 17 126 70 17 126 70 17 126 70 17 126 70 17 126 70 17 126 70 17 126 70 17 126 70 17 126 70 17 126 70 17 126 70 17 126 70 17 126 70 17 126 70 17 126 70 17 126 70 17 126 70 17 126 70 17 126 70 17 126 70 17 126 70 17 126 70 17 126 70 17 126 70 17 126 70 17 126 70 17 126 70 17 126 70 17 126 70 17 
187 109 36 187 109 36 187 109 36 187 109 36 187 109 36 187 109 36 187 109 36 187 109 36 187 109 36 126 70 17 187 109 36 187 109 36 187 109 36 187 109 36 187 109 36 187 109 36 187 109 36 187 109 36 187 109 36 187 109 36 187 109 36 187 109 36 187 109 36 187 109 36 187 109 36 187 109 36 187 109 36 187 109 36 126 70 17 187 109 36 187 109 36 187 109 36 187 109 36 187 109 36 187 109 36 187 109 36 187 109 36 187 109 36 187 109 36 187 109 36 187 109 36 126 70 17 187 109 36 187 109 36 187 109 36 187 109 36 187 109 36 187 109 36 187 109 36 187 109 36 187 109 36 187 109 36 187 109 36 187 109 36 187 109 36 187 109 36 126 70 17 187 109 36 187 109 36 187 109 36 187 109 36 187 109 36 187 109 36 187 109 36 
187 109 36 187 109 36 187 109 36 187 109 36 187 109 36 187 109 36 187 109 36 187 109 36 187 109 36 126 70 17 187 109 36 187 109 36 187 109 36 187 109 36 187 109 36 187 109 36 187 109 36 187 109 36 187 109 36 187 109 36 187 109 36 187 109 36 187 109 36 187 109 36 187 109 36 187 109 36 187 109 36 187 109 36 126 70 17 187 109 36 187 109 36 187 109 36 187 109 36 187 109 36 187 109 36 187 109 36 187 109 36 187 109 36 187 109 36 187 109 36 187 109 36 126 70 17 187 109 36 187 109 36 187 109 36 187 109 36 187 109 36 187 109 36 187 109 36 187 109 36 187 109 36 187 109 36 187 109 36 187 109 36 187 109 36 187 109 36 126 70 17 187 109 36 187 109 36 187 109 36 187 109 36 187 109 36 187 109 36 187 109 36 
187 109 36 187 109 36 187 109 36 187 109 36 187 109 36 187 109 36 187 109 36 187 109 36 187 109 36 126 70 17 187 109 36 187 109 36 187 109 36 187 109 36 187 109 36 165 97 33 187 109 36 187 109 36 187 109 36 187 109 36 187 109 36 187 109 36 187 109 36 187 109 36 187 109 36 187 109 36 187 109 36 187 109 36 126 70 17 187 109 36 187 109 36 187 109 36 187 109 36 187 109 36 187 109 36 187 109 36 187 109 36 187 109 36 187 109 36 187 109 36 187 109 36 126 70 17 187 109 36 187 109 36 187 109 36 187 109 36 187 109 36 187 109 36 187 109 36 187 109 36 187 109 36 187 109 36 187 109 36 187 109 36 187 109 36 187 109 36 126 70 17 187 109 36 187 109 36 187 109 36 187 109 36 187 109 36 165 97 33 187 109 36 
187 109 36 187 109 36 187 109 36 187 109 36 187 109 36 187 109 36 187 109 36 187 109 36 187 109 36 126 70 17 187 109 36 187 109 36 187 109 36 187 109 36 187 109 36 165 97 33 187 109 36 187 109 36 187 109 36 187 109 36 187 109 36 187 109 36 187 109 36 187 109 36 187 109 36 187 109 36 187 109 36 187 109 36 126 70 17 187 109 36 187 109 36 187 109 36 187 109 36 187 109 36 187 109 36 165 97 33 187 109 36 187 109 36 187 109 36 187 109 36 187 109 36 126 70 17 187 109 36 187 109 36 187 109 36 187 109 36 187 109 36 187 109 36 187 109 36 187 109 36 187 109 36 187 109 36 187 109 36 187 109 36 187 109 36 187 109 36 126 70 17 187 109 36 187 109 36 187 109 36 187 109 36 187 109 36 165 97 33 187 109 36 
165 97 33 187 109 36 187 109 36 187 109 36 187 109 36 187 109 36 187 109 36 187 109 36 187 109 36 126 70 17 187 109 36 187 109 36 187 109 36 187 109 36 187 109 36 165 97 33 187 109 36 187 109 36 187 109 36 187 109 36 187 109 36 187 109 36 187 109 36 187 109 36 187 109 36 187 109 36 187 109 36 187 109 36 126 70 17 187 109 36 187 109 36 187 109 36 187 109 36 187 109 36 187 109 36 187 109 36 165 97 33 187 109 36 187 109 36 187 109 36 187 109 36 126 70 17 187 109 36 187 109 36 187 109 36 187 109 36 187 109 36 187 109 36 187 109 36 187 109 36 187 109 36 187 109 36 187 109 36 187 109 36 187 109 36 187 109 36 126 70 17 187 109 36 187 109 36 187 109 36 187 109 36 187 109 36 165 97 33 165 97 33 
165 97 33 187 109 36 187 109 36 187 109 36 187 109 36 187 109 36 187 109 36 187 109 36 187 109 36 126 70 17 187 109 36 187 109 36 187 109 36 187 109 36 165 97 33 187 109 36 187 109 36 187 109 36 187 109 36 187 109 36 187 109 36 187 109 36 187 109 36 187 109 36 187 109 36 187 109 36 187 109 36 187 109 36 126 70 17 187 109 36 187 109 36 187 109 36 187 109 36 187 109 36 187 109 36 187 109 36 165 97 33 165 97 33 187 109 36 187 109 36 187 109 36 126 70 17 187 109 36 187 109 36 187 109 36 187 109 36 187 109 36 165 97 33 187 109 36 187 109 36 187 109 36 187 109 36 187 109 36 187 109 36 187 109 36 187 109 36 126 70 17 187 109 36 187 109 36 187 109 36 187 109 36 187 109 36 165 97 33 165 97 33 
165 97 33 187 109 36 187 109 36 187 109 36 187 109 36 187 109 36 187 109 36 187 109 36 187 109 36 126 70 17 187 109 36 187 109 36 187 109 36 187 109 36 165 97 33 187 109 36 187 109 36 187 109 36 187 109 36 187 109 36 187 109 36 187 109 36 187 109 36 187 109 36 187 109 36 187 109 36 187 109 36 187 109 36 126 70 17 187 109 36 187 109 36 187 109 36 187 109 36 187 109 36 187 109 36 187 109 36 187 109 36 165 97 33 187 109 36 187 109 36 187 109 36 126 70 17 187 109 36 187 109 36 187 109 36 187 109 36 187 109 36 187 109 36 165 97 33 187 109 36 187 109 36 187 109 36 187 109 36 187 109 36 187 109 36 187 109 36 126 70 17 187 109 36 187 109 36 187 109 36 187 109 36 187 109 36 165 97 33 165 97 33 
165 97 33 187 109 36 187 109 36 187 109 36 187 109 36 187 109 36 187 109 36 187 109 36 187 109 36 126 70 17 187 109 36 187 109 36 187 109 36 187 109 36 165 97 33 187 109 36 187 109 36 187 109 36 187 109 36 187 109 36 187 109 36 187 109 36 187 109 36 187 109 36 187 109 36 187 109 36 187 109 36 187 109 36 126 70 17 187 109 36 187 109 36 187 109 36 187 109 36 187 109 36 187 109 36 187 109 36 187 109 36 187 109 36 165 97 33 187 109 36 187 109 36 126 70 17 187 109 36 187 109 36 187 109 36 187 109 36 187 109 36 187 109 36 165 97 33 187 109 36 187 109 36 187 109 36 187 109 36 187 109 36 187 109 36 187 109 36 126 70 17 187 109 36 187 109 36 187 109 36 187 109 36 187 109 36 165 97 33 165 97 33 
165 97 33 187 109 36 187 109 36 187 109 36 187 109 36 187 109 36 187 109 36 187 109 36 187 109 36 126 70 17 187 109 36 187 109 36 187 109 36 187 109 36 187 109 36 165 97 33 187 109 36 187 109 36 187 109 36 187 109 36 187 109 36 187 109 36 187 109 36 187 109 36 187 109 36 187 109 36 187 109 36 187 109 36 126 70 17 187 109 36 187 109 36 187 109 36 187 109 36 187 109 36 187 109 36 187 109 36 187 109 36 187 109 36 187 109 36 165 97 33 187 109 36 126 70 17 187 109 36 187 109 36 187 109 36 187 109 36 187 109 36 187 109 36 187 109 36 165 97 33 187 109 36 187 109 36 187 109 36 187 109 36 187 109 36 187 109 36 126 70 17 187 109 36 187 109 36 187 109 36 187 109 36 187 109 36 187 109 36 165 97 33 
165 97 33 187 109 36 187 109 36 187 109 36 187 109 36 187 109 36 187 109 36 187 109 36 187 109 36 126 70 17 187 109 36 187 109 36 187 109 36 187 109 36 187 109 36 165 97 33 187 109 36 187 109 36 187 109 36 187 109 36 187 109 36 187 109 36 187 109 36 187 109 36 187 109 36 187 109 36 187 109 36 187 109 36 126 70 17 187 109 36 187 109 36 187 109 36 187 109 36 187 109 36 187 109 36 187 109 36 187 109 36 187 109 36 187 109 36 165 97 33 187 109 36 126 70 17 187 109 36 187 109 36 187 109 36 187 109 36 187 109 36 187 109 36 187 109 36 187 109 36 165 97 33 187 109 36 187 109 36 187 109 36 187 109 36 187 109 36 126 70 17 187 109 36 187 109 36 187 109 36 187 109 36 187 109 36 187 109 36 165 97 33 
165 97 33 187 109 36 187 109 36 187 109 36 187 109 36 187 109 36 187 109 36 187 109 36 187 109 36 187 109 36 126 70 17 187 109 36 187 109 36 187 109 36 187 109 36 187 109 36 165 97 33 187 109 36 187 109 36 187 109 36 187 109 36 187 109 36 187 109 36 187 109 36 187 109 36 187 109 36 187 109 36 187 109 36 126 70 17 187 109 36 187 109 36 187 109 36 187 109 36 187 109 36 187 109 36 187 109 36 187 109 36 187 109 36 187 109 36 165 97 33 187 109 36 126 70 17 187 109 36 187 109 36 187 109 36 187 109 36 187 109 36 187 109 36 187 109 36 187 109 36 187 109 36 165 97 33 187 109 36 187 109 36 187 109 36 187 109 36 126 70 17 187 109 36 187 109 36 187 109 36 187 109 36 187 109 36 187 109 36 187 109 36 
165 97 33 187 109 36 187 109 36 187 109 36 187 109 36 187 109 36 187 109 36 187 109 36 187 109 36 187 109 36 126 70 17 187 109 36 187 109 36 187 109 36 187 109 36 187 109 36 165 97 33 187 109 36 187 109 36 187 109 36 187 109 36 187 109 36 187 109 36 187 109 36 187 109 36 187 109 36 187 109 36 187 109 36 126 70 17 187 109 36 187 109 36 187 109 36 187 109 36 187 109 36 187 109 36 187 109 36 187 109 36 187 109 36 187 109 36 165 97 33 187 109 36 126 70 17 187 109 36 187 109 36 187 109 36 187 109 36 187 109 36 187 109 36 187 109 36 187 109 36 187 109 36 165 97 33 187 109 36 187 109 36 187 109 36 187 109 36 126 70 17 187 109 36 187 109 36 187 109 36 187 109 36 187 109 36 187 109 36 187 109 36 
187 109 36 165 97 33 187 109 36 187 109 36 187 109 36 187 109 36 187 109 36 187 109 36 187 109 36 187 109 36 126 70 17 187 109 36 187 109 36 187 109 36 187 109 36 187 109 36 187 109 36 165 97 33 187 109 36 187 109 36 187 109 36 187 109 36 187 109 36 187 109 36 187 109 36 187 109 36 187 109 36 187 109 36 126 70 17 187 109 36 187 109 36 187 109 36 187 109 36 187 109 36 187 109 36 187 109 36 187 109 36 187 109 36 187 109 36 165 97 33 187 109 36 126 70 17 187 109 36 187 109 36 187 109 36 187 109 36 187 109 36 187 109 36 187 109 36 187 109 36 187 109 36 187 109 36 165 97 33 187 109 36 187 109 36 187 109 36 126 70 17 187 109 36 187 109 36 187 109 36 187 109 36 187 109 36 187 109 36 187 109 36 
187 109 36 165 97 33 187 109 36 187 109 36 187 109 36 187 109 36 187 109 36 187 109 36 187 109 36 187 109 36 126 70 17 187 109 36 187 109 36 187 109 36 187 109 36 187 109 36 187 109 36 165 97 33 187 109 36 187 109 36 187 109 36 187 109 36 187 109 36 187 109 36 187 109 36 187 109 36 187 109 36 187 109 36 126 70 17 187 109 36 187 109 36 187 109 36 187 109 36 187 109 36 187 109 36 187 109 36 187 109 36 187 109 36 187 109 36 165 97 33 187 109 36 126 70 17 187 109 36 187 109 36 187 109 36 187 109 36 187 109 36 187 109 36 187 109 36 187 109 36 187 109 36 187 109 36 165 97 33 187 109 36 187 109 36 187 109 36 126 70 17 187 109 36 187 109 36 187 109 36 187 109 36 187 109 36 187 109 36 187 109 36 
187 109 36 165 97 33 187 109 36 187 109 36 187 109 36 187 109 36 187 109 36 187 109 36 187 109 36 187 109 36 126 70 17 187 109 36 187 109 36 187 109 36 187 109 36 187 109 36 187 109 36 165 97 33 187 109 36 187 109 36 187 109 36 187 109 36 187 109 36 187 109 36 187 109 36 187 109 36 187 109 36 187 109 36 126 70 17 187 109 36 187 109 36 187 109 36 187 109 36 187 109 36 187 109 36 187 109 36 187 109 36 187 109 36 165 97 33 187 109 36 187 109 36 126 70 17 187 109 36 187 109 36 187 109 36 187 109 36 187 109 36 187 109 36 187 109 36 187 109 36 187 109 36 187 109 36 165 97 33 187 109 36 187 109 36 187 109 36 126 70 17 187 109 36 187 109 36 187 109 36 187 109 36 187 109 36 187 109 36 187 109 36 
187 109 36 187 109 36 165 97 33 187 109 36 187 109 36 187 109 36 187 109 36 187 109 36 187 109 36 187 109 36 126 70 17 187 109 36 187 109 36 187 109 36 187 109 36 187 109 36 187 109 36 187 109 36 165 97 33 187 109 36 187 109 36 187 109 36 187 109 36 187 109 36 187 109 36 187 109 36 187 109 36 126 70 17 187 109 36 187 109 36 187 109 36 187 109 36 187 109 36 187 109 36 187 109 36 187 109 36 187 109 36 187 109 36 165 97 33 187 109 36 187 109 36 126 70 17 187 109 36 187 109 36 187 109 36 187 109 36 187 109 36 187 109 36 187 109 36 187 109 36 187 109 36 187 109 36 165 97 33 187 109 36 187 109 36 187 109 36 187 109 36 126 70 17 187 109 36 187 109 36 187 109 36 187 109 36 187 109 36 187 109 36 
187 109 36 187 109 36 165 97 33 187 109 36 187 109 36 187 109 36 187 109 36 187 109 36 187 109 36 187 109 36 126 70 17 187 109 36 187 109 36 187 109 36 187 109 36 187 109 36 187 109 36 187 109 36 165 97 33 187 109 36 187 109 36 187 109 36 187 109 36 187 109 36 187 109 36 187 109 36 187 109 36 126 70 17 187 109 36 187 109 36 187 109 36 187 109 36 187 109 36 187 109 36 187 109 36 187 109 36 187 109 36 165 97 33 187 109 36 187 109 36 187 109 36 126 70 17 187 109 36 187 109 36 187 109 36 187 109 36 187 109 36 187 109 36 187 109 36 187 109 36 187 109 36 165 97 33 187 109 36 187 109 36 187 109 36 187 109 36 187 109 36 126 70 17 187 109 36 187 109 36 187 109 36 187 109 36 187 109 36 187 109 36 
187 109 36 187 109 36 165 97 33 187 109 36 187 109 36 187 109 36 187 109 36 187 109 36 187 109 36 187 109 36 126 70 17 187 109 36 187 109 36 187 109 36 187 109 36 187 109 36 187 109 36 187 109 36 165 97 33 187 109 36 187 109 36 187 109 36 187 109 36 187 109 36 187 109 36 187 109 36 187 109 36 126 70 17 187 109 36 187 109 36 187 109 36 187 109 36 187 109 36 187 109 36 187 109 36 187 109 36 187 109 36 165 97 33 187 109 36 187 109 36 187 109 36 126 70 17 187 109 36 187 109 36 187 109 36 187 109 36 187 109 36 187 109 36 187 109 36 187 109 36 187 109 36 165 97 33 187 109 36 187 109 36 187 109 36 187 109 36 187 109 36 126 70 17 187 109 36 187 109 36 187 109 36 187 109 36 187 109 36 187 109 36 
187 109 36 187 109 36 165 97 33 187 109 36 187 109 36 187 109 36 187 109 36 187 109 36 187 109 36 187 109 36 126 70 17 187 109 36 187 109 36 187 109 36 187 109 36 187 109 36 187 109 36 187 109 36 165 97 33 187 109 36 187 109 36 187 109 36 187 109 36 187 109 36 187 109 36 187 109 36 187 109 36 126 70 17 187 109 36 187 109 36 187 109 36 187 109 36 187 109 36 187 109 36 187 109 36 187 109 36 165 97 33 187 109 36 187 109 36 187 109 36 187 109 36 126 70 17 187 109 36 187 109 36 187 109 36 187 109 36 187 109 36 187 109 36 187 109 36 187 109 36 165 97 33 187 109 36 187 109 36 187 109 36 187 109 36 187 109 36 187 109 36 126 70 17 187 109 36 187 109 36 187 109 36 187 109 36 187 109 36 187 109 36 
187 109 36 187 109 36 165 97 33 187 109 36 187 109 36 187 109 36 187 109 36 187 109 36 187 109 36 187 109 36 126 70 17 187 109 36 187 109 36 187 109 36 187 109 36 187 109 36 187 109 36 187 109 36 165 97 33 187 109 36 187 109 36 187 109 36 187 109 36 187 109 36 187 109 36 187 109 36 187 109 36 126 70 17 187 109 36 187 109 36 187 109 36 187 109 36 187 109 36 187 109 36 187 109 36 165 97 33 187 109 36 187 109 36 187 109 36 187 109 36 187 109 36 126 70 17 187 109 36 187 109 36 187 109 36 187 109 36 187 109 36 187 109 36 187 109 36 187 109 36 165 97 33 187 109 36 187 109 36 187 109 36 187 109 36 187 109 36 187 109 36 126 70 17 187 109 36 187 109 36 187 109 36 187 109 36 187 109 36 187 109 36 
187 109 36 187 109 36 165 97 33 187 109 36 187 109 36 187 109 36 187 109 36 187 109 36 187 109 36 187 109 36 126 70 17 187 109 36 187 109 36 187 109 36 187 109 36 187 109 36 187 109 36 187 109 36 165 97 33 187 109 36 187 109 36 187 109 36 187 109 36 187 109 36 187 109 36 187 109 36 187 109 36 126 70 17 187 109 36 187 109 36 187 109 36 187 109 36 187 109 36 187 109 36 187 109 36 165 97 33 187 109 36 187 109 36 187 109 36 187 109 36 187 109 36 126 70 17 187 109 36 187 109 36 187 109 36 187 109 36 187 109 36 187 109 36 187 109 36 165 97 33 187 109 36 187 109 36 187 109 36 187 109 36 187 109 36 187 109 36 187 109 36 126 70 17 187 109 36 187 109 36 187 109 36 187 109 36 187 109 36 187 109 36 
187 109 36 187 109 36 165 97 33 187 109 36 187 109 36 187 109 36 187 109 36 187 109 36 187 109 36 187 109 36 126 70 17 187 109 36 187 109 36 187 109 36 187 109 36 187 109 36 187 109 36 165 97 33 165 97 33 187 109 36 187 109 36 187 109 36 187 109 36 187 109 36 187 109 36 187 109 36 187 109 36 126 70 17 187 109 36 187 109 36 187 109 36 187 109 36 187 109 36 165 97 33 165 97 33 165 97 33 187 109 36 187 109 36 187 109 36 187 109 36 187 109 36 126 70 17 187 109 36 187 109 36 187 109 36 187 109 36 187 109 36 187 109 36 165 97 33 187 109 36 187 109 36 187 109 36 187 109 36 187 109 36 187 109 36 187 109 36 187 109 36 126 70 17 187 109 36 187 109 36 187 109 36 187 109 36 187 109 36 187 109 36 
187 109 36 187 109 36 165 97 33 187 109 36 187 109 36 187 109 36 187 109 36 187 109 36 187 109 36 187 109 36 126 70 17 187 109 36 187 109 36 187 109 36 187 109 36 187 109 36 187 109 36 165 97 33 187 109 36 187 109 36 187 109 36 187 109 36 187 109 36 187 109 36 187 109 36 187 109 36 187 109 36 126 70 17 187 109 36 187 109 36 187 109 36 187 109 36 165 97 33 165 97 33 165 97 33 165 97 33 165 97 33 187 109 36 187 109 36 187 109 36 187 109 36 126 70 17 187 109 36 187 109 36 187 109 36 187 109 36 187 109 36 187 109 36 165 97 33 187 109 36 187 109 36 187 109 36 187 109 36 187 109 36 187 109 36 187 109 36 187 109 36 126 70 17 187 109 36 187 109 36 187 109 36 187 109 36 187 109 36 187 109 36 
187 109 36 187 109 36 165 97 33 187 109 36 187 109 36 187 109 36 187 109 36 187 109 36 187 109 36 187 109 36 126 70 17 187 109 36 187 109 36 187 109 36 187 109 36 187 109 36 187 109 36 165 97 33 187 109 36 187 109 36 187 109 36 187 109 36 187 109 36 187 109 36 187 109 36 187 109 36 187 109 36 126 70 17 187 109 36 187 109 36 187 109 36 187 109 36 165 97 33 165 97 33 165 97 33 165 97 33 165 97 33 187 109 36 187 109 36 187 109 36 187 109 36 126 70 17 187 109 36 187 109 36 187 109 36 187 109 36 187 109 36 165 97 33 187 109 36 187 109 36 187 109 36 187 109 36 187 109 36 187 109 36 187 109 36 187 109 36 187 109 36 126 70 17 187 109 36 187 109 36 187 109 36 187 109 36 187 109 36 187 109 36 
187 109 36 187 109 36 165 97 33 187 109 36 187 109 36 187 109 36 187 109 36 187 109 36 187 109 36 187 109 36 126 70 17 187 109 36 187 109 36 187 109 36 187 109 36 187 109 36 187 109 36 165 97 33 165 97 33 187 109 36 187 109 36 187 109 36 187 109 36 187 109 36 187 109 36 187 109 36 187 109 36 126 70 17 187 109 36 187 109 36 187 109 36 187 109 36 165 97 33 165 97 33 165 97 33 165 97 33 165 97 33 187 109 36 187 109 36 187 109 36 187 109 36 126 70 17 187 109 36 187 109 36 187 109 36 187 109 36 187 109 36 165 97 33 187 109 36 187 109 36 187 109 36 187 109 36 187 109 36 187 109 36 187 109 36 187 109 36 187 109 36 126 70 17 187 109 36 187 109 36 187 109 36 187 109 36 187 109 36 187 109 36 
187 109 36 187 109 36 165 97 33 187 109 36 187 109 36 187 109 36 187 109 36 187 109 36 187 109 36 187 109 36 126 70 17 187 109 36 187 109 36 187 109 36 187 109 36 187 109 36 165 97 33 165 97 33 165 97 33 187 109 36 187 109 36 187 109 36 187 109 36 187 109 36 187 109 36 187 109 36 187 109 36 126 70 17 187 109 36 187 109 36 187 109 36 165 97 33 165 97 33 165 97 33 165 97 33 165 97 33 165 97 33 187 109 36 187 109 36 187 109 36 187 109 36 126 70 17 187 109 36 187 109 36 187 109 36 187 109 36 187 109 36 165 97 33 187 109 36 187 109 36 187 109 36 187 109 36 187 109 36 187 109 36 187 109 36 187 109 36 187 109 36 126 70 17 187 109 36 187 109 36 187 109 36 187 109 36 187 109 36 187 109 36 
187 109 36 187 109 36 165 97 33 187 109 36 187 109 36 187 109 36 187 109 36 187 109 36 187 109 36 187 109 36 126 70 17 187 109 36 187 109 36 187 109 36 187 109 36 187 109 36 165 97 33 165 97 33 165 97 33 165 97 33 187 109 36 187 109 36 187 109 36 187 109 36 187 109 36 187 109 36 187 109 36 126 70 17 187 109 36 187 109 36 187 109 36 165 97 33 165 97 33 165 97 33 165 97 33 165 97 33 165 97 33 187 109 36 187 109 36 187 109 36 187 109 36 126 70 17 187 109 36 187 109 36 187 109 36 187 109 36 187 109 36 165 97 33 187 109 36 187 109 36 187 109 36 187 109 36 187 109 36 187 109 36 187 109 36 187 109 36 187 109 36 126 70 17 187 109 36 187 109 36 187 109 36 187 109 36 187 109 36 187 109 36 
187 109 36 187 109 36 165 97 33 187 109 36 187 109 36 187 109 36 187 109 36 187 109 36 187 109 36 187 109 36 126 70 17 187 109 36 187 109 36 187 109 36 187 109 36 187 109 36 165 97 33 165 97 33 165 97 33 165 97 33 187 109 36 187 109 36 187 109 36 187 109 36 187 109 36 187 109 36 187 109 36 126 70 17 187 109 36 187 109 36 187 109 36 165 97 33 165 97 33 165 97 33 165 97 33 165 97 33 165 97 33 187 109 36 187 109 36 187 109 36 187 109 36 126 70 17 187 109 36 187 109 36 187 109 36 187 109 36 187 109 36 165 97 33 187 109 36 187 109 36 187 109 36 187 109 36 187 109 36 187 109 36 187 109 36 187 109 36 187 109 36 126 70 17 187 109 36 187 109 36 187 109 36 187 109 36 187 109 36 187 109 36 
187 109 36 187 109 36 187 109 36 165 97 33 187 109 36 187 109 36 187 109 36 187 109 36 187 109 36 187 109 36 126 70 17 187 109 36 187 109 36 187 109 36 187 109 36 187 109 36 165 97 33 165 97 33 165 97 33 165 97 33 187 109 36 187 109 36 187 109 36 187 109 36 187 109 36 187 109 36 187 109 36 126 70 17 187 109 36 187 109 36 187 109 36 165 97 33 165 97 33 165 97 33 165 97 33 165 97 33 165 97 33 187 109 36 187 109 36 187 109 36 187 109 36 126 70 17 187 109 36 187 109 36 187 109 36 187 109 36 187 109 36 187 109 36 165 97 33 187 109 36 187 109 36 187 109 36 187 109 36 187 109 36 187 109 36 187 109 36 187 109 36 126 70 17 187 109 36 187 109 36 187 109 36 187 109 36 187 109 36 187 109 36 
187 109 36 187 109 36 187 109 36 165 97 33 187 109 36 187 109 36 187 109 36 187 109 36 187 109 36 187 109 36 126 70 17 187 109 36 187 109 36 187 109 36 187 109 36 187 109 36 165 97 33 165 97 33 165 97 33 165 97 33 187 109 36 187 109 36 187 109 36 187 109 36 187 109 36 187 109 36 187 109 36 126 70 17 187 109 36 187 109 36 187 109 36 165 97 33 165 97 33 165 97 33 165 97 33 165 97 33 165 97 33 187 109 36 187 109 36 187 109 36 187 109 36 126 70 17 187 109 36 187 109 36 187 109 36 187 109 36 187 109 36 187 109 36 165 97 33 187 109 36 187 109 36 187 109 36 187 109 36 187 109 36 187 109 36 187 109 36 187 109 36 126 70 17 187 109 36 187 109 36 187 109 36 187 109 36 187 109 36 187 109 36 
187 109 36 187 109 36 187 109 36 165 97 33 187 109 36 187 109 36 187 109 36 187 109 36 187 109 36 187 109 36 126 70 17 187 109 36 187 109 36 187 109 36 187 109 36 187 109 36 165 97 33 165 97 33 165 97 33 165 97 33 187 109 36 187 109 36 187 109 36 187 109 36 187 109 36 187 109 36 187 109 36 126 70 17 187 109 36 187 109 36 187 109 36 187 109 36 165 97 33 165 97 33 165 97 33 165 97 33 165 97 33 187 109 36 187 109 36 187 109 36 187 109 36 126 70 17 187 109 36 187 109 36 187 109 36 187 109 36 187 109 36 187 109 36 187 109 36 165 97 33 187 109 36 187 109 36 187 109 36 187 109 36 187 109 36 187 109 36 187 109 36 126 70 17 187 109 36 187 109 36 187 109 36 187 109 36 187 109 36 187 109 36 
187 109 36 187 109 36 187 109 36 165 97 33 187 109 36 187 109 36 187 109 36 187 109 36 187 109 36 187 109 36 187 109 36 126 70 17 187 109 36 187 109 36 187 109 36 187 109 36 165 97 33 165 97 33 165 97 33 165 97 33 187 109 36 187 109 36 187 109 36 187 109 36 187 109 36 187 109 36 187 109 36 126 70 17 187 109 36 187 109 36 187 109 36 187 109 36 187 109 36 165 97 33 165 97 33 165 97 33 187 109 36 187 109 36 187 109 36 187 109 36 126 70 17 187 109 36 187 109 36 187 109 36 187 109 36 187 109 36 187 109 36 187 109 36 187 109 36 165 97 33 187 109 36 187 109 36 187 109 36 187 109 36 187 109 36 187 109 36 187 109 36 126 70 17 187 109 36 187 109 36 187 109 36 187 109 36 187 109 36 187 109 36 
187 109 36 187 109 36 187 109 36 165 97 33 187 109 36 187 109 36 187 109 36 187 109 36 187 109 36 187 109 36 187 109 36 126 70 17 187 109 36 187 109 36 187 109 36 187 109 36 165 97 33 165 97 33 165 97 33 165 97 33 187 109 36 187 109 36 187 109 36 187 109 36 187 109 36 187 109 36 187 109 36 126 70 17 187 109 36 187 109 36 187 109 36 187 109 36 187 109 36 165 97 33 165 97 33 187 109 36 187 109 36 187 109 36 187 109 36 187 109 36 126 70 17 187 109 36 187 109 36 187 109 36 187 109 36 187 109 36 187 109 36 187 109 36 187 109 36 165 97 33 187 109 36 187 109 36 187 109 36 187 109 36 187 109 36 187 109 36 187 109 36 126 70 17 187 109 36 187 109 36 187 109 36 187 109 36 187 109 36 187 109 36 
187 109 36 187 109 36 187 109 36 187 109 36 165 97 33 187 109 36 187 109 36 187 109 36 187 109 36 187 109 36 187 109 36 126 70 17 187 109 36 187 109 36 187 109 36 187 109 36 187 109 36 165 97 33 165 97 33 165 97 33 187 109 36 187 109 36 187 109 36 187 109 36 187 109 36 187 109 36 187 109 36 126 70 17 187 109 36 187 109 36 187 109 36 187 109 36 187 109 36 165 97 33 187 109 36 187 109 36 187 109 36 187 109 36 187 109 36 187 109 36 126 70 17 187 109 36 187 109 36 187 109 36 187 109 36 187 109 36 187 109 36 187 109 36 187 109 36 165 97 33 187 109 36 187 109 36 187 109 36 187 109 36 187 109 36 187 109 36 187 109 36 126 70 17 187 109 36 187 109 36 187 109 36 187 109 36 187 109 36 187 109 36 
187 109 36 187 109 36 187 109 36 187 109 36 165 97 33 187 109 36 187 109 36 187 109 36 187 109 36 187 109 36 187 109 36 126 70 17 187 109 36 187 109 36 187 109 36 187 109 36 187 109 36 165 97 33 165 97 33 165 97 33 187 109 36 187 109 36 187 109 36 187 109 36 187 109 36 187 109 36 187 109 36 126 70 17 187 109 36 187 109 36 187 109 36 187 109 36 187 109 36 165 97 33 187 109 36 187 109 36 187 109 36 187 109 36 187 109 36 187 109 36 126 70 17 187 109 36 187 109 36 187 109 36 187 109 36 187 109 36 187 109 36 187 109 36 165 97 33 187 109 36 187 109 36 187 109 36 187 109 36 187 109 36 187 109 36 187 109 36 187 109 36 126 70 17 187 109 36 187 109 36 187 109 36 187 109 36 187 109 36 187 109 36 
187 109 36 187 109 36 187 109 36 187 109 36 187 109 36 165 97 33 187 109 36 187 109 36 187 109 36 187 109 36 187 109 36 126 70 17 187 109 36 187 109 36 187 109 36 187 109 36 187 109 36 165 97 33 165 97 33 187 109 36 187 109 36 187 109 36 187 109 36 187 109 36 187 109 36 187 109 36 187 109 36 126 70 17 187 109 36 187 109 36 187 109 36 187 109 36 187 109 36 165 97 33 187 109 36 187 109 36 187 109 36 187 109 36 187 109 36 187 109 36 126 70 17 187 109 36 187 109 36 187 109 36 187 109 36 187 109 36 187 109 36 187 109 36 165 97 33 187 109 36 187 109 36 187 109 36 187 109 36 187 109 36 187 109 36 187 109 36 187 109 36 126 70 17 187 109 36 187 109 36 187 109 36 187 109 36 187 109 36 187 109 36 
187 109 36 187 109 36 187 109 36 187 109 36 165 97 33 187 109 36 187 109 36 187 109 36 187 109 36 187 109 36 187 109 36 126 70 17 187 109 36 187 109 36 187 109 36 187 109 36 187 109 36 165 97 33 187 109 36 187 109 36 187 109 36 187 109 36 187 109 36 187 109 36 187 109 36 187 109 36 187 109 36 126 70 17 187 109 36 187 109 36 187 109 36 187 109 36 187 109 36 165 97 33 187 109 36 187 109 36 187 109 36 187 109 36 187 109 36 187 109 36 126 70 17 187 109 36 187 109 36 187 109 36 187 109 36 187 109 36 187 109 36 187 109 36 165 97 33 165 97 33 187 109 36 187 109 36 187 109 36 187 109 36 187 109 36 187 109 36 187 109 36 126 70 17 187 109 36 187 109 36 187 109 36 187 109 36 187 109 36 187 109 36 
187 109 36 187 109 36 187 109 36 187 109 36 165 97 33 187 109 36 187 109 36 187 109 36 187 109 36 187 109 36 187 109 36 126 70 17 187 109 36 187 109 36 187 109 36 187 109 36 187 109 36 165 97 33 187 109 36 187 109 36 187 109 36 187 109 36 187 109 36 187 109 36 187 109 36 187 109 36 187 109 36 126 70 17 187 109 36 187 109 36 187 109 36 187 109 36 187 109 36 165 97 33 187 109 36 187 109 36 187 109 36 187 109 36 187 109 36 187 109 36 126 70 17 187 109 36 187 109 36 187 109 36 187 109 36 187 109 36 187 109 36 187 109 36 187 109 36 165 97 33 187 109 36 187 109 36 187 109 36 187 109 36 187 109 36 187 109 36 187 109 36 126 70 17 187 109 36 187 109 36 187 109 36 187 109 36 187 109 36 187 109 36 
187 109 36 187 109 36 187 109 36 187 109 36 165 97 33 187 109 36 187 109 36 187 109 36 187 109 36 187 109 36 187 109 36 126 70 17 187 109 36 187 109 36 187 109 36 187 109 36 187 109 36 165 97 33 187 109 36 187 109 36 187 109 36 187 109 36 187 109 36 187 109 36 187 109 36 187 109 36 187 109 36 126 70 17 187 109 36 187 109 36 187 109 36 187 109 36 187 109 36 165 97 33 187 109 36 187 109 36 187 109 36 187 109 36 187 109 36 187 109 36 126 70 17 187 109 36 187 109 36 187 109 36 187 109 36 187 109 36 187 109 36 187 109 36 187 109 36 165 97 33 165 97 33 187 109 36 187 109 36 187 109 36 187 109 36 187 109 36 187 109 36 126 70 17 187 109 36 187 109 36 187 109 36 187 109 36 187 109 36 187 109 36 
187 109 36 187 109 36 187 109 36 187 109 36 165 97 33 187 109 36 187 109 36 187 109 36 187 109 36 187 109 36 187 109 36 126 70 17 187 109 36 187 109 36 187 109 36 187 109 36 187 109 36 165 97 33 187 109 36 187 109 36 187 109 36 187 109 36 187 109 36 187 109 36 187 109 36 187 109 36 187 109 36 126 70 17 187 109 36 187 109 36 187 109 36 187 109 36 187 109 36 165 97 33 187 109 36 187 109 36 187 109 36 187 109 36 187 109 36 187 109 36 126 70 17 187 109 36 187 109 36 187 109 36 187 109 36 187 109 36 187 109 36 187 109 36 187 109 36 187 109 36 165 97 33 187 109 36 187 109 36 187 109 36 187 109 36 187 109 36 187 109 36 126 70 17 187 109 36 187 109 36 187 109 36 187 109 36 187 109 36 187 109 36 
187 109 36 187 109 36 187 109 36 187 109 36 165 97 33 187 109 36 187 109 36 187 109 36 187 109 36 187 109 36 187 109 36 126 70 17 187 109 36 187 109 36 187 109 36 187 109 36 187 109 36 165 97 33 187 109 36 187 109 36 187 109 36 187 109 36 187 109 36 187 109 36 187 109 36 187 109 36 187 109 36 126 70 17 187 109 36 187 109 36 187 109 36 187 109 36 187 109 36 165 97 33 187 109 36 187 109 36 187 109 36 187 109 36 187 109 36 187 109 36 126 70 17 187 109 36 187 109 36 187 109 36 187 109 36 187 109 36 187 109 36 187 109 36 187 109 36 187 109 36 165 97 33 187 109 36 187 109 36 187 109 36 187 109 36 187 109 36 187 109 36 126 70 17 187 109 36 187 109 36 187 109 36 187 109 36 187 109 36 187 109 36 
187 109 36 187 109 36 187 109 36 187 109 36 165 97 33 187 109 36 187 109 36 187 109 36 187 109 36 187 109 36 187 109 36 126 70 17 187 109 36 187 109 36 187 109 36 187 109 36 187 109 36 165 97 33 187 109 36 187 109 36 187 109 36 187 109 36 187 109 36 187 109 36 187 109 36 187 109 36 187 109 36 126 70 17 187 109 36 187 109 36 187 109 36 187 109 36 187 109 36 165 97 33 187 109 36 187 109 36 187 109 36 187 109 36 187 109 36 187 109 36 126 70 17 187 109 36 187 109 36 187 109 36 187 109 36 187 109 36 187 109 36 187 109 36 187 109 36 187 109 36 165 97 33 187 109 36 187 109 36 187 109 36 187 109 36 187 109 36 187 109 36 126 70 17 187 109 36 187 109 36 187 109 36 187 109 36 187 109 36 187 109 36 
187 109 36 187 109 36 187 109 36 187 109 36 165 97 33 187 109 36 187 109 36 187 109 36 187 109 36 187 109 36 187 109 36 126 70 17 187 109 36 187 109 36 187 109 36 187 109 36 187 109 36 165 97 33 187 109 36 187 109 36 187 109 36 187 109 36 187 109 36 187 109 36 187 109 36 187 109 36 187 109 36 126 70 17 187 109 36 187 109 36 187 109 36 187 109 36 165 97 33 187 109 36 187 109 36 187 109 36 187 109 36 187 109 36 187 109 36 187 109 36 126 70 17 187 109 36 187 109 36 187 109 36 187 109 36 187 109 36 187 109 36 187 109 36 187 109 36 187 109 36 165 97 33 187 109 36 187 109 36 187 109 36 187 109 36 187 109 36 187 109 36 126 70 17 187 109 36 187 109 36 187 109 36 187 109 36 187 109 36 187 109 36 
187 109 36 187 109 36 187 109 36 187 109 36 165 97 33 187 109 36 187 109 36 187 109 36 187 109 36 187 109 36 187 109 36 126 70 17 187 109 36 187 109 36 187 109 36 187 109 36 187 109 36 165 97 33 187 109 36 187 109 36 187 109 36 187 109 36 187 109 36 187 109 36 187 109 36 187 109 36 187 109 36 126 70 17 187 109 36 187 109 36 187 109 36 187 109 36 165 97 33 187 109 36 187 109 36 187 109 36 187 109 36 187 109 36 187 109 36 187 109 36 126 70 17 187 109 36 187 109 36 187 109 36 187 109 36 187 109 36 187 109 36 187 109 36 187 109 36 187 109 36 165 97 33 187 109 36 187 109 36 187 109 36 187 109 36 187 109 36 187 109 36 126 70 17 187 109 36 187 109 36 187 109 36 187 109 36 187 109 36 187 109 36 
187 109 36 187 109 36 187 109 36 187 109 36 165 97 33 187 109 36 187 109 36 187 109 36 187 109 36 187 109 36 187 109 36 126 70 17 187 109 36 187 109 36 187 109 36 187 109 36 187 109 36 165 97 33 187 109 36 187 109 36 187 109 36 187 109 36 187 109 36 187 109 36 187 109 36 187 109 36 187 109 36 126 70 17 187 109 36 187 109 36 187 109 36 187 109 36 187 109 36 165 97 33 165 97 33 187 109 36 187 109 36 187 109 36 187 109 36 187 109 36 126 70 17 187 109 36 187 109 36 187 109 36 187 109 36 187 109 36 187 109 36 187 109 36 187 109 36 187 109 36 165 97 33 187 109 36 187 109 36 187 109 36 187 109 36 187 109 36 187 109 36 126 70 17 187 109 36 187 109 36 187 109 36 187 109 36 187 109 36 187 109 36 
187 109 36 187 109 36 187 109 36 187 109 36 165 97 33 187 109 36 187 109 36 187 109 36 187 109 36 187 109 36 187 109 36 126 70 17 187 109 36 187 109 36 187 109 36 187 109 36 187 109 36 165 97 33 187 109 36 187 109 36 187 109 36 187 109 36 187 109 36 187 109 36 187 109 36 187 109 36 187 109 36 126 70 17 187 109 36 187 109 36 187 109 36 187 109 36 187 109 36 187 109 36 165 97 33 165 97 33 187 109 36 187 109 36 187 109 36 187 109 36 126 70 17 187 109 36 187 109 36 187 109 36 187 109 36 187 109 36 187 109 36 187 109 36 187 109 36 187 109 36 165 97 33 187 109 36 187 109 36 187 109 36 187 109 36 187 109 36 187 109 36 126 70 17 187 109 36 187 109 36 187 109 36 187 109 36 187 109 36 187 109 36 
187 109 36 187 109 36 187 109 36 187 109 36 165 97 33 187 109 36 187 109 36 187 109 36 187 109 36 187 109 36 187 109 36 126 70 17 187 109 36 187 109 36 187 109 36 187 109 36 187 109 36 187 109 36 165 97 33 165 97 33 187 109 36 187 109 36 187 109 36 187 109 36 187 109 36 187 109 36 187 109 36 126 70 17 187 109 36 187 109 36 187 109 36 187 109 36 187 109 36 187 109 36 187 109 36 165 97 33 187 109 36 187 109 36 187 109 36 187 109 36 126 70 17 187 109 36 187 109 36 187 109 36 187 109 36 187 109 36 187 109 36 187 109 36 187 109 36 187 109 36 187 109 36 165 97 33 187 109 36 187 109 36 187 109 36 187 109 36 187 109 36 126 70 17 187 109 36 187 109 36 187 109 36 187 109 36 187 109 36 187 109 36 
187 109 36 187 109 36 187 109 36 187 109 36 165 97 33 187 109 36 187 109 36 187 109 36 187 109 36 187 109 36 187 109 36 126 70 17 187 109 36 187 109 36 187 109 36 187 109 36 187 109 36 187 109 36 187 109 36 165 97 33 187 109 36 187 109 36 187 109 36 187 109 36 187 109 36 187 109 36 126 70 17 187 109 36 187 109 36 187 109 36 187 109 36 187 109 36 187 109 36 187 109 36 165 97 33 165 97 33 187 109 36 187 109 36 187 109 36 187 109 36 126 70 17 187 109 36 187 109 36 187 109 36 187 109 36 187 109 36 187 109 36 187 109 36 187 109 36 187 109 36 187 109 36 165 97 33 187 109 36 187 109 36 187 109 36 187 109 36 187 109 36 187 109 36 126 70 17 187 109 36 187 109 36 187 109 36 187 109 36 187 109 36 
187 109 36 187 109 36 187 109 36 187 109 36 165 97 33 187 109 36 187 109 36 187 109 36 187 109 36 187 109 36 187 109 36 126 70 17 187 109 36 187 109 36 187 109 36 187 109 36 187 109 36 187 109 36 187 109 36 165 97 33 187 109 36 187 109 36 187 109 36 187 109 36 187 109 36 187 109 36 126 70 17 187 109 36 187 109 36 187 109 36 187 109 36 187 109 36 187 109 36 187 109 36 165 97 33 187 109 36 187 109 36 187 109 36 187 109 36 187 109 36 126 70 17 187 109 36 187 109 36 187 109 36 187 109 36 187 109 36 187 109 36 187 109 36 187 109 36 187 109 36 187 109 36 187 109 36 165 97 33 187 109 36 187 109 36 187 109 36 187 109 36 187 109 36 126 70 17 187 109 36 187 109 36 187 109 36 187 109 36 187 109 36 
187 109 36 187 109 36 187 109 36 187 109 36 165 97 33 187 109 36 187 109 36 187 109 36 187 109 36 187 109 36 187 109 36 126 70 17 187 109 36 187 109 36 187 109 36 187 109 36 187 109 36 187 109 36 165 97 33 187 109 36 187 109 36 187 109 36 187 109 36 187 109 36 187 109 36 187 109 36 126 70 17 187 109 36 187 109 36 187 109 36 187 109 36 187 109 36 187 109 36 187 109 36 165 97 33 187 109 36 187 109 36 187 109 36 187 109 36 187 109 36 126 70 17 187 109 36 187 109 36 187 109 36 187 109 36 187 109 36 187 109 36 187 109 36 187 109 36 187 109 36 187 109 36 187 109 36 165 97 33 187 109 36 187 109 36 187 109 36 187 109 36 187 109 36 126 70 17 187 109 36 187 109 36 187 109 36 187 109 36 187 109 36 
187 109 36 187 109 36 187 109 36 187 109 36 165 97 33 187 109 36 187 109 36 187 109 36 187 109 36 187 109 36 187 109 36 126 70 17 187 109 36 187 109 36 187 109 36 187 109 36 187 109 36 187 109 36 165 97 33 187 109 36 187 109 36 187 109 36 187 109 36 187 109 36 187 109 36 187 109 36 126 70 17 187 109 36 187 109 36 187 109 36 187 109 36 187 109 36 187 109 36 165 97 33 187 109 36 187 109 36 187 109 36 187 109 36 187 109 36 187 109 36 126 70 17 187 109 36 187 109 36 187 109 36 187 109 36 187 109 36 187 109 36 187 109 36 187 109 36 187 109 36 187 109 36 187 109 36 165 97 33 187 109 36 187 109 36 187 109 36 187 109 36 187 109 36 126 70 17 187 109 36 187 109 36 187 109 36 187 109 36 187 109 36 
187 109 36 187 109 36 187 109 36 187 109 36 165 97 33 187 109 36 187 109 36 187 109 36 187 109 36 187 109 36 187 109 36 126 70 17 187 109 36 187 109 36 187 109 36 187 109 36 187 109 36 187 109 36 165 97 33 187 109 36 187 109 36 187 109 36 187 109 36 187 109 36 187 109 36 187 109 36 126 70 17 187 109 36 187 109 36 187 109 36 187 109 36 187 109 36 187 109 36 165 97 33 187 109 36 187 109 36 187 109 36 187 109 36 187 109 36 187 109 36 126 70 17 187 109 36 187 109 36 187 109 36 187 109 36 187 109 36 187 109 36 187 109 36 187 109 36 187 109 36 187 109 36 187 109 36 165 97 33 187 109 36 187 109 36 187 109 36 187 109 36 187 109 36 126 70 17 187 109 36 187 109 36 187 109 36 187 109 36 187 109 36 
187 109 36 187 109 36 187 109 36 187 109 36 165 97 33 187 109 36 187 109 36 187 109 36 187 109 36 187 109 36 187 109 36 187 109 36 126 70 17 187 109 36 187 109 36 187 109 36 187 109 36 187 109 36 165 97 33 187 109 36 187 109 36 187 109 36 187 109 36 187 109 36 187 109 36 187 109 36 126 70 17 187 109 36 187 109 36 187 109 36 187 109 36 187 109 36 187 109 36 165 97 33 187 109 36 187 109 36 187 109 36 187 109 36 187 109 36 187 109 36 126 70 17 187 109 36 187 109 36 187 109 36 187 109 36 187 109 36 187 109 36 187 109 36 187 109 36 187 109 36 187 109 36 187 109 36 165 97 33 187 109 36 187 109 36 187 109 36 187 109 36 187 109 36 126 70 17 187 109 36 187 109 36 187 109 36 187 109 36 187 109 36 
187 109 36 187 109 36 187 109 36 187 109 36 165 97 33 187 109 36 187 109 36 187 109 36 187 109 36 187 109 36 187 109 36 187 109 36 126 70 17 187 109 36 187 109 36 187 109 36 187 109 36 187 109 36 165 97 33 187 109 36 187 109 36 187 109 36 187 109 36 187 109 36 187 109 36 187 109 36 126 70 17 187 109 36 187 109 36 187 109 36 187 109 36 187 109 36 187 109 36 165 97 33 187 109 36 187 109 36 187 109 36 187 109 36 187 109 36 187 109 36 126 70 17 187 109 36 187 109 36 187 109 36 187 109 36 187 109 36 187 109 36 187 109 36 187 109 36 187 109 36 187 109 36 187 109 36 165 97 33 187 109 36 187 109 36 187 109 36 187 109 36 187 109 36 126 70 17 187 109 36 187 109 36 187 109 36 187 109 36 187 109 36 
187 109 36 187 109 36 187 109 36 187 109 36 187 109 36 165 97 33 187 109 36 187 109 36 187 109 36 187 109 36 187 109 36 187 109 36 126 70 17 187 109 36 187 109 36 187 109 36 187 109 36 187 109 36 165 97 33 165 97 33 187 109 36 187 109 36 187 109 36 187 109 36 187 109 36 187 109 36 126 70 17 187 109 36 187 109 36 187 109 36 187 109 36 187 109 36 187 109 36 165 97 33 187 109 36 187 109 36 187 109 36 187 109 36 187 109 36 187 109 36 126 70 17 187 109 36 187 109 36 187 109 36 187 109 36 187 109 36 187 109 36 187 109 36 187 109 36 187 109 36 187 109 36 187 109 36 187 109 36 165 97 33 187 109 36 187 109 36 187 109 36 187 109 36 126 70 17 187 109 36 187 109 36 187 109 36 187 109 36 187 109 36 
187 109 36 187 109 36 187 109 36 187 109 36 187 109 36 165 97 33 165 97 33 187 109 36 187 109 36 187 109 36 187 109 36 187 109 36 126 70 17 187 109 36 187 109 36 187 109 36 187 109 36 187 109 36 187 109 36 187 109 36 187 109 36 187 109 36 187 109 36 187 109 36 187 109 36 187 109 36 126 70 17 187 109 36 187 109 36 187 109 36 187 109 36 187 109 36 187 109 36 165 97 33 187 109 36 187 109 36 187 109 36 187 109 36 187 109 36 187 109 36 126 70 17 187 109 36 187 109 36 187 109 36 187 109 36 187 109 36 187 109 36 187 109 36 187 109 36 187 109 36 187 109 36 187 109 36 187 109 36 165 97 33 187 109 36 187 109 36 187 109 36 187 109 36 126 70 17 187 109 36 187 109 36 187 109 36 187 109 36 187 109 36 
187 109 36 187 109 36 187 109 36 187 109 36 187 109 36 187 109 36 165 97 33 187 109 36 187 109 36 187 109 36 187 109 36 187 109 36 126 70 17 187 109 36 187 109 36 187 109 36 187 109 36 187 109 36 187 109 36 187 109 36 187 109 36 187 109 36 187 109 36 187 109 36 187 109 36 187 109 36 126 70 17 187 109 36 187 109 36 187 109 36 187 109 36 187 109 36 187 109 36 187 109 36 187 109 36 187 109 36 187 109 36 187 109 36 187 109 36 187 109 36 126 70 17 187 109 36 187 109 36 187 109 36 187 109 36 187 109 36 187 109 36 187 109 36 187 109 36 187 109 36 187 109 36 187 109 36 187 109 36 187 109 36 187 109 36 187 109 36 187 109 36 187 109 36 126 70 17 187 109 36 187 109 36 187 109 36 187 109 36 187 109 36 
187 109 36 187 109 36 187 109 36 187 109 36 187 109 36 187 109 36 187 109 36 187 109 36 187 109 36 187 109 36 187 109 36 187 109 36 126 70 17 187 109 36 187 109 36 187 109 36 187 109 36 187 109 36 187 109 36 187 109 36 187 109 36 187 109 36 187 109 36 187 109 36 187 109 36 187 109 36 126 70 17 187 109 36 187 109 36 187 109 36 187 109 36 187 109 36 187 109 36 187 109 36 187 109 36 187 109 36 187 109 36 187 109 36 187 109 36 187 109 36 126 70 17 187 109 36 187 109 36 187 109 36 187 109 36 187 109 36 187 109 36 187 109 36 187 109 36 187 109 36 187 109 36 187 109 36 187 109 36 187 109 36 187 109 36 187 109 36 187 109 36 187 109 36 126 70 17 187 109 36 187 109 36 187 109 36 187 109 36 187 109 36 
187 109 36 187 109 36 187 109 36 187 109 36 187 109 36 187 109 36 187 109 36 187 109 36 187 109 36 187 109 36 187 109 36 187 109 36 126 70 17 187 109 36 187 109 36 187 109 36 187 109 36 187 109 36 187 109 36 187 109 36 187 109 36 187 109 36 187 109 36 187 109 36 187 109 36 187 109 36 126 70 17 187 109 36 187 109 36 187 109 36 187 109 36 187 109 36 187 109 36 187 109 36 187 109 36 187 109 36 187 109 36 187 109 36 187 109 36 187 109 36 126 70 17 187 109 36 187 109 36 187 109 36 187 109 36 187 109 36 187 109 36 187 109 36 187 109 36 187 109 36 187 109 36 187 109 36 187 109 36 187 109 36 187 109 36 187 109 36 187 109 36 187 109 36 126 70 17 187 109 36 187 109 36 187 109 36 187 109 36 187 109 36 
187 109 36 187 109 36 187 109 36 187 109 36 187 109 36 187 109 36 187 109 36 187 109 36 187 109 36 187 109 36 187 109 36 187 109 36 126 70 17 187 109 36 187 109 36 187 109 36 187 109 36 187 109 36 187 109 36 187 109 36 187 109 36 187 109 36 187 109 36 187 109 36 187 109 36 187 109 36 126 70 17 187 109 36 187 109 36 187 109 36 187 109 36 187 109 36 187 109 36 187 109 36 187 109 36 187 109 36 187 109 36 187 109 36 187 109 36 187 109 36 126 70 17 187 109 36 187 109 36 187 109 36 187 109 36 187 109 36 187 109 36 187 109 36 187 109 36 187 109 36 187 109 36 187 109 36 187 109 36 187 109 36 187 109 36 187 109 36 187 109 36 187 109 36 126 70 17 187 109 36 187 109 36 187 109 36 187 109 36 187 109 36 
187 109 36 187 109 36 187 109 36 187 109 36 187 109 36 187 109 36 187 109 36 187 109 36 187 109 36 187 109 36 187 109 36 187 109 36 126 70 17 187 109 36 187 109 36 187 109 36 187 109 36 187 109 36 187 109 36 187 109 36 187 109 36 187 109 36 187 109 36 187 109 36 187 109 36 187 109 36 126 70 17 187 109 36 187 109 36 187 109 36 187 109 36 187 109 36 187 109 36 187 109 36 187 109 36 187 109 36 187 109 36 187 109 36 187 109 36 187 109 36 126 70 17 187 109 36 187 109 36 187 109 36 187 109 36 187 109 36 187 109 36 187 109 36 187 109 36 187 109 36 187 109 36 187 109 36 187 109 36 187 109 36 187 109 36 187 109 36 187 109 36 187 109 36 126 70 17 187 109 36 187 109 36 187 109 36 187 109 36 187 109 36 
187 109 36 187 109 36 187 109 36 187 109 36 187 109 36 187 109 36 187 109 36 187 109 36 187 109 36 187 109 36 187 109 36 187 109 36 126 70 17 187 109 36 187 109 36 187 109 36 187 109 36 187 109 36 187 109 36 187 109 36 187 109 36 187 109 36 187 109 36 187 109 36 187 109 36 187 109 36 126 70 17 187 109 36 187 109 36 187 109 36 187 109 36 187 109 36 187 109 36 187 109 36 187 109 36 187 109 36 187 109 36 187 109 36 187 109 36 187 109 36 126 70 17 187 109 36 187 109 36 187 109 36 187 109 36 187 109 36 187 109 36 187 109 36 187 109 36 187 109 36 187 109 36 187 109 36 187 109 36 187 109 36 187 109 36 187 109 36 187 109 36 187 109 36 126 70 17 187 109 36 187 109 36 187 109 36 187 109 36 187 109 36 
126 70 17 126 70 17 126 70 17 126 70 17 126 70 17 126 70 17 126 70 17 126 70 17 126 70 17 126 70 17 126 70 17 126 70 17 126 70 17 126 70 17 126 70 17 126 70 17 126 70 17 126 70 17 126 70 17 126 70 17 126 70 17 126 70 17 126 70 17 126 70 17 126 70 17 126 70 17 126 70 17 126 70 17 126 70 17 126 70 17 126 70 17 126 70 17 126 70 17 126 70 17 126 70 17 126 70 17 126 70 17 126 70 17 126 70 17 126 70 17 126 70 17 126 70 17 126 70 17 126 70 17 126 70 17 126 70 17 126 70 17 126 70 17 126 70 17 126 70 17 126 70 17 126 70 17 126 70 17 126 70 17 126 70 17 126 70 17 126 70 17 126 70 17 126 70 17 126 70 17 126 70 17 126 70 17 126 70 17 126 70 17 
