P3
64 64
255
0 0 0 0 0 0 0 0 0 0 0 0 0 0 0 0 0 0 0 0 0 0 0 0 0 0 0 0 0 0 0 0 0 0 0 0 0 0 0 0 0 0 0 0 0 0 0 0 0 0 0 0 0 0 0 0 0 0 0 0 0 0 0 0 0 0 0 0 0 0 0 0 0 0 0 0 0 0 0 0 0 0 0 0 0 0 0 0 0 0 0 0 0 0 0 0 0 0 0 0 0 0 0 0 0 0 0 0 0 0 0 0 0 0 0 0 0 0 0 0 0 0 0 0 0 0 0 0 0 0 0 0 0 0 0 0 0 0 0 0 0 0 0 0 0 0 0 0 0 0 0 0 0 0 0 0 0 0 0 0 0 0 0 0 0 0 0 0 0 0 0 0 0 0 0 0 0 0 0 0 0 0 0 0 0 0 0 0 0 0 0 0 
0 0 0 0 0 0 0 0 0 0 0 0 0 0 0 0 0 0 0 0 0 0 0 0 0 0 0 0 0 0 0 0 0 0 0 0 0 0 0 0 0 0 0 0 0 0 0 0 0 0 0 0 0 0 0 0 0 0 0 0 0 0 0 0 0 0 0 0 0 0 0 0 0 0 0 0 0 0 0 0 0 0 0 0 0 0 0 0 0 0 0 0 0 0 0 0 0 0 0 0 0 0 0 0 0 0 0 0 0 0 0 0 0 0 0 0 0 0 0 0 0 0 0 0 0 0 0 0 0 0 0 0 0 0 0 0 0 0 0 0 0 0 0 0 0 0 0 0 0 0 0 0 0 0 0 0 0 0 0 0 0 0 0 0 0 0 0 0 0 0 0 0 0 0 0 0 0 0 0 0 0 0 0 0 0 0 0 0 0 0 0 0 
0 0 0 0 0 0 0 0 0 0 0 0 0 0 0 0 0 0 0 0 0 0 0 0 0 0 0 0 0 0 0 0 0 0 0 0 0 0 0 0 0 0 0 0 0 0 0 0 0 0 0 0 0 0 0 0 0 0 0 0 0 0 0 0 0 0 0 0 0 0 0 0 0 0 0 0 0 0 0 0 0 0 0 0 0 0 0 0 0 0 0 0 0 0 0 0 0 0 0 0 0 0 0 0 0 0 0 0 0 0 0 0 0 0 0 0 0 0 0 0 0 0 0 0 0 0 0 0 0 0 0 0 0 0 0 0 0 0 0 0 0 0 0 0 0 0 0 0 0 0 0 0 0 0 0 0 0 0 0 0 0 0 0 0 0 0 0 0 0 0 0 0 0 0 0 0 0 0 0 0 0 0 0 0 0 0 0 0 0 0 0 0 
0 0 0 0 0 0 0 0 0 0 0 0 0 0 0 0 0 0 0 0 0 0 0 0 0 0 0 0 0 0 0 0 0 0 0 0 0 0 0 0 0 0 0 0 0 0 0 0 0 0 0 0 0 0 0 0 0 0 0 0 0 0 0 0 0 0 0 0 0 0 0 0 0 0 0 0 0 0 0 0 0 0 0 0 0 0 0 0 0 0 0 0 0 0 0 0 0 0 0 0 0 0 0 0 0 0 0 0 0 0 0 0 0 0 0 0 0 0 0 0 0 0 0 0 0 0 0 0 0 0 0 0 0 0 0 0 0 0 0 0 0 0 0 0 0 0 0 0 0 0 0 0 0 0 0 0 0 0 0 0 0 0 0 0 0 0 0 0 0 0 0 0 0 0 0 0 0 0 0 0 0 0 0 0 0 0 0 0 0 0 0 0 
0 0 0 0 0 0 0 0 0 0 0 0 0 0 0 0 0 0 0 0 0 0 0 0 0 0 0 0 0 0 0 0 0 0 0 0 0 0 0 0 0 0 0 0 0 0 0 0 0 0 0 0 0 0 0 0 0 0 0 0 0 0 0 0 0 0 0 0 0 0 0 0 0 0 0 0 0 0 0 0 0 0 0 0 0 0 0 0 0 0 0 0 0 0 0 0 0 0 0 0 0 0 0 0 0 0 0 0 0 0 0 0 0 0 0 0 0 0 0 0 0 0 0 0 0 0 0 0 0 0 0 0 0 0 0 0 0 0 0 0 0 0 0 0 0 0 0 0 0 0 0 0 0 0 0 0 0 0 0 0 0 0 0 0 0 0 0 0 0 0 0 0 0 0 0 0 0 0 0 0 0 0 0 0 0 0 0 0 0 0 0 0 
0 0 0 0 0 0 0 0 0 0 0 0 0 0 0 0 0 0 0 0 0 0 0 0 0 0 0 0 0 0 0 0 0 0 0 0 0 0 0 0 0 0 0 0 0 0 0 0 0 0 0 0 0 0 0 0 0 0 0 0 0 0 0 0 0 0 0 0 0 0 0 0 0 0 0 0 0 0 0 0 0 0 0 0 0 0 0 0 0 0 0 0 0 0 0 0 0 0 0 0 0 0 0 0 0 0 0 0 0 0 0 0 0 0 0 0 0 0 0 0 0 0 0 0 0 0 0 0 0 0 0 0 0 0 0 0 0 0 0 0 0 0 0 0 0 0 0 0 0 0 0 0 0 0 0 0 0 0 0 0 0 0 0 0 0 0 0 0 0 0 0 0 0 0 0 0 0 0 0 0 0 0 0 0 0 0 0 0 0 0 0 0 
0 0 0 0 0 0 0 0 0 0 0 0 0 0 0 0 0 0 0 0 0 0 0 0 0 0 0 0 0 0 0 0 0 0 0 0 0 0 0 0 0 0 0 0 0 0 0 0 0 0 0 0 0 0 0 0 0 0 0 0 0 0 0 0 0 0 0 0 0 0 0 0 0 0 0 0 0 0 0 0 0 0 0 0 0 0 0 0 0 0 0 0 0 0 0 0 0 0 0 0 0 0 0 0 0 0 0 0 0 0 0 0 0 0 0 0 0 0 0 0 0 0 0 0 0 0 0 0 0 0 0 0 0 0 0 0 0 0 0 0 0 0 0 0 0 0 0 0 0 0 0 0 0 0 0 0 0 0 0 0 0 0 0 0 0 0 0 0 0 0 0 0 0 0 0 0 0 0 0 0 0 0 0 0 0 0 0 0 0 0 0 0 
0 0 0 0 0 0 0 0 0 0 0 0 0 0 0 0 0 0 0 0 0 0 0 0 0 0 0 0 0 0 0 0 0 0 0 0 0 0 0 0 0 0 0 0 0 0 0 0 0 0 0 0 0 0 0 0 0 0 0 0 0 0 0 0 0 0 0 0 0 0 0 0 0 0 0 0 0 0 0 0 0 0 0 0 0 0 0 0 0 0 0 0 0 0 0 0 0 0 0 0 0 0 0 0 0 0 0 0 0 0 0 0 0 0 0 0 0 0 0 0 0 0 0 0 0 0 0 0 0 0 0 0 0 0 0 0 0 0 0 0 0 0 0 0 0 0 0 0 0 0 0 0 0 0 0 0 0 0 0 0 0 0 0 0 0 0 0 0 0 0 0 0 0 0 0 0 0 0 0 0 0 0 0 0 0 0 0 0 0 0 0 0 
0 0 0 0 0 0 0 0 0 0 0 0 0 0 0 0 0 0 0 0 0 0 0 0 0 0 0 0 0 0 0 0 0 0 0 0 0 0 0 0 0 0 0 0 0 0 0 0 0 0 0 0 0 0 0 0 0 0 0 0 0 0 0 0 0 0 0 0 0 0 0 0 0 0 0 0 0 0 0 0 0 0 0 0 0 0 0 0 0 0 0 0 0 0 0 0 0 0 0 0 0 0 0 0 0 0 0 0 0 0 0 0 0 0 0 0 0 0 0 0 0 0 0 0 0 0 0 0 0 0 0 0 0 0 0 0 0 0 0 0 0 0 0 0 0 0 0 0 0 0 0 0 0 0 0 0 0 0 0 0 0 0 0 0 0 0 0 0 0 0 0 0 0 0 0 0 0 0 0 0 0 0 0 0 0 0 0 0 0 0 0 0 
0 0 0 0 0 0 0 0 0 0 0 0 0 0 0 0 0 0 0 0 0 0 0 0 0 0 0 0 0 0 0 0 0 0 0 0 0 0 0 0 0 0 0 0 0 0 0 0 0 0 0 0 0 0 0 0 0 0 0 0 0 0 0 0 0 0 0 0 0 0 0 0 0 0 0 0 0 0 0 0 0 0 0 0 0 0 0 0 0 0 0 0 0 0 0 0 0 0 0 0 0 0 0 0 0 0 0 0 0 0 0 0 0 0 0 0 0 0 0 0 0 0 0 0 0 0 0 0 0 0 0 0 0 0 0 0 0 0 0 0 0 0 0 0 0 0 0 0 0 0 0 0 0 0 0 0 0 0 0 0 0 0 0 0 0 0 0 0 0 0 0 0 0 0 0 0 0 0 0 0 0 0 0 0 0 0 0 0 0 0 0 0 
0 0 0 0 0 0 0 0 0 0 0 0 0 0 0 0 0 0 0 0 0 0 0 0 0 0 0 0 0 0 0 0 0 0 0 0 0 0 0 0 0 0 0 0 0 0 0 0 0 0 0 0 0 0 0 0 0 0 0 0 0 0 0 0 0 0 0 0 0 0 0 0 0 0 0 0 0 0 0 0 0 0 0 0 0 0 0 0 0 0 0 0 0 0 0 0 0 0 0 0 0 0 0 0 0 0 0 0 0 0 0 0 0 0 0 0 0 0 0 0 0 0 0 0 0 0 0 0 0 0 0 0 0 0 0 0 0 0 0 0 0 0 0 0 0 0 0 0 0 0 0 0 0 0 0 0 0 0 0 0 0 0 0 0 0 0 0 0 0 0 0 0 0 0 0 0 0 0 0 0 0 0 0 0 0 0 0 0 0 0 0 0 
0 0 0 0 0 0 0 0 0 0 0 0 0 0 0 0 0 0 0 0 0 0 0 0 0 0 0 0 0 0 0 0 0 0 0 0 0 0 0 0 0 0 0 0 0 0 0 0 0 0 0 0 0 0 0 0 0 0 0 0 0 0 0 0 0 0 0 0 0 0 0 0 214 128 90 193 148 184 193 148 184 214 128 90 214 128 90 0 0 0 0 0 0 0 0 0 0 0 0 0 0 0 0 0 0 0 0 0 0 0 0 0 0 0 0 0 0 0 0 0 0 0 0 0 0 0 0 0 0 0 0 0 0 0 0 0 0 0 0 0 0 0 0 0 0 0 0 0 0 0 0 0 0 0 0 0 0 0 0 0 0 0 0 0 0 0 0 0 0 0 0 0 0 0 0 0 0 0 0 0 0 0 0 0 0 0 0 0 0 0 0 0 
0 0 0 0 0 0 0 0 0 0 0 0 0 0 0 0 0 0 0 0 0 0 0 0 0 0 0 0 0 0 0 0 0 0 0 0 0 0 0 0 0 0 0 0 0 0 0 0 0 0 0 0 0 0 0 0 0 0 0 0 0 0 0 0 0 0 0 0 0 214 128 90 193 148 184 193 148 184 193 148 184 193 148 184 214 128 90 0 0 0 0 0 0 0 0 0 0 0 0 0 0 0 0 0 0 0 0 0 0 0 0 0 0 0 0 0 0 0 0 0 0 0 0 0 0 0 0 0 0 0 0 0 0 0 0 0 0 0 0 0 0 0 0 0 0 0 0 0 0 0 0 0 0 0 0 0 0 0 0 0 0 0 0 0 0 0 0 0 0 0 0 0 0 0 0 0 0 0 0 0 0 0 0 0 0 0 0 0 0 0 0 0 
0 0 0 0 0 0 0 0 0 0 0 0 0 0 0 0 0 0 0 0 0 0 0 0 0 0 0 0 0 0 0 0 0 0 0 0 0 0 0 0 0 0 0 0 0 0 0 0 214 128 90 193 148 184 193 148 184 214 128 90 214 128 90 0 0 0 0 0 0 214 128 90 214 128 90 193 148 184 193 148 184 214 128 90 214 128 90 214 128 90 0 0 0 0 0 0 0 0 0 214 128 90 193 148 184 214 128 90 0 0 0 0 0 0 0 0 0 0 0 0 0 0 0 0 0 0 0 0 0 0 0 0 0 0 0 0 0 0 0 0 0 0 0 0 0 0 0 0 0 0 0 0 0 0 0 0 0 0 0 0 0 0 0 0 0 0 0 0 0 0 0 0 0 0 0 0 0 0 0 0 0 0 0 0 0 0 0 0 0 0 0 0 
0 0 0 0 0 0 0 0 0 0 0 0 0 0 0 0 0 0 0 0 0 0 0 0 0 0 0 0 0 0 0 0 0 0 0 0 0 0 0 0 0 0 0 0 0 214 128 90 193 148 184 193 148 184 193 148 184 193 148 184 214 128 90 214 128 90 0 0 0 0 0 0 214 128 90 214 128 90 214 128 90 214 128 90 214 128 90 214 128 90 214 128 90 0 0 0 214 128 90 193 148 184 193 148 184 214 128 90 214 128 90 0 0 0 0 0 0 0 0 0 0 0 0 0 0 0 0 0 0 0 0 0 0 0 0 0 0 0 0 0 0 0 0 0 0 0 0 0 0 0 0 0 0 0 0 0 0 0 0 0 0 0 0 0 0 0 0 0 0 0 0 0 0 0 0 0 0 0 0 0 0 0 0 0 0 0 0 0 0 0 0 0 
0 0 0 0 0 0 0 0 0 0 0 0 0 0 0 0 0 0 0 0 0 0 0 0 0 0 0 0 0 0 0 0 0 0 0 0 0 0 0 0 0 0 0 0 0 214 128 90 193 148 184 193 148 184 193 148 184 193 148 184 214 128 90 214 128 90 214 128 90 0 0 0 0 0 0 214 128 90 214 128 90 214 128 90 214 128 90 214 128 90 214 128 90 214 128 90 0 0 0 214 128 90 214 128 90 214 128 90 214 128 90 214 128 90 0 0 0 0 0 0 0 0 0 193 148 184 214 128 90 0 0 0 0 0 0 0 0 0 0 0 0 0 0 0 0 0 0 0 0 0 0 0 0 0 0 0 0 0 0 0 0 0 0 0 0 0 0 0 0 0 0 0 0 0 0 0 0 0 0 0 0 0 0 0 0 0 0 0 0 0 0 0 
0 0 0 0 0 0 0 0 0 0 0 0 0 0 0 0 0 0 0 0 0 0 0 0 0 0 0 0 0 0 0 0 0 0 0 0 0 0 0 0 0 0 0 0 0 214 128 90 214 128 90 193 148 184 193 148 184 214 128 90 214 128 90 214 128 90 214 128 90 0 0 0 0 0 0 214 128 90 214 128 90 214 128 90 214 128 90 214 128 90 214 128 90 214 128 90 214 128 90 0 0 0 214 128 90 214 128 90 214 128 90 214 128 90 214 128 90 0 0 0 214 128 90 214 128 90 214 128 90 0 0 0 0 0 0 0 0 0 0 0 0 0 0 0 0 0 0 0 0 0 0 0 0 0 0 0 0 0 0 0 0 0 0 0 0 0 0 0 0 0 0 0 0 0 0 0 0 0 0 0 0 0 0 0 0 0 0 0 0 0 0 0 
0 0 0 0 0 0 0 0 0 0 0 0 0 0 0 0 0 0 0 0 0 0 0 0 0 0 0 0 0 0 0 0 0 0 0 0 0 0 0 0 0 0 0 0 0 214 128 90 214 128 90 214 128 90 214 128 90 214 128 90 214 128 90 214 128 90 214 128 90 214 128 90 0 0 0 0 0 0 214 128 90 214 128 90 214 128 90 214 128 90 214 128 90 214 128 90 214 128 90 214 128 90 0 0 0 214 128 90 214 128 90 214 128 90 214 128 90 214 128 90 0 0 0 214 128 90 214 128 90 214 128 90 0 0 0 0 0 0 0 0 0 0 0 0 0 0 0 0 0 0 0 0 0 0 0 0 0 0 0 0 0 0 0 0 0 0 0 0 0 0 0 0 0 0 0 0 0 0 0 0 0 0 0 0 0 0 0 0 0 0 0 0 
0 0 0 0 0 0 0 0 0 0 0 0 0 0 0 0 0 0 0 0 0 0 0 0 0 0 0 0 0 0 0 0 0 0 0 0 0 0 0 0 0 0 0 0 0 0 0 0 214 128 90 214 128 90 214 128 90 214 128 90 214 128 90 214 128 90 214 128 90 214 128 90 214 128 90 0 0 0 0 0 0 214 128 90 214 128 90 214 128 90 214 128 90 214 128 90 214 128 90 214 128 90 214 128 90 0 0 0 214 128 90 214 128 90 214 128 90 214 128 90 0 0 0 214 128 90 214 128 90 214 128 90 214 128 90 0 0 0 0 0 0 0 0 0 0 0 0 0 0 0 0 0 0 0 0 0 0 0 0 0 0 0 0 0 0 0 0 0 0 0 0 0 0 0 0 0 0 0 0 0 0 0 0 0 0 0 0 0 0 0 0 0 
0 0 0 0 0 0 0 0 0 0 0 0 0 0 0 0 0 0 0 0 0 0 0 0 0 0 0 0 0 0 0 0 0 0 0 0 0 0 0 0 0 0 0 0 0 0 0 0 214 128 90 214 128 90 214 128 90 214 128 90 214 128 90 214 128 90 214 128 90 214 128 90 214 128 90 214 128 90 0 0 0 214 128 90 214 128 90 214 128 90 214 128 90 214 128 90 214 128 90 214 128 90 214 128 90 214 128 90 0 0 0 214 128 90 214 128 90 214 128 90 214 128 90 214 128 90 214 128 90 214 128 90 214 128 90 0 0 0 0 0 0 0 0 0 0 0 0 0 0 0 0 0 0 0 0 0 0 0 0 0 0 0 0 0 0 0 0 0 0 0 0 0 0 0 0 0 0 0 0 0 0 0 0 0 0 0 0 0 0 0 0 0 
0 0 0 0 0 0 0 0 0 0 0 0 0 0 0 0 0 0 0 0 0 0 0 0 0 0 0 0 0 0 0 0 0 0 0 0 0 0 0 0 0 0 0 0 0 0 0 0 0 0 0 214 128 90 214 128 90 214 128 90 214 128 90 214 128 90 214 128 90 214 128 90 214 128 90 214 128 90 214 128 90 0 0 0 214 128 90 214 128 90 214 128 90 214 128 90 214 128 90 214 128 90 214 128 90 214 128 90 214 128 90 214 128 90 214 128 90 214 128 90 214 128 90 214 128 90 214 128 90 214 128 90 214 128 90 0 0 0 0 0 0 0 0 0 0 0 0 0 0 0 0 0 0 0 0 0 0 0 0 0 0 0 0 0 0 0 0 0 0 0 0 0 0 0 0 0 0 0 0 0 0 0 0 0 0 0 0 0 0 0 0 0 
0 0 0 0 0 0 0 0 0 0 0 0 0 0 0 0 0 0 0 0 0 0 0 0 0 0 0 0 0 0 0 0 0 0 0 0 0 0 0 0 0 0 0 0 0 0 0 0 0 0 0 214 128 90 214 128 90 214 128 90 214 128 90 214 128 90 214 128 90 214 128 90 214 128 90 214 128 90 214 128 90 214 128 90 214 128 90 214 128 90 214 128 90 214 128 90 180 109 78 180 109 78 180 109 78 214 128 90 214 128 90 214 128 90 180 109 78 180 109 78 180 109 78 214 128 90 214 128 90 214 128 90 214 128 90 214 128 90 0 0 0 0 0 0 0 0 0 0 0 0 0 0 0 0 0 0 0 0 0 0 0 0 0 0 0 0 0 0 0 0 0 0 0 0 0 0 0 0 0 0 0 0 0 0 0 0 0 0 0 0 0 0 
0 0 0 0 0 0 0 0 0 0 0 0 0 0 0 0 0 0 0 0 0 0 0 0 0 0 0 0 0 0 0 0 0 0 0 0 0 0 0 0 0 0 0 0 0 0 0 0 0 0 0 0 0 0 214 128 90 214 128 90 214 128 90 214 128 90 214 128 90 214 128 90 214 128 90 214 128 90 214 128 90 214 128 90 214 128 90 214 128 90 214 128 90 180 109 78 214 128 90 214 128 90 180 109 78 180 109 78 214 128 90 214 128 90 180 109 78 214 128 90 214 128 90 214 128 90 214 128 90 180 109 78 180 109 78 214 128 90 0 0 0 0 0 0 0 0 0 0 0 0 0 0 0 0 0 0 0 0 0 0 0 0 0 0 0 0 0 0 0 0 0 0 0 0 0 0 0 0 0 0 0 0 0 0 0 0 0 0 0 0 0 0 
0 0 0 0 0 0 0 0 0 0 0 0 0 0 0 0 0 0 0 0 0 0 0 0 0 0 0 0 0 0 0 0 0 0 0 0 0 0 0 0 0 0 0 0 0 0 0 0 0 0 0 0 0 0 0 0 0 214 128 90 214 128 90 214 128 90 214 128 90 214 128 90 214 128 90 214 128 90 214 128 90 214 128 90 214 128 90 214 128 90 214 128 90 180 109 78 214 128 90 214 128 90 214 128 90 214 128 90 214 128 90 214 128 90 214 128 90 214 128 90 214 128 90 214 128 90 180 109 78 180 109 78 180 109 78 214 128 90 0 0 0 0 0 0 0 0 0 0 0 0 0 0 0 0 0 0 0 0 0 0 0 0 0 0 0 0 0 0 0 0 0 0 0 0 0 0 0 0 0 0 0 0 0 0 0 0 0 0 0 0 0 0 
0 0 0 0 0 0 0 0 0 0 0 0 0 0 0 0 0 0 0 0 0 0 0 0 0 0 0 0 0 0 0 0 0 0 0 0 0 0 0 0 0 0 0 0 0 0 0 0 0 0 0 0 0 0 0 0 0 0 0 0 214 128 90 214 128 90 214 128 90 214 128 90 180 109 78 180 109 78 180 109 78 180 109 78 214 128 90 214 128 90 214 128 90 214 128 90 214 128 90 214 128 90 214 128 90 214 128 90 214 128 90 214 128 90 214 128 90 214 128 90 214 128 90 214 128 90 214 128 90 214 128 90 214 128 90 214 128 90 0 0 0 0 0 0 0 0 0 0 0 0 0 0 0 0 0 0 0 0 0 0 0 0 0 0 0 0 0 0 0 0 0 0 0 0 0 0 0 0 0 0 0 0 0 0 0 0 0 0 0 0 0 0 
0 0 0 0 0 0 0 0 0 0 0 0 0 0 0 0 0 0 0 0 0 0 0 0 0 0 0 0 0 0 0 0 0 0 0 0 0 0 0 0 0 0 0 0 0 0 0 0 0 0 0 0 0 0 0 0 0 0 0 0 214 128 90 214 128 90 214 128 90 180 109 78 180 109 78 214 128 90 214 128 90 180 109 78 180 109 78 214 128 90 214 128 90 214 128 90 214 128 90 214 128 90 214 128 90 214 128 90 214 128 90 214 128 90 214 128 90 214 128 90 214 128 90 214 128 90 214 128 90 214 128 90 214 128 90 214 128 90 0 0 0 0 0 0 0 0 0 0 0 0 0 0 0 0 0 0 0 0 0 0 0 0 0 0 0 0 0 0 0 0 0 0 0 0 0 0 0 0 0 0 0 0 0 0 0 0 0 0 0 0 0 0 
0 0 0 0 0 0 0 0 0 0 0 0 0 0 0 0 0 0 0 0 0 0 0 0 0 0 0 0 0 0 0 0 0 0 0 0 0 0 0 0 0 0 0 0 0 0 0 0 0 0 0 0 0 0 0 0 0 0 0 0 0 0 0 214 128 90 214 128 90 180 109 78 214 128 90 214 128 90 214 128 90 214 128 90 214 128 90 214 128 90 214 128 90 214 128 90 214 128 90 214 128 90 214 128 90 214 128 90 214 128 90 214 128 90 214 128 90 214 128 90 214 128 90 214 128 90 214 128 90 214 128 90 214 128 90 214 128 90 0 0 0 0 0 0 0 0 0 0 0 0 0 0 0 0 0 0 0 0 0 0 0 0 0 0 0 0 0 0 0 0 0 0 0 0 0 0 0 0 0 0 0 0 0 0 0 0 0 0 0 0 0 0 
0 0 0 0 0 0 0 0 0 0 0 0 0 0 0 0 0 0 0 0 0 0 0 0 0 0 0 0 0 0 0 0 0 0 0 0 0 0 0 0 0 0 0 0 0 0 0 0 0 0 0 0 0 0 0 0 0 0 0 0 0 0 0 0 0 0 214 128 90 214 128 90 214 128 90 214 128 90 214 128 90 214 128 90 214 128 90 214 128 90 214 128 90 214 128 90 214 128 90 214 128 90 214 128 90 214 128 90 214 128 90 214 128 90 214 128 90 214 128 90 214 128 90 214 128 90 214 128 90 214 128 90 214 128 90 214 128 90 214 128 90 0 0 0 0 0 0 0 0 0 0 0 0 0 0 0 0 0 0 0 0 0 0 0 0 0 0 0 0 0 0 0 0 0 0 0 0 0 0 0 0 0 0 0 0 0 0 0 0 0 0 0 
0 0 0 0 0 0 0 0 0 0 0 0 0 0 0 0 0 0 0 0 0 0 0 0 0 0 0 0 0 0 0 0 0 0 0 0 0 0 0 0 0 0 0 0 0 0 0 0 0 0 0 0 0 0 0 0 0 0 0 0 0 0 0 0 0 0 214 128 90 214 128 90 214 128 90 214 128 90 214 128 90 214 128 90 214 128 90 214 128 90 214 128 90 214 128 90 214 128 90 214 128 90 214 128 90 214 128 90 214 128 90 214 128 90 214 128 90 214 128 90 214 128 90 214 128 90 214 128 90 214 128 90 214 128 90 214 128 90 214 128 90 0 0 0 0 0 0 0 0 0 0 0 0 0 0 0 0 0 0 0 0 0 0 0 0 0 0 0 0 0 0 0 0 0 0 0 0 0 0 0 0 0 0 0 0 0 0 0 0 0 0 0 
0 0 0 0 0 0 0 0 0 0 0 0 0 0 0 0 0 0 0 0 0 0 0 0 0 0 0 0 0 0 0 0 0 0 0 0 0 0 0 0 0 0 0 0 0 0 0 0 0 0 0 0 0 0 0 0 0 0 0 0 0 0 0 0 0 0 0 0 0 214 128 90 214 128 90 214 128 90 214 128 90 214 128 90 214 128 90 214 128 90 214 128 90 214 128 90 214 128 90 214 128 90 214 128 90 214 128 90 214 128 90 214 128 90 214 128 90 214 128 90 214 128 90 214 128 90 214 128 90 214 128 90 214 128 90 214 128 90 214 128 90 0 0 0 0 0 0 0 0 0 0 0 0 0 0 0 0 0 0 0 0 0 0 0 0 0 0 0 0 0 0 0 0 0 0 0 0 0 0 0 0 0 0 0 0 0 0 0 0 0 0 0 
0 0 0 0 0 0 0 0 0 0 0 0 0 0 0 0 0 0 0 0 0 0 0 0 0 0 0 0 0 0 0 0 0 0 0 0 0 0 0 0 0 0 0 0 0 0 0 0 0 0 0 0 0 0 0 0 0 0 0 0 0 0 0 0 0 0 0 0 0 0 0 0 214 128 90 214 128 90 214 128 90 214 128 90 214 128 90 214 128 90 214 128 90 214 128 90 214 128 90 214 128 90 214 128 90 214 128 90 214 128 90 214 128 90 214 128 90 214 128 90 214 128 90 214 128 90 214 128 90 214 128 90 214 128 90 214 128 90 214 128 90 214 128 90 0 0 0 0 0 0 0 0 0 0 0 0 0 0 0 0 0 0 0 0 0 0 0 0 0 0 0 0 0 0 0 0 0 0 0 0 0 0 0 0 0 0 0 0 0 0 0 0 
0 0 0 0 0 0 0 0 0 0 0 0 0 0 0 0 0 0 0 0 0 0 0 0 0 0 0 0 0 0 0 0 0 0 0 0 0 0 0 0 0 0 0 0 0 0 0 0 0 0 0 0 0 0 0 0 0 0 0 0 0 0 0 0 0 0 0 0 0 0 0 0 0 0 0 214 128 90 214 128 90 214 128 90 214 128 90 214 128 90 214 128 90 214 128 90 214 128 90 214 128 90 214 128 90 214 128 90 214 128 90 214 128 90 214 128 90 214 128 90 214 128 90 214 128 90 214 128 90 214 128 90 214 128 90 214 128 90 214 128 90 214 128 90 0 0 0 0 0 0 0 0 0 0 0 0 0 0 0 0 0 0 0 0 0 0 0 0 0 0 0 0 0 0 0 0 0 0 0 0 0 0 0 0 0 0 0 0 0 0 0 0 
0 0 0 0 0 0 0 0 0 0 0 0 0 0 0 0 0 0 0 0 0 0 0 0 0 0 0 0 0 0 0 0 0 0 0 0 0 0 0 0 0 0 0 0 0 0 0 0 0 0 0 0 0 0 0 0 0 0 0 0 0 0 0 0 0 0 0 0 0 0 0 0 0 0 0 214 128 90 214 128 90 214 128 90 214 128 90 214 128 90 214 128 90 214 128 90 214 128 90 214 128 90 214 128 90 214 128 90 214 128 90 214 128 90 214 128 90 214 128 90 214 128 90 214 128 90 214 128 90 214 128 90 214 128 90 214 128 90 214 128 90 214 128 90 0 0 0 0 0 0 0 0 0 0 0 0 0 0 0 0 0 0 0 0 0 0 0 0 0 0 0 0 0 0 0 0 0 0 0 0 0 0 0 0 0 0 0 0 0 0 0 0 
0 0 0 0 0 0 0 0 0 0 0 0 0 0 0 0 0 0 0 0 0 0 0 0 0 0 0 0 0 0 0 0 0 214 128 90 214 128 90 214 128 90 214 128 90 0 0 0 0 0 0 0 0 0 0 0 0 0 0 0 0 0 0 0 0 0 0 0 0 0 0 0 0 0 0 214 128 90 214 128 90 214 128 90 214 128 90 214 128 90 214 128 90 214 128 90 214 128 90 214 128 90 214 128 90 214 128 90 214 128 90 214 128 90 214 128 90 214 128 90 214 128 90 214 128 90 214 128 90 214 128 90 214 128 90 214 128 90 214 128 90 214 128 90 0 0 0 0 0 0 0 0 0 0 0 0 0 0 0 0 0 0 0 0 0 0 0 0 0 0 0 0 0 0 0 0 0 0 0 0 0 0 0 0 0 0 0 0 0 0 0 0 
0 0 0 0 0 0 0 0 0 0 0 0 0 0 0 0 0 0 0 0 0 0 0 0 0 0 0 0 0 0 0 0 0 214 128 90 193 148 184 193 148 184 214 128 90 214 128 90 214 128 90 0 0 0 0 0 0 0 0 0 0 0 0 0 0 0 0 0 0 0 0 0 0 0 0 214 128 90 214 128 90 214 128 90 214 128 90 214 128 90 214 128 90 214 128 90 214 128 90 214 128 90 214 128 90 214 128 90 214 128 90 214 128 90 214 128 90 214 128 90 214 128 90 214 128 90 214 128 90 214 128 90 214 128 90 214 128 90 214 128 90 214 128 90 214 128 90 0 0 0 0 0 0 0 0 0 0 0 0 0 0 0 0 0 0 0 0 0 0 0 0 0 0 0 0 0 0 0 0 0 0 0 0 0 0 0 0 0 0 0 0 0 
0 0 0 0 0 0 0 0 0 0 0 0 0 0 0 0 0 0 0 0 0 0 0 0 0 0 0 0 0 0 0 0 0 193 148 184 193 148 184 193 148 184 214 128 90 214 128 90 214 128 90 214 128 90 0 0 0 0 0 0 0 0 0 0 0 0 0 0 0 0 0 0 0 0 0 214 128 90 214 128 90 214 128 90 214 128 90 214 128 90 214 128 90 214 128 90 214 128 90 214 128 90 214 128 90 214 128 90 214 128 90 214 128 90 214 128 90 214 128 90 214 128 90 214 128 90 214 128 90 214 128 90 214 128 90 214 128 90 214 128 90 214 128 90 214 128 90 0 0 0 0 0 0 0 0 0 0 0 0 0 0 0 0 0 0 0 0 0 0 0 0 0 0 0 0 0 0 0 0 0 0 0 0 0 0 0 0 0 0 0 0 0 
0 0 0 0 0 0 0 0 0 0 0 0 0 0 0 0 0 0 0 0 0 0 0 0 0 0 0 0 0 0 0 0 0 193 148 184 193 148 184 193 148 184 214 128 90 214 128 90 214 128 90 214 128 90 214 128 90 0 0 0 0 0 0 0 0 0 0 0 0 0 0 0 0 0 0 214 128 90 214 128 90 214 128 90 214 128 90 214 128 90 214 128 90 214 128 90 214 128 90 214 128 90 214 128 90 214 128 90 214 128 90 214 128 90 214 128 90 214 128 90 214 128 90 214 128 90 214 128 90 214 128 90 214 128 90 214 128 90 214 128 90 214 128 90 214 128 90 214 128 90 0 0 0 0 0 0 0 0 0 0 0 0 0 0 0 0 0 0 0 0 0 0 0 0 0 0 0 0 0 0 0 0 0 0 0 0 0 0 0 0 0 0 
0 0 0 0 0 0 0 0 0 0 0 0 0 0 0 0 0 0 0 0 0 0 0 0 0 0 0 0 0 0 0 0 0 214 128 90 214 128 90 214 128 90 214 128 90 214 128 90 214 128 90 214 128 90 214 128 90 214 128 90 0 0 0 0 0 0 0 0 0 0 0 0 0 0 0 214 128 90 214 128 90 214 128 90 214 128 90 214 128 90 214 128 90 214 128 90 214 128 90 214 128 90 214 128 90 214 128 90 214 128 90 214 128 90 214 128 90 214 128 90 214 128 90 214 128 90 214 128 90 214 128 90 214 128 90 214 128 90 214 128 90 214 128 90 214 128 90 214 128 90 0 0 0 0 0 0 0 0 0 0 0 0 0 0 0 0 0 0 0 0 0 0 0 0 0 0 0 0 0 0 0 0 0 0 0 0 0 0 0 0 0 0 
0 0 0 0 0 0 0 0 0 0 0 0 0 0 0 0 0 0 0 0 0 0 0 0 0 0 0 0 0 0 0 0 0 214 128 90 214 128 90 214 128 90 214 128 90 214 128 90 214 128 90 214 128 90 214 128 90 214 128 90 214 128 90 0 0 0 0 0 0 0 0 0 0 0 0 214 128 90 214 128 90 214 128 90 214 128 90 214 128 90 214 128 90 214 128 90 214 128 90 214 128 90 214 128 90 214 128 90 214 128 90 214 128 90 214 128 90 214 128 90 214 128 90 214 128 90 214 128 90 214 128 90 214 128 90 214 128 90 214 128 90 214 128 90 214 128 90 214 128 90 0 0 0 0 0 0 0 0 0 0 0 0 0 0 0 0 0 0 0 0 0 0 0 0 0 0 0 0 0 0 0 0 0 0 0 0 0 0 0 0 0 0 
0 0 0 0 0 0 0 0 0 0 0 0 0 0 0 0 0 0 0 0 0 0 0 0 0 0 0 0 0 0 0 0 0 214 128 90 214 128 90 214 128 90 214 128 90 214 128 90 214 128 90 214 128 90 214 128 90 214 128 90 214 128 90 214 128 90 214 128 90 0 0 0 214 128 90 214 128 90 214 128 90 214 128 90 214 128 90 214 128 90 214 128 90 214 128 90 214 128 90 214 128 90 214 128 90 214 128 90 214 128 90 214 128 90 214 128 90 214 128 90 214 128 90 214 128 90 214 128 90 214 128 90 214 128 90 214 128 90 214 128 90 214 128 90 214 128 90 214 128 90 0 0 0 0 0 0 0 0 0 0 0 0 0 0 0 0 0 0 0 0 0 0 0 0 0 0 0 0 0 0 0 0 0 0 0 0 0 0 0 0 0 0 
0 0 0 0 0 0 0 0 0 0 0 0 0 0 0 0 0 0 0 0 0 0 0 0 0 0 0 0 0 0 0 0 0 0 0 0 214 128 90 214 128 90 214 128 90 214 128 90 214 128 90 214 128 90 214 128 90 214 128 90 214 128 90 214 128 90 214 128 90 214 128 90 214 128 90 214 128 90 214 128 90 214 128 90 214 128 90 214 128 90 214 128 90 214 128 90 214 128 90 214 128 90 214 128 90 214 128 90 214 128 90 214 128 90 214 128 90 214 128 90 214 128 90 214 128 90 214 128 90 214 128 90 214 128 90 214 128 90 214 128 90 214 128 90 214 128 90 214 128 90 0 0 0 0 0 0 0 0 0 0 0 0 0 0 0 0 0 0 0 0 0 0 0 0 0 0 0 0 0 0 0 0 0 0 0 0 0 0 0 0 0 0 
0 0 0 0 0 0 0 0 0 0 0 0 0 0 0 0 0 0 0 0 0 0 0 0 0 0 0 0 0 0 0 0 0 0 0 0 0 0 0 214 128 90 214 128 90 214 128 90 214 128 90 214 128 90 214 128 90 214 128 90 214 128 90 214 128 90 214 128 90 214 128 90 214 128 90 214 128 90 214 128 90 214 128 90 214 128 90 214 128 90 214 128 90 214 128 90 214 128 90 214 128 90 214 128 90 214 128 90 214 128 90 214 128 90 214 128 90 214 128 90 214 128 90 214 128 90 214 128 90 214 128 90 214 128 90 214 128 90 214 128 90 214 128 90 214 128 90 214 128 90 0 0 0 0 0 0 0 0 0 0 0 0 0 0 0 0 0 0 0 0 0 0 0 0 0 0 0 0 0 0 0 0 0 0 0 0 0 0 0 0 0 0 
0 0 0 0 0 0 0 0 0 0 0 0 0 0 0 0 0 0 0 0 0 0 0 0 0 0 0 0 0 0 0 0 0 0 0 0 0 0 0 214 128 90 214 128 90 214 128 90 214 128 90 214 128 90 214 128 90 214 128 90 214 128 90 214 128 90 214 128 90 214 128 90 214 128 90 214 128 90 214 128 90 214 128 90 214 128 90 214 128 90 214 128 90 214 128 90 214 128 90 214 128 90 214 128 90 214 128 90 214 128 90 214 128 90 214 128 90 214 128 90 214 128 90 214 128 90 214 128 90 214 128 90 214 128 90 214 128 90 214 128 90 214 128 90 214 128 90 214 128 90 0 0 0 0 0 0 0 0 0 0 0 0 0 0 0 0 0 0 0 0 0 0 0 0 0 0 0 0 0 0 0 0 0 0 0 0 0 0 0 0 0 0 
0 0 0 0 0 0 0 0 0 0 0 0 0 0 0 0 0 0 0 0 0 0 0 0 0 0 0 0 0 0 0 0 0 0 0 0 0 0 0 0 0 0 214 128 90 214 128 90 214 128 90 214 128 90 214 128 90 214 128 90 214 128 90 214 128 90 214 128 90 214 128 90 214 128 90 214 128 90 214 128 90 214 128 90 214 128 90 214 128 90 214 128 90 214 128 90 214 128 90 214 128 90 214 128 90 214 128 90 214 128 90 214 128 90 214 128 90 214 128 90 214 128 90 214 128 90 214 128 90 214 128 90 214 128 90 214 128 90 214 128 90 214 128 90 214 128 90 214 128 90 0 0 0 0 0 0 0 0 0 0 0 0 0 0 0 0 0 0 0 0 0 0 0 0 0 0 0 0 0 0 0 0 0 0 0 0 0 0 0 0 0 0 
0 0 0 0 0 0 0 0 0 0 0 0 0 0 0 0 0 0 0 0 0 0 0 0 0 0 0 0 0 0 0 0 0 0 0 0 0 0 0 0 0 0 0 0 0 214 128 90 214 128 90 214 128 90 214 128 90 214 128 90 214 128 90 214 128 90 214 128 90 214 128 90 214 128 90 214 128 90 214 128 90 214 128 90 214 128 90 214 128 90 214 128 90 214 128 90 214 128 90 214 128 90 214 128 90 214 128 90 214 128 90 214 128 90 214 128 90 214 128 90 214 128 90 214 128 90 214 128 90 214 128 90 214 128 90 214 128 90 214 128 90 214 128 90 214 128 90 214 128 90 214 128 90 0 0 0 0 0 0 0 0 0 0 0 0 0 0 0 0 0 0 0 0 0 0 0 0 0 0 0 0 0 0 0 0 0 0 0 0 0 0 0 
0 0 0 0 0 0 0 0 0 0 0 0 0 0 0 0 0 0 0 0 0 0 0 0 0 0 0 0 0 0 0 0 0 0 0 0 0 0 0 0 0 0 0 0 0 0 0 0 214 128 90 214 128 90 214 128 90 214 128 90 214 128 90 214 128 90 214 128 90 214 128 90 214 128 90 214 128 90 214 128 90 214 128 90 214 128 90 214 128 90 214 128 90 214 128 90 214 128 90 214 128 90 214 128 90 214 128 90 214 128 90 214 128 90 214 128 90 214 128 90 214 128 90 214 128 90 214 128 90 214 128 90 214 128 90 214 128 90 214 128 90 214 128 90 214 128 90 214 128 90 214 128 90 0 0 0 0 0 0 0 0 0 0 0 0 0 0 0 0 0 0 0 0 0 0 0 0 0 0 0 0 0 0 0 0 0 0 0 0 0 0 0 
0 0 0 0 0 0 0 0 0 0 0 0 0 0 0 0 0 0 0 0 0 0 0 0 0 0 0 0 0 0 0 0 0 0 0 0 0 0 0 0 0 0 0 0 0 0 0 0 0 0 0 214 128 90 214 128 90 214 128 90 214 128 90 214 128 90 214 128 90 214 128 90 214 128 90 214 128 90 214 128 90 214 128 90 214 128 90 214 128 90 214 128 90 214 128 90 214 128 90 214 128 90 214 128 90 214 128 90 214 128 90 214 128 90 214 128 90 214 128 90 214 128 90 214 128 90 214 128 90 214 128 90 214 128 90 214 128 90 214 128 90 214 128 90 214 128 90 214 128 90 214 128 90 214 128 90 0 0 0 0 0 0 0 0 0 0 0 0 0 0 0 0 0 0 0 0 0 0 0 0 0 0 0 0 0 0 0 0 0 0 0 0 
0 0 0 0 0 0 0 0 0 0 0 0 0 0 0 0 0 0 0 0 0 0 0 0 0 0 0 0 0 0 0 0 0 0 0 0 0 0 0 0 0 0 0 0 0 0 0 0 0 0 0 0 0 0 214 128 90 214 128 90 214 128 90 214 128 90 214 128 90 214 128 90 214 128 90 214 128 90 214 128 90 214 128 90 214 128 90 214 128 90 214 128 90 214 128 90 214 128 90 214 128 90 214 128 90 214 128 90 214 128 90 214 128 90 214 128 90 214 128 90 214 128 90 214 128 90 214 128 90 214 128 90 214 128 90 214 128 90 214 128 90 214 128 90 214 128 90 214 128 90 214 128 90 214 128 90 0 0 0 0 0 0 0 0 0 0 0 0 0 0 0 0 0 0 0 0 0 0 0 0 0 0 0 0 0 0 0 0 0 0 0 0 
0 0 0 0 0 0 0 0 0 0 0 0 0 0 0 0 0 0 0 0 0 0 0 0 0 0 0 0 0 0 0 0 0 0 0 0 0 0 0 0 0 0 0 0 0 0 0 0 0 0 0 0 0 0 0 0 0 0 0 0 0 0 0 214 128 90 214 128 90 214 128 90 214 128 90 214 128 90 214 128 90 214 128 90 214 128 90 214 128 90 214 128 90 214 128 90 214 128 90 214 128 90 214 128 90 214 128 90 214 128 90 214 128 90 214 128 90 214 128 90 214 128 90 214 128 90 214 128 90 214 128 90 214 128 90 214 128 90 214 128 90 214 128 90 214 128 90 214 128 90 214 128 90 214 128 90 0 0 0 0 0 0 0 0 0 0 0 0 0 0 0 0 0 0 0 0 0 0 0 0 0 0 0 0 0 0 0 0 0 0 0 0 
0 0 0 0 0 0 0 0 0 0 0 0 0 0 0 0 0 0 0 0 0 0 0 0 0 0 0 0 0 0 0 0 0 0 0 0 0 0 0 0 0 0 0 0 0 0 0 0 0 0 0 0 0 0 0 0 0 0 0 0 0 0 0 0 0 0 0 0 0 0 0 0 0 0 0 0 0 0 214 128 90 214 128 90 214 128 90 214 128 90 214 128 90 214 128 90 214 128 90 214 128 90 214 128 90 214 128 90 214 128 90 214 128 90 214 128 90 214 128 90 214 128 90 214 128 90 214 128 90 214 128 90 214 128 90 214 128 90 214 128 90 214 128 90 214 128 90 214 128 90 214 128 90 214 128 90 0 0 0 0 0 0 0 0 0 0 0 0 0 0 0 0 0 0 0 0 0 0 0 0 0 0 0 0 0 0 0 0 0 0 0 0 
0 0 0 0 0 0 0 0 0 0 0 0 0 0 0 0 0 0 0 0 0 0 0 0 0 0 0 0 0 0 0 0 0 0 0 0 0 0 0 0 0 0 0 0 0 0 0 0 0 0 0 0 0 0 0 0 0 0 0 0 0 0 0 0 0 0 0 0 0 0 0 0 0 0 0 0 0 0 0 0 0 214 128 90 214 128 90 214 128 90 214 128 90 214 128 90 214 128 90 214 128 90 214 128 90 214 128 90 214 128 90 214 128 90 214 128 90 214 128 90 214 128 90 214 128 90 214 128 90 214 128 90 214 128 90 214 128 90 214 128 90 214 128 90 214 128 90 214 128 90 214 128 90 214 128 90 0 0 0 0 0 0 0 0 0 0 0 0 0 0 0 0 0 0 0 0 0 0 0 0 0 0 0 0 0 0 0 0 0 0 0 0 
0 0 0 0 0 0 0 0 0 0 0 0 0 0 0 0 0 0 0 0 0 0 0 0 0 0 0 0 0 0 0 0 0 0 0 0 0 0 0 0 0 0 0 0 0 0 0 0 0 0 0 0 0 0 0 0 0 0 0 0 0 0 0 0 0 0 0 0 0 0 0 0 0 0 0 0 0 0 0 0 0 0 0 0 214 128 90 214 128 90 214 128 90 214 128 90 214 128 90 214 128 90 214 128 90 214 128 90 214 128 90 214 128 90 214 128 90 214 128 90 214 128 90 214 128 90 214 128 90 214 128 90 214 128 90 214 128 90 214 128 90 214 128 90 214 128 90 214 128 90 214 128 90 214 128 90 214 128 90 0 0 0 0 0 0 0 0 0 0 0 0 0 0 0 0 0 0 0 0 0 0 0 0 0 0 0 0 0 0 0 0 0 
0 0 0 0 0 0 0 0 0 0 0 0 0 0 0 0 0 0 0 0 0 0 0 0 0 0 0 0 0 0 0 0 0 0 0 0 0 0 0 0 0 0 0 0 0 0 0 0 0 0 0 0 0 0 0 0 0 0 0 0 0 0 0 0 0 0 0 0 0 0 0 0 0 0 0 0 0 0 0 0 0 0 0 0 0 0 0 0 0 0 214 128 90 214 128 90 214 128 90 214 128 90 214 128 90 214 128 90 214 128 90 214 128 90 214 128 90 214 128 90 214 128 90 214 128 90 214 128 90 214 128 90 214 128 90 214 128 90 214 128 90 214 128 90 214 128 90 214 128 90 214 128 90 214 128 90 214 128 90 214 128 90 0 0 0 0 0 0 0 0 0 0 0 0 0 0 0 0 0 0 0 0 0 0 0 0 0 0 0 0 0 0 
0 0 0 0 0 0 0 0 0 0 0 0 0 0 0 0 0 0 0 0 0 0 0 0 0 0 0 0 0 0 0 0 0 0 0 0 0 0 0 0 0 0 0 0 0 0 0 0 0 0 0 0 0 0 0 0 0 0 0 0 0 0 0 0 0 0 0 0 0 0 0 0 0 0 0 0 0 0 0 0 0 0 0 0 0 0 0 0 0 0 214 128 90 214 128 90 214 128 90 214 128 90 214 128 90 214 128 90 214 128 90 214 128 90 214 128 90 214 128 90 214 128 90 214 128 90 214 128 90 214 128 90 214 128 90 214 128 90 214 128 90 214 128 90 214 128 90 214 128 90 214 128 90 214 128 90 214 128 90 214 128 90 0 0 0 0 0 0 0 0 0 0 0 0 0 0 0 0 0 0 0 0 0 0 0 0 0 0 0 0 0 0 
0 0 0 0 0 0 0 0 0 0 0 0 0 0 0 0 0 0 0 0 0 0 0 0 0 0 0 0 0 0 0 0 0 0 0 0 0 0 0 0 0 0 0 0 0 0 0 0 0 0 0 0 0 0 0 0 0 0 0 0 0 0 0 0 0 0 0 0 0 0 0 0 0 0 0 0 0 0 0 0 0 0 0 0 0 0 0 0 0 0 214 128 90 214 128 90 214 128 90 214 128 90 214 128 90 214 128 90 214 128 90 214 128 90 214 128 90 214 128 90 214 128 90 214 128 90 214 128 90 214 128 90 214 128 90 214 128 90 214 128 90 214 128 90 214 128 90 214 128 90 214 128 90 214 128 90 214 128 90 214 128 90 214 128 90 0 0 0 0 0 0 0 0 0 0 0 0 0 0 0 0 0 0 0 0 0 0 0 0 0 0 0 
0 0 0 0 0 0 0 0 0 0 0 0 0 0 0 0 0 0 0 0 0 0 0 0 0 0 0 0 0 0 0 0 0 0 0 0 0 0 0 0 0 0 0 0 0 0 0 0 0 0 0 0 0 0 0 0 0 0 0 0 0 0 0 0 0 0 0 0 0 0 0 0 0 0 0 0 0 0 0 0 0 0 0 0 0 0 0 0 0 0 214 128 90 214 128 90 214 128 90 214 128 90 214 128 90 214 128 90 214 128 90 214 128 90 214 128 90 214 128 90 214 128 90 214 128 90 214 128 90 214 128 90 214 128 90 214 128 90 214 128 90 214 128 90 214 128 90 214 128 90 214 128 90 214 128 90 214 128 90 214 128 90 214 128 90 214 128 90 0 0 0 0 0 0 0 0 0 0 0 0 0 0 0 0 0 0 0 0 0 0 0 0 
0 0 0 0 0 0 0 0 0 0 0 0 0 0 0 0 0 0 0 0 0 0 0 0 0 0 0 0 0 0 0 0 0 0 0 0 0 0 0 0 0 0 0 0 0 0 0 0 0 0 0 0 0 0 0 0 0 0 0 0 0 0 0 0 0 0 0 0 0 0 0 0 0 0 0 0 0 0 0 0 0 0 0 0 0 0 0 0 0 0 0 0 0 214 128 90 214 128 90 214 128 90 214 128 90 214 128 90 214 128 90 214 128 90 214 128 90 214 128 90 214 128 90 214 128 90 214 128 90 214 128 90 214 128 90 214 128 90 214 128 90 214 128 90 214 128 90 214 128 90 214 128 90 214 128 90 214 128 90 214 128 90 214 128 90 214 128 90 0 0 0 0 0 0 0 0 0 0 0 0 0 0 0 0 0 0 0 0 0 0 0 0 
0 0 0 0 0 0 0 0 0 0 0 0 0 0 0 0 0 0 0 0 0 0 0 0 0 0 0 0 0 0 0 0 0 0 0 0 0 0 0 0 0 0 0 0 0 0 0 0 0 0 0 0 0 0 0 0 0 0 0 0 0 0 0 0 0 0 0 0 0 0 0 0 0 0 0 0 0 0 0 0 0 0 0 0 0 0 0 0 0 0 0 0 0 0 0 0 214 128 90 214 128 90 214 128 90 214 128 90 214 128 90 214 128 90 214 128 90 214 128 90 214 128 90 214 128 90 214 128 90 214 128 90 214 128 90 214 128 90 214 128 90 214 128 90 214 128 90 214 128 90 214 128 90 214 128 90 214 128 90 214 128 90 214 128 90 214 128 90 214 128 90 0 0 0 0 0 0 0 0 0 0 0 0 0 0 0 0 0 0 0 0 0 
0 0 0 0 0 0 0 0 0 0 0 0 0 0 0 0 0 0 0 0 0 0 0 0 0 0 0 0 0 0 0 0 0 0 0 0 0 0 0 0 0 0 0 0 0 0 0 0 0 0 0 0 0 0 0 0 0 0 0 0 0 0 0 0 0 0 0 0 0 0 0 0 0 0 0 0 0 0 0 0 0 0 0 0 0 0 0 0 0 0 0 0 0 0 0 0 214 128 90 214 128 90 214 128 90 214 128 90 214 128 90 214 128 90 214 128 90 214 128 90 214 128 90 214 128 90 214 128 90 214 128 90 214 128 90 214 128 90 214 128 90 214 128 90 214 128 90 214 128 90 214 128 90 214 128 90 214 128 90 214 128 90 214 128 90 214 128 90 214 128 90 0 0 0 0 0 0 0 0 0 0 0 0 0 0 0 0 0 0 0 0 0 
0 0 0 0 0 0 0 0 0 0 0 0 0 0 0 0 0 0 0 0 0 0 0 0 0 0 0 0 0 0 0 0 0 0 0 0 0 0 0 0 0 0 0 0 0 0 0 0 0 0 0 0 0 0 0 0 0 0 0 0 0 0 0 0 0 0 0 0 0 0 0 0 0 0 0 0 0 0 0 0 0 0 0 0 0 0 0 0 0 0 0 0 0 0 0 0 0 0 0 214 128 90 214 128 90 214 128 90 214 128 90 214 128 90 214 128 90 214 128 90 214 128 90 214 128 90 214 128 90 214 128 90 214 128 90 214 128 90 214 128 90 214 128 90 214 128 90 214 128 90 214 128 90 214 128 90 214 128 90 214 128 90 214 128 90 214 128 90 214 128 90 214 128 90 0 0 0 0 0 0 0 0 0 0 0 0 0 0 0 0 0 0 
0 0 0 0 0 0 0 0 0 0 0 0 0 0 0 0 0 0 0 0 0 0 0 0 0 0 0 0 0 0 0 0 0 0 0 0 0 0 0 0 0 0 0 0 0 0 0 0 0 0 0 0 0 0 0 0 0 0 0 0 0 0 0 0 0 0 0 0 0 0 0 0 0 0 0 0 0 0 0 0 0 0 0 0 0 0 0 0 0 0 0 0 0 0 0 0 0 0 0 214 128 90 214 128 90 214 128 90 214 128 90 214 128 90 214 128 90 214 128 90 214 128 90 214 128 90 214 128 90 214 128 90 214 128 90 214 128 90 214 128 90 214 128 90 214 128 90 214 128 90 214 128 90 214 128 90 214 128 90 214 128 90 214 128 90 214 128 90 214 128 90 214 128 90 0 0 0 0 0 0 0 0 0 0 0 0 0 0 0 0 0 0 
0 0 0 0 0 0 0 0 0 0 0 0 0 0 0 0 0 0 0 0 0 0 0 0 0 0 0 0 0 0 0 0 0 0 0 0 0 0 0 0 0 0 0 0 0 0 0 0 0 0 0 0 0 0 0 0 0 0 0 0 0 0 0 0 0 0 0 0 0 0 0 0 0 0 0 0 0 0 0 0 0 0 0 0 0 0 0 0 0 0 0 0 0 0 0 0 0 0 0 0 0 0 214 128 90 214 128 90 214 128 90 214 128 90 214 128 90 214 128 90 214 128 90 214 128 90 214 128 90 214 128 90 214 128 90 214 128 90 214 128 90 214 128 90 214 128 90 214 128 90 214 128 90 214 128 90 214 128 90 214 128 90 214 128 90 214 128 90 214 128 90 214 128 90 214 128 90 0 0 0 0 0 0 0 0 0 0 0 0 0 0 0 
0 0 0 0 0 0 0 0 0 0 0 0 0 0 0 0 0 0 0 0 0 0 0 0 0 0 0 0 0 0 0 0 0 0 0 0 0 0 0 0 0 0 0 0 0 0 0 0 0 0 0 0 0 0 0 0 0 0 0 0 0 0 0 0 0 0 0 0 0 0 0 0 0 0 0 0 0 0 0 0 0 0 0 0 0 0 0 0 0 0 0 0 0 0 0 0 0 0 0 0 0 0 214 128 90 214 128 90 214 128 90 214 128 90 214 128 90 214 128 90 214 128 90 214 128 90 214 128 90 214 128 90 214 128 90 214 128 90 214 128 90 214 128 90 214 128 90 214 128 90 214 128 90 214 128 90 214 128 90 214 128 90 214 128 90 214 128 90 214 128 90 214 128 90 214 128 90 0 0 0 0 0 0 0 0 0 0 0 0 0 0 0 
0 0 0 0 0 0 0 0 0 0 0 0 0 0 0 0 0 0 0 0 0 0 0 0 0 0 0 0 0 0 0 0 0 0 0 0 0 0 0 0 0 0 0 0 0 0 0 0 0 0 0 0 0 0 0 0 0 0 0 0 0 0 0 0 0 0 0 0 0 0 0 0 0 0 0 0 0 0 0 0 0 0 0 0 0 0 0 0 0 0 0 0 0 0 0 0 0 0 0 0 0 0 214 128 90 214 128 90 214 128 90 214 128 90 214 128 90 214 128 90 214 128 90 214 128 90 214 128 90 214 128 90 214 128 90 214 128 90 214 128 90 214 128 90 214 128 90 214 128 90 214 128 90 214 128 90 214 128 90 214 128 90 214 128 90 214 128 90 214 128 90 214 128 90 214 128 90 0 0 0 0 0 0 0 0 0 0 0 0 0 0 0 
