P3
64 64
255
0 0 0 0 0 0 0 0 0 0 0 0 0 0 0 0 0 0 0 0 0 0 0 0 0 0 0 0 0 0 0 0 0 0 0 0 0 0 0 0 0 0 0 0 0 0 0 0 0 0 0 0 0 0 99 99 99 99 99 99 99 99 99 0 0 0 0 0 0 0 0 0 0 0 0 0 0 0 0 0 0 0 0 0 0 0 0 0 0 0 0 0 0 0 0 0 0 0 0 0 0 0 0 0 0 0 0 0 0 0 0 0 0 0 0 0 0 0 0 0 0 0 0 0 0 0 0 0 0 99 99 99 99 99 99 99 99 99 0 0 0 0 0 0 0 0 0 0 0 0 0 0 0 0 0 0 0 0 0 0 0 0 0 0 0 0 0 0 0 0 0 0 0 0 0 0 0 0 0 0 0 0 0 0 0 0 0 0 0 0 0 0 
0 0 0 0 0 0 0 0 0 0 0 0 0 0 0 0 0 0 0 0 0 0 0 0 0 0 0 0 0 0 0 0 0 0 0 0 0 0 0 0 0 0 0 0 0 0 0 0 0 0 0 0 0 0 99 99 99 150 0 0 99 99 99 99 99 99 0 0 0 0 0 0 0 0 0 0 0 0 0 0 0 0 0 0 0 0 0 0 0 0 0 0 0 0 0 0 0 0 0 0 0 0 0 0 0 0 0 0 0 0 0 0 0 0 0 0 0 0 0 0 0 0 0 0 0 0 99 99 99 99 99 99 150 0 0 99 99 99 0 0 0 0 0 0 0 0 0 0 0 0 0 0 0 0 0 0 0 0 0 0 0 0 0 0 0 0 0 0 0 0 0 0 0 0 0 0 0 0 0 0 0 0 0 0 0 0 0 0 0 0 0 0 
0 0 0 0 0 0 0 0 0 0 0 0 0 0 0 0 0 0 0 0 0 0 0 0 0 0 0 0 0 0 0 0 0 0 0 0 0 0 0 0 0 0 0 0 0 0 0 0 0 0 0 0 0 0 99 99 99 150 0 0 150 0 0 99 99 99 99 99 99 0 0 0 0 0 0 0 0 0 0 0 0 0 0 0 0 0 0 0 0 0 0 0 0 0 0 0 0 0 0 0 0 0 0 0 0 0 0 0 0 0 0 0 0 0 0 0 0 0 0 0 0 0 0 99 99 99 99 99 99 150 0 0 150 0 0 99 99 99 0 0 0 0 0 0 0 0 0 0 0 0 0 0 0 0 0 0 0 0 0 0 0 0 0 0 0 0 0 0 0 0 0 0 0 0 0 0 0 0 0 0 0 0 0 0 0 0 0 0 0 0 0 0 
0 0 0 0 0 0 0 0 0 0 0 0 0 0 0 0 0 0 0 0 0 0 0 0 0 0 0 0 0 0 0 0 0 0 0 0 0 0 0 0 0 0 0 0 0 0 0 0 0 0 0 0 0 0 99 99 99 150 0 0 150 0 0 150 0 0 99 99 99 99 99 99 0 0 0 99 99 99 99 99 99 99 99 99 99 99 99 99 99 99 99 99 99 99 99 99 99 99 99 99 99 99 99 99 99 99 99 99 99 99 99 99 99 99 99 99 99 0 0 0 99 99 99 99 99 99 150 0 0 150 0 0 150 0 0 99 99 99 0 0 0 0 0 0 0 0 0 0 0 0 0 0 0 0 0 0 0 0 0 0 0 0 0 0 0 0 0 0 0 0 0 0 0 0 0 0 0 0 0 0 0 0 0 0 0 0 0 0 0 0 0 0 
0 0 0 0 0 0 0 0 0 0 0 0 0 0 0 0 0 0 0 0 0 0 0 0 0 0 0 0 0 0 0 0 0 0 0 0 0 0 0 0 0 0 0 0 0 0 0 0 0 0 0 0 0 0 99 99 99 99 99 99 150 0 0 150 0 0 150 0 0 99 99 99 99 99 99 225 0 0 225 0 0 225 0 0 225 0 0 225 0 0 225 0 0 225 0 0 225 0 0 225 0 0 225 0 0 225 0 0 225 0 0 225 0 0 225 0 0 99 99 99 99 99 99 150 0 0 150 0 0 150 0 0 99 99 99 99 99 99 0 0 0 0 0 0 0 0 0 0 0 0 0 0 0 0 0 0 0 0 0 0 0 0 0 0 0 0 0 0 0 0 0 0 0 0 0 0 0 0 0 0 0 0 0 0 0 0 0 0 0 0 0 0 
0 0 0 0 0 0 0 0 0 0 0 0 0 0 0 0 0 0 0 0 0 0 0 0 0 0 0 0 0 0 0 0 0 0 0 0 0 0 0 0 0 0 0 0 0 0 0 0 0 0 0 0 0 0 0 0 0 99 99 99 150 0 0 150 0 0 99 99 99 99 99 99 225 0 0 225 0 0 225 0 0 225 0 0 225 0 0 225 0 0 225 0 0 225 0 0 225 0 0 225 0 0 225 0 0 225 0 0 225 0 0 225 0 0 225 0 0 225 0 0 99 99 99 99 99 99 150 0 0 150 0 0 99 99 99 0 0 0 0 0 0 0 0 0 0 0 0 0 0 0 0 0 0 0 0 0 0 0 0 0 0 0 0 0 0 0 0 0 0 0 0 0 0 0 0 0 0 0 0 0 0 0 0 0 0 0 0 0 0 0 0 0 
0 0 0 0 0 0 0 0 0 0 0 0 0 0 0 0 0 0 0 0 0 0 0 0 0 0 0 0 0 0 0 0 0 0 0 0 0 0 0 0 0 0 0 0 0 0 0 0 0 0 0 0 0 0 0 0 0 99 99 99 99 99 99 150 0 0 99 99 99 225 0 0 225 0 0 225 0 0 225 0 0 99 99 99 225 0 0 225 0 0 225 0 0 225 0 0 225 0 0 225 0 0 225 0 0 225 0 0 99 99 99 225 0 0 225 0 0 225 0 0 225 0 0 99 99 99 150 0 0 99 99 99 99 99 99 0 0 0 0 0 0 0 0 0 0 0 0 0 0 0 0 0 0 0 0 0 0 0 0 0 0 0 0 0 0 0 0 0 0 0 0 0 0 0 0 0 0 0 0 0 0 0 0 0 0 0 0 0 0 0 0 0 
0 0 0 0 0 0 0 0 0 0 0 0 0 0 0 0 0 0 0 0 0 0 0 0 0 0 0 0 0 0 0 0 0 0 0 0 0 0 0 0 0 0 0 0 0 0 0 0 0 0 0 0 0 0 0 0 0 0 0 0 99 99 99 150 0 0 99 99 99 225 0 0 225 0 0 225 0 0 225 0 0 99 99 99 99 99 99 99 99 99 225 0 0 225 0 0 225 0 0 225 0 0 99 99 99 99 99 99 99 99 99 225 0 0 225 0 0 225 0 0 225 0 0 99 99 99 150 0 0 99 99 99 0 0 0 0 0 0 0 0 0 0 0 0 0 0 0 0 0 0 0 0 0 0 0 0 0 0 0 0 0 0 0 0 0 0 0 0 0 0 0 0 0 0 0 0 0 0 0 0 0 0 0 0 0 0 0 0 0 0 0 0 
0 0 0 0 0 0 0 0 0 0 0 0 0 0 0 0 0 0 0 0 0 0 0 0 0 0 0 0 0 0 0 0 0 0 0 0 0 0 0 0 0 0 0 0 0 0 0 0 0 0 0 0 0 0 0 0 0 0 0 0 99 99 99 99 99 99 225 0 0 225 0 0 225 0 0 225 0 0 225 0 0 150 0 0 150 0 0 99 99 99 225 0 0 225 0 0 225 0 0 225 0 0 99 99 99 150 0 0 150 0 0 225 0 0 225 0 0 225 0 0 225 0 0 225 0 0 99 99 99 99 99 99 0 0 0 0 0 0 0 0 0 0 0 0 0 0 0 0 0 0 0 0 0 0 0 0 0 0 0 0 0 0 0 0 0 0 0 0 0 0 0 0 0 0 0 0 0 0 0 0 0 0 0 0 0 0 0 0 0 0 0 0 
0 0 0 0 0 0 0 0 0 0 0 0 0 0 0 0 0 0 0 0 0 0 0 0 0 0 0 0 0 0 0 0 0 0 0 0 0 0 0 0 0 0 0 0 0 0 0 0 0 0 0 0 0 0 0 0 0 0 0 0 0 0 0 99 99 99 225 0 0 225 0 0 225 0 0 225 0 0 225 0 0 150 0 0 150 0 0 225 0 0 225 0 0 225 0 0 225 0 0 225 0 0 225 0 0 150 0 0 150 0 0 225 0 0 225 0 0 225 0 0 225 0 0 225 0 0 99 99 99 0 0 0 0 0 0 0 0 0 0 0 0 0 0 0 0 0 0 0 0 0 0 0 0 0 0 0 0 0 0 0 0 0 0 0 0 0 0 0 0 0 0 0 0 0 0 0 0 0 0 0 0 0 0 0 0 0 0 0 0 0 0 0 
0 0 0 0 0 0 0 0 0 0 0 0 0 0 0 0 0 0 0 0 0 0 0 0 0 0 0 0 0 0 0 0 0 0 0 0 0 0 0 0 0 0 0 0 0 0 0 0 0 0 0 0 0 0 0 0 0 0 0 0 0 0 0 99 99 99 225 0 0 225 0 0 225 0 0 225 0 0 225 0 0 225 0 0 225 0 0 225 0 0 225 0 0 225 0 0 225 0 0 225 0 0 225 0 0 225 0 0 225 0 0 225 0 0 225 0 0 225 0 0 225 0 0 225 0 0 99 99 99 0 0 0 0 0 0 0 0 0 0 0 0 0 0 0 0 0 0 0 0 0 0 0 0 0 0 0 0 0 0 0 0 0 0 0 0 0 0 0 0 0 0 0 0 0 0 0 0 0 0 0 0 0 0 0 0 0 0 0 0 0 0 0 
0 0 0 0 0 0 0 0 0 0 0 0 0 0 0 0 0 0 0 0 0 0 0 0 0 0 0 0 0 0 0 0 0 0 0 0 0 0 0 0 0 0 0 0 0 0 0 0 0 0 0 0 0 0 0 0 0 0 0 0 0 0 0 99 99 99 225 0 0 225 0 0 225 0 0 225 0 0 225 0 0 225 0 0 225 0 0 225 0 0 225 0 0 225 0 0 225 0 0 225 0 0 225 0 0 225 0 0 225 0 0 225 0 0 225 0 0 225 0 0 225 0 0 225 0 0 99 99 99 0 0 0 0 0 0 0 0 0 0 0 0 0 0 0 0 0 0 0 0 0 0 0 0 0 0 0 0 0 0 0 0 0 0 0 0 0 0 0 0 0 0 0 0 0 0 0 0 0 0 0 0 0 0 0 0 0 0 0 0 0 0 0 
0 0 0 0 0 0 0 0 0 0 0 0 0 0 0 0 0 0 0 0 0 0 0 0 0 0 0 0 0 0 0 0 0 0 0 0 0 0 0 0 0 0 0 0 0 0 0 0 0 0 0 0 0 0 0 0 0 0 0 0 0 0 0 99 99 99 225 0 0 225 0 0 225 0 0 225 0 0 225 0 0 225 0 0 225 0 0 225 0 0 150 0 0 225 0 0 225 0 0 150 0 0 225 0 0 225 0 0 225 0 0 225 0 0 225 0 0 225 0 0 225 0 0 225 0 0 99 99 99 0 0 0 0 0 0 0 0 0 0 0 0 0 0 0 0 0 0 0 0 0 0 0 0 0 0 0 0 0 0 0 0 0 0 0 0 0 0 0 0 0 0 0 0 0 0 0 0 0 0 0 0 0 0 0 0 0 0 0 0 0 0 0 
0 0 0 0 0 0 0 0 0 0 0 0 0 0 0 0 0 0 0 0 0 0 0 0 0 0 0 0 0 0 0 0 0 0 0 0 0 0 0 0 0 0 0 0 0 0 0 0 0 0 0 0 0 0 0 0 0 0 0 0 0 0 0 99 99 99 99 99 99 225 0 0 225 0 0 225 0 0 225 0 0 225 0 0 225 0 0 225 0 0 225 0 0 225 0 0 225 0 0 225 0 0 225 0 0 225 0 0 225 0 0 225 0 0 225 0 0 225 0 0 225 0 0 99 99 99 99 99 99 0 0 0 0 0 0 0 0 0 0 0 0 0 0 0 0 0 0 0 0 0 0 0 0 0 0 0 0 0 0 0 0 0 0 0 0 0 0 0 0 0 0 0 0 0 0 0 0 0 0 0 0 0 0 0 0 0 0 0 0 0 0 0 
0 0 0 0 0 0 0 0 0 0 0 0 0 0 0 0 0 0 0 0 0 0 0 0 0 0 0 0 0 0 0 0 0 0 0 0 0 0 0 0 0 0 0 0 0 0 0 0 0 0 0 0 0 0 0 0 0 0 0 0 0 0 0 0 0 0 99 99 99 225 0 0 225 0 0 225 0 0 225 0 0 225 0 0 225 0 0 225 0 0 225 0 0 225 0 0 225 0 0 225 0 0 225 0 0 225 0 0 225 0 0 225 0 0 225 0 0 225 0 0 225 0 0 99 99 99 0 0 0 0 0 0 0 0 0 0 0 0 0 0 0 0 0 0 0 0 0 0 0 0 0 0 0 0 0 0 0 0 0 0 0 0 0 0 0 0 0 0 0 0 0 0 0 0 0 0 0 0 0 0 0 0 0 0 0 0 0 0 0 0 0 0 
0 0 0 0 0 0 0 0 0 0 0 0 0 0 0 0 0 0 0 0 0 0 0 0 0 0 0 0 0 0 0 0 0 0 0 0 0 0 0 0 0 0 0 0 0 0 0 0 0 0 0 0 0 0 0 0 0 0 0 0 0 0 0 0 0 0 99 99 99 99 99 99 225 0 0 225 0 0 225 0 0 225 0 0 99 99 99 99 99 99 99 99 99 99 99 99 99 99 99 99 99 99 99 99 99 99 99 99 225 0 0 225 0 0 225 0 0 225 0 0 99 99 99 99 99 99 0 0 0 0 0 0 0 0 0 0 0 0 0 0 0 0 0 0 0 0 0 0 0 0 0 0 0 0 0 0 0 0 0 0 0 0 0 0 0 0 0 0 0 0 0 0 0 0 0 0 0 0 0 0 0 0 0 0 0 0 0 0 0 0 0 0 
0 0 0 0 0 0 0 0 0 0 0 0 0 0 0 0 0 0 0 0 0 0 0 0 0 0 0 0 0 0 0 0 0 0 0 0 0 0 0 0 0 0 0 0 0 0 0 0 0 0 0 0 0 0 0 0 0 0 0 0 0 0 0 0 0 0 0 0 0 99 99 99 225 0 0 225 0 0 225 0 0 225 0 0 225 0 0 150 0 0 225 0 0 225 0 0 225 0 0 225 0 0 150 0 0 225 0 0 225 0 0 225 0 0 225 0 0 225 0 0 99 99 99 0 0 0 0 0 0 0 0 0 0 0 0 0 0 0 0 0 0 0 0 0 0 0 0 0 0 0 0 0 0 0 0 0 0 0 0 0 0 0 0 0 0 0 0 0 0 0 0 0 0 0 0 0 0 0 0 0 0 0 0 0 0 0 0 0 0 0 0 0 
0 0 0 0 0 0 0 0 0 0 0 0 0 0 0 0 0 0 0 0 0 0 0 0 0 0 0 0 0 0 0 0 0 0 0 0 0 0 0 0 0 0 0 0 0 0 0 0 0 0 0 0 0 0 0 0 0 0 0 0 0 0 0 0 0 0 0 0 0 99 99 99 99 99 99 225 0 0 225 0 0 225 0 0 225 0 0 225 0 0 225 0 0 225 0 0 225 0 0 225 0 0 225 0 0 225 0 0 225 0 0 225 0 0 225 0 0 99 99 99 99 99 99 0 0 0 0 0 0 0 0 0 0 0 0 0 0 0 0 0 0 0 0 0 0 0 0 0 0 0 0 0 0 0 0 0 0 0 0 0 0 0 0 0 0 0 0 0 0 0 0 0 0 0 0 0 0 0 0 0 0 0 0 0 0 0 0 0 0 0 0 0 
0 0 0 0 0 0 0 0 0 0 0 0 0 0 0 0 0 0 0 0 0 0 0 0 0 0 0 0 0 0 0 0 0 0 0 0 0 0 0 0 0 0 0 0 0 0 0 0 0 0 0 0 0 0 0 0 0 0 0 0 0 0 0 0 0 0 0 0 0 0 0 0 99 99 99 99 99 99 99 99 99 225 0 0 225 0 0 225 0 0 225 0 0 225 0 0 225 0 0 225 0 0 225 0 0 225 0 0 225 0 0 99 99 99 99 99 99 99 99 99 0 0 0 0 0 0 0 0 0 0 0 0 0 0 0 0 0 0 0 0 0 0 0 0 0 0 0 0 0 0 0 0 0 0 0 0 0 0 0 0 0 0 0 0 0 0 0 0 0 0 0 0 0 0 0 0 0 0 0 0 0 0 0 0 0 0 0 0 0 0 0 0 
0 0 0 0 0 0 0 0 0 0 0 0 0 0 0 0 0 0 0 0 0 0 0 0 0 0 0 0 0 0 0 0 0 0 0 0 0 0 0 0 0 0 0 0 0 0 0 0 0 0 0 0 0 0 0 0 0 0 0 0 0 0 0 0 0 0 0 0 0 0 0 0 0 0 0 0 0 0 99 99 99 99 99 99 225 0 0 225 0 0 225 0 0 225 0 0 225 0 0 225 0 0 225 0 0 225 0 0 99 99 99 99 99 99 0 0 0 0 0 0 0 0 0 0 0 0 0 0 0 0 0 0 0 0 0 0 0 0 0 0 0 0 0 0 0 0 0 0 0 0 0 0 0 0 0 0 0 0 0 0 0 0 0 0 0 0 0 0 0 0 0 0 0 0 0 0 0 0 0 0 0 0 0 0 0 0 0 0 0 0 0 0 
0 0 0 0 0 0 0 0 0 0 0 0 0 0 0 0 0 0 0 0 0 0 0 0 0 0 0 0 0 0 0 0 0 0 0 0 0 0 0 0 0 0 0 0 0 0 0 0 0 0 0 0 0 0 0 0 0 0 0 0 0 0 0 0 0 0 0 0 0 0 0 0 0 0 0 0 0 0 99 99 99 99 99 99 99 99 99 99 99 99 225 0 0 225 0 0 225 0 0 225 0 0 99 99 99 99 99 99 99 99 99 99 99 99 0 0 0 0 0 0 0 0 0 0 0 0 0 0 0 0 0 0 0 0 0 0 0 0 0 0 0 0 0 0 0 0 0 0 0 0 0 0 0 0 0 0 0 0 0 0 0 0 0 0 0 0 0 0 0 0 0 0 0 0 0 0 0 0 0 0 0 0 0 0 0 0 0 0 0 0 0 0 
0 0 0 0 0 0 0 0 0 0 0 0 0 0 0 0 0 0 0 0 0 0 0 0 0 0 0 0 0 0 0 0 0 0 0 0 0 0 0 0 0 0 0 0 0 0 0 0 0 0 0 0 0 0 0 0 0 0 0 0 0 0 0 0 0 0 0 0 0 0 0 0 0 0 0 0 0 0 99 99 99 150 0 0 150 0 0 99 99 99 99 99 99 99 99 99 99 99 99 99 99 99 99 99 99 150 0 0 150 0 0 99 99 99 0 0 0 0 0 0 0 0 0 0 0 0 0 0 0 0 0 0 0 0 0 0 0 0 0 0 0 0 0 0 0 0 0 0 0 0 0 0 0 0 0 0 0 0 0 0 0 0 0 0 0 0 0 0 0 0 0 0 0 0 0 0 0 0 0 0 0 0 0 0 0 0 0 0 0 0 0 0 
0 0 0 0 0 0 0 0 0 0 0 0 0 0 0 0 0 0 0 0 0 0 0 0 0 0 0 0 0 0 0 0 0 0 0 0 0 0 0 0 0 0 0 0 0 0 0 0 0 0 0 0 0 0 0 0 0 0 0 0 0 0 0 0 0 0 0 0 0 0 0 0 0 0 0 0 0 0 99 99 99 225 0 0 225 0 0 150 0 0 150 0 0 150 0 0 150 0 0 150 0 0 150 0 0 225 0 0 225 0 0 99 99 99 0 0 0 0 0 0 0 0 0 0 0 0 0 0 0 0 0 0 0 0 0 0 0 0 0 0 0 0 0 0 0 0 0 0 0 0 0 0 0 0 0 0 0 0 0 0 0 0 0 0 0 0 0 0 0 0 0 0 0 0 0 0 0 0 0 0 0 0 0 0 0 0 0 0 0 0 0 0 
0 0 0 0 0 0 0 0 0 0 0 0 0 0 0 0 0 0 0 0 0 0 0 0 0 0 0 0 0 0 0 0 0 0 0 0 0 0 0 0 0 0 0 0 0 0 0 0 0 0 0 99 99 99 99 99 99 99 99 99 99 99 99 99 99 99 99 99 99 99 99 99 99 99 99 99 99 99 99 99 99 225 0 0 225 0 0 225 0 0 225 0 0 225 0 0 225 0 0 225 0 0 225 0 0 225 0 0 225 0 0 99 99 99 99 99 99 99 99 99 99 99 99 99 99 99 99 99 99 99 99 99 99 99 99 99 99 99 99 99 99 0 0 0 0 0 0 0 0 0 0 0 0 0 0 0 0 0 0 0 0 0 0 0 0 0 0 0 0 0 0 0 0 0 0 0 0 0 0 0 0 0 0 0 0 0 0 0 0 0 0 0 
0 0 0 0 0 0 0 0 0 0 0 0 0 0 0 0 0 0 0 0 0 0 0 0 0 0 0 0 0 0 0 0 0 0 0 0 0 0 0 0 0 0 0 0 0 99 99 99 99 99 99 225 0 0 225 0 0 225 0 0 225 0 0 225 0 0 225 0 0 225 0 0 225 0 0 225 0 0 225 0 0 225 0 0 225 0 0 225 0 0 225 0 0 225 0 0 225 0 0 225 0 0 225 0 0 225 0 0 225 0 0 225 0 0 225 0 0 225 0 0 225 0 0 225 0 0 225 0 0 225 0 0 225 0 0 225 0 0 225 0 0 99 99 99 99 99 99 0 0 0 0 0 0 0 0 0 0 0 0 0 0 0 0 0 0 0 0 0 0 0 0 0 0 0 0 0 0 0 0 0 0 0 0 0 0 0 0 0 0 0 0 0 
0 0 0 0 0 0 0 0 0 0 0 0 0 0 0 0 0 0 0 0 0 0 0 0 0 0 0 0 0 0 0 0 0 0 0 0 0 0 0 0 0 0 99 99 99 99 99 99 225 0 0 225 0 0 225 0 0 225 0 0 225 0 0 225 0 0 225 0 0 225 0 0 225 0 0 225 0 0 225 0 0 225 0 0 225 0 0 225 0 0 225 0 0 225 0 0 225 0 0 225 0 0 225 0 0 225 0 0 225 0 0 225 0 0 225 0 0 225 0 0 225 0 0 225 0 0 225 0 0 225 0 0 225 0 0 225 0 0 225 0 0 225 0 0 99 99 99 99 99 99 0 0 0 0 0 0 0 0 0 0 0 0 0 0 0 0 0 0 0 0 0 0 0 0 0 0 0 0 0 0 0 0 0 0 0 0 0 0 0 0 0 0 
0 0 0 0 0 0 0 0 0 0 0 0 0 0 0 0 0 0 0 0 0 0 0 0 0 0 0 0 0 0 0 0 0 0 0 0 0 0 0 0 0 0 99 99 99 225 0 0 225 0 0 225 0 0 225 0 0 225 0 0 225 0 0 225 0 0 225 0 0 225 0 0 225 0 0 225 0 0 225 0 0 225 0 0 225 0 0 225 0 0 225 0 0 225 0 0 225 0 0 225 0 0 225 0 0 225 0 0 225 0 0 225 0 0 225 0 0 225 0 0 225 0 0 225 0 0 225 0 0 225 0 0 225 0 0 225 0 0 225 0 0 225 0 0 225 0 0 99 99 99 0 0 0 0 0 0 0 0 0 0 0 0 0 0 0 0 0 0 0 0 0 0 0 0 0 0 0 0 0 0 0 0 0 0 0 0 0 0 0 0 0 0 
0 0 0 0 0 0 0 0 0 0 0 0 0 0 0 0 0 0 0 0 0 0 0 0 0 0 0 0 0 0 0 0 0 0 0 0 0 0 0 0 0 0 99 99 99 225 0 0 225 0 0 225 0 0 225 0 0 225 0 0 225 0 0 225 0 0 225 0 0 225 0 0 225 0 0 225 0 0 225 0 0 225 0 0 225 0 0 225 0 0 223 148 0 223 148 0 223 148 0 223 148 0 223 148 0 223 148 0 223 148 0 225 0 0 225 0 0 225 0 0 225 0 0 225 0 0 225 0 0 225 0 0 225 0 0 225 0 0 225 0 0 225 0 0 225 0 0 99 99 99 0 0 0 0 0 0 0 0 0 0 0 0 0 0 0 0 0 0 0 0 0 0 0 0 0 0 0 0 0 0 0 0 0 0 0 0 0 0 0 0 0 0 
0 0 0 0 0 0 0 0 0 0 0 0 0 0 0 0 0 0 0 0 0 0 0 0 0 0 0 0 0 0 0 0 0 0 0 0 0 0 0 99 99 99 99 99 99 225 0 0 225 0 0 225 0 0 225 0 0 225 0 0 225 0 0 225 0 0 225 0 0 225 0 0 225 0 0 225 0 0 225 0 0 225 0 0 223 148 0 223 148 0 225 0 0 225 0 0 225 0 0 225 0 0 225 0 0 225 0 0 225 0 0 225 0 0 225 0 0 225 0 0 225 0 0 225 0 0 225 0 0 225 0 0 225 0 0 225 0 0 225 0 0 225 0 0 225 0 0 99 99 99 99 99 99 0 0 0 0 0 0 0 0 0 0 0 0 0 0 0 0 0 0 0 0 0 0 0 0 0 0 0 0 0 0 0 0 0 0 0 0 0 0 0 
0 0 0 0 0 0 0 0 0 0 0 0 0 0 0 0 0 0 0 0 0 0 0 0 0 0 0 0 0 0 0 0 0 0 0 0 0 0 0 99 99 99 225 0 0 225 0 0 225 0 0 225 0 0 225 0 0 225 0 0 225 0 0 225 0 0 225 0 0 225 0 0 225 0 0 225 0 0 223 148 0 223 148 0 225 0 0 225 0 0 225 0 0 225 0 0 225 0 0 225 0 0 225 0 0 225 0 0 225 0 0 225 0 0 225 0 0 225 0 0 225 0 0 225 0 0 225 0 0 225 0 0 225 0 0 225 0 0 225 0 0 225 0 0 225 0 0 225 0 0 99 99 99 0 0 0 0 0 0 0 0 0 0 0 0 0 0 0 0 0 0 0 0 0 0 0 0 0 0 0 0 0 0 0 0 0 0 0 0 0 0 0 
0 0 0 0 0 0 0 0 0 0 0 0 0 0 0 0 0 0 0 0 0 0 0 0 0 0 0 0 0 0 0 0 0 0 0 0 99 99 99 99 99 99 225 0 0 225 0 0 225 0 0 225 0 0 225 0 0 225 0 0 225 0 0 225 0 0 225 0 0 225 0 0 225 0 0 225 0 0 223 148 0 225 0 0 225 0 0 225 0 0 225 0 0 225 0 0 225 0 0 225 0 0 225 0 0 225 0 0 225 0 0 225 0 0 225 0 0 225 0 0 225 0 0 225 0 0 225 0 0 225 0 0 225 0 0 225 0 0 225 0 0 225 0 0 225 0 0 225 0 0 99 99 99 99 99 99 0 0 0 0 0 0 0 0 0 0 0 0 0 0 0 0 0 0 0 0 0 0 0 0 0 0 0 0 0 0 0 0 0 0 0 0 
0 0 0 0 0 0 0 0 0 0 0 0 0 0 0 0 0 0 0 0 0 0 0 0 0 0 0 0 0 0 99 99 99 99 99 99 99 99 99 225 0 0 225 0 0 225 0 0 225 0 0 225 0 0 225 0 0 225 0 0 225 0 0 225 0 0 225 0 0 225 0 0 225 0 0 223 148 0 225 0 0 225 0 0 225 0 0 225 0 0 225 0 0 225 0 0 225 0 0 225 0 0 225 0 0 225 0 0 225 0 0 225 0 0 225 0 0 225 0 0 225 0 0 225 0 0 225 0 0 225 0 0 225 0 0 225 0 0 225 0 0 225 0 0 225 0 0 225 0 0 225 0 0 99 99 99 99 99 99 99 99 99 0 0 0 0 0 0 0 0 0 0 0 0 0 0 0 0 0 0 0 0 0 0 0 0 0 0 0 0 0 0 
0 0 0 0 0 0 0 0 0 0 0 0 0 0 0 0 0 0 0 0 0 0 0 0 0 0 0 99 99 99 99 99 99 225 0 0 225 0 0 225 0 0 225 0 0 225 0 0 225 0 0 225 0 0 99 99 99 99 99 99 99 99 99 150 0 0 225 0 0 225 0 0 223 148 0 225 0 0 225 0 0 225 0 0 225 0 0 225 0 0 225 0 0 225 0 0 225 0 0 225 0 0 225 0 0 225 0 0 225 0 0 225 0 0 225 0 0 225 0 0 225 0 0 225 0 0 150 0 0 99 99 99 99 99 99 99 99 99 225 0 0 225 0 0 225 0 0 225 0 0 225 0 0 225 0 0 225 0 0 99 99 99 99 99 99 0 0 0 0 0 0 0 0 0 0 0 0 0 0 0 0 0 0 0 0 0 0 0 0 0 0 0 
0 0 0 0 0 0 0 0 0 0 0 0 0 0 0 0 0 0 0 0 0 99 99 99 99 99 99 99 99 99 225 0 0 225 0 0 225 0 0 225 0 0 225 0 0 225 0 0 225 0 0 225 0 0 99 99 99 0 0 0 99 99 99 150 0 0 225 0 0 223 148 0 225 0 0 225 0 0 225 0 0 225 0 0 223 148 0 223 148 0 223 148 0 223 148 0 223 148 0 223 148 0 223 148 0 223 148 0 223 148 0 223 148 0 223 148 0 225 0 0 225 0 0 225 0 0 150 0 0 99 99 99 0 0 0 99 99 99 225 0 0 225 0 0 225 0 0 225 0 0 225 0 0 225 0 0 225 0 0 225 0 0 99 99 99 99 99 99 99 99 99 0 0 0 0 0 0 0 0 0 0 0 0 0 0 0 0 0 0 0 0 0 
0 0 0 0 0 0 0 0 0 0 0 0 0 0 0 0 0 0 0 0 0 99 99 99 225 0 0 225 0 0 225 0 0 225 0 0 225 0 0 225 0 0 225 0 0 225 0 0 225 0 0 99 99 99 99 99 99 0 0 0 99 99 99 150 0 0 225 0 0 223 148 0 225 0 0 225 0 0 225 0 0 225 0 0 223 148 0 225 0 0 225 0 0 225 0 0 225 0 0 225 0 0 225 0 0 225 0 0 225 0 0 225 0 0 225 0 0 223 148 0 225 0 0 225 0 0 150 0 0 99 99 99 0 0 0 99 99 99 99 99 99 225 0 0 225 0 0 225 0 0 225 0 0 225 0 0 225 0 0 225 0 0 225 0 0 225 0 0 99 99 99 0 0 0 0 0 0 0 0 0 0 0 0 0 0 0 0 0 0 0 0 0 
0 0 0 0 0 0 0 0 0 0 0 0 0 0 0 0 0 0 0 0 0 99 99 99 225 0 0 225 0 0 225 0 0 225 0 0 225 0 0 225 0 0 225 0 0 225 0 0 99 99 99 99 99 99 0 0 0 0 0 0 99 99 99 150 0 0 225 0 0 223 148 0 225 0 0 225 0 0 225 0 0 225 0 0 223 148 0 225 0 0 225 0 0 225 0 0 225 0 0 223 148 0 223 148 0 225 0 0 225 0 0 225 0 0 225 0 0 225 0 0 223 148 0 225 0 0 150 0 0 99 99 99 0 0 0 0 0 0 99 99 99 99 99 99 225 0 0 225 0 0 225 0 0 225 0 0 225 0 0 225 0 0 225 0 0 225 0 0 99 99 99 0 0 0 0 0 0 0 0 0 0 0 0 0 0 0 0 0 0 0 0 0 
0 0 0 0 0 0 0 0 0 0 0 0 0 0 0 0 0 0 0 0 0 99 99 99 225 0 0 225 0 0 225 0 0 225 0 0 225 0 0 225 0 0 225 0 0 225 0 0 99 99 99 0 0 0 0 0 0 0 0 0 99 99 99 150 0 0 225 0 0 223 148 0 225 0 0 225 0 0 225 0 0 225 0 0 223 148 0 225 0 0 225 0 0 225 0 0 225 0 0 225 0 0 223 148 0 223 148 0 225 0 0 225 0 0 225 0 0 225 0 0 223 148 0 225 0 0 150 0 0 99 99 99 0 0 0 0 0 0 0 0 0 99 99 99 225 0 0 225 0 0 225 0 0 225 0 0 225 0 0 225 0 0 225 0 0 225 0 0 99 99 99 0 0 0 0 0 0 0 0 0 0 0 0 0 0 0 0 0 0 0 0 0 
0 0 0 0 0 0 0 0 0 0 0 0 0 0 0 0 0 0 99 99 99 99 99 99 225 0 0 225 0 0 225 0 0 225 0 0 225 0 0 225 0 0 150 0 0 99 99 99 99 99 99 0 0 0 0 0 0 99 99 99 99 99 99 150 0 0 225 0 0 223 148 0 225 0 0 225 0 0 225 0 0 225 0 0 223 148 0 223 148 0 225 0 0 225 0 0 225 0 0 225 0 0 223 148 0 223 148 0 225 0 0 225 0 0 225 0 0 225 0 0 223 148 0 225 0 0 150 0 0 99 99 99 99 99 99 0 0 0 0 0 0 99 99 99 99 99 99 225 0 0 225 0 0 225 0 0 225 0 0 225 0 0 225 0 0 225 0 0 99 99 99 99 99 99 0 0 0 0 0 0 0 0 0 0 0 0 0 0 0 0 0 0 
0 0 0 0 0 0 0 0 0 0 0 0 0 0 0 0 0 0 99 99 99 150 0 0 225 0 0 225 0 0 225 0 0 225 0 0 225 0 0 225 0 0 150 0 0 99 99 99 0 0 0 0 0 0 0 0 0 99 99 99 150 0 0 225 0 0 225 0 0 223 148 0 225 0 0 225 0 0 225 0 0 225 0 0 225 0 0 223 148 0 223 148 0 223 148 0 223 148 0 223 148 0 223 148 0 225 0 0 225 0 0 225 0 0 225 0 0 225 0 0 223 148 0 225 0 0 225 0 0 150 0 0 99 99 99 0 0 0 0 0 0 0 0 0 99 99 99 150 0 0 225 0 0 225 0 0 225 0 0 225 0 0 225 0 0 225 0 0 150 0 0 99 99 99 0 0 0 0 0 0 0 0 0 0 0 0 0 0 0 0 0 0 
0 0 0 0 0 0 0 0 0 0 0 0 0 0 0 0 0 0 99 99 99 150 0 0 225 0 0 225 0 0 225 0 0 225 0 0 225 0 0 225 0 0 150 0 0 99 99 99 0 0 0 0 0 0 0 0 0 99 99 99 150 0 0 225 0 0 225 0 0 223 148 0 223 148 0 225 0 0 225 0 0 225 0 0 225 0 0 225 0 0 225 0 0 225 0 0 225 0 0 225 0 0 225 0 0 225 0 0 225 0 0 225 0 0 225 0 0 225 0 0 223 148 0 225 0 0 225 0 0 150 0 0 99 99 99 0 0 0 0 0 0 0 0 0 99 99 99 150 0 0 225 0 0 225 0 0 225 0 0 225 0 0 225 0 0 225 0 0 150 0 0 99 99 99 0 0 0 0 0 0 0 0 0 0 0 0 0 0 0 0 0 0 
0 0 0 0 0 0 0 0 0 0 0 0 0 0 0 0 0 0 99 99 99 150 0 0 225 0 0 225 0 0 225 0 0 225 0 0 225 0 0 225 0 0 150 0 0 99 99 99 0 0 0 0 0 0 0 0 0 99 99 99 150 0 0 225 0 0 225 0 0 225 0 0 223 148 0 225 0 0 225 0 0 225 0 0 225 0 0 225 0 0 225 0 0 225 0 0 225 0 0 225 0 0 225 0 0 225 0 0 225 0 0 225 0 0 225 0 0 225 0 0 223 148 0 225 0 0 225 0 0 150 0 0 99 99 99 0 0 0 0 0 0 0 0 0 99 99 99 150 0 0 225 0 0 225 0 0 225 0 0 225 0 0 225 0 0 225 0 0 150 0 0 99 99 99 0 0 0 0 0 0 0 0 0 0 0 0 0 0 0 0 0 0 
0 0 0 0 0 0 0 0 0 0 0 0 0 0 0 0 0 0 99 99 99 150 0 0 225 0 0 225 0 0 225 0 0 225 0 0 225 0 0 225 0 0 150 0 0 99 99 99 0 0 0 0 0 0 0 0 0 99 99 99 150 0 0 225 0 0 225 0 0 225 0 0 223 148 0 223 148 0 225 0 0 225 0 0 225 0 0 225 0 0 225 0 0 225 0 0 225 0 0 225 0 0 225 0 0 225 0 0 225 0 0 225 0 0 225 0 0 223 148 0 223 148 0 225 0 0 225 0 0 150 0 0 99 99 99 0 0 0 0 0 0 0 0 0 99 99 99 150 0 0 225 0 0 225 0 0 225 0 0 225 0 0 225 0 0 225 0 0 150 0 0 99 99 99 0 0 0 0 0 0 0 0 0 0 0 0 0 0 0 0 0 0 
0 0 0 0 0 0 0 0 0 0 0 0 0 0 0 0 0 0 99 99 99 150 0 0 225 0 0 225 0 0 225 0 0 225 0 0 225 0 0 225 0 0 150 0 0 99 99 99 0 0 0 0 0 0 0 0 0 99 99 99 150 0 0 225 0 0 225 0 0 225 0 0 225 0 0 223 148 0 223 148 0 225 0 0 225 0 0 225 0 0 225 0 0 225 0 0 225 0 0 225 0 0 225 0 0 225 0 0 225 0 0 225 0 0 225 0 0 223 148 0 225 0 0 225 0 0 225 0 0 150 0 0 99 99 99 0 0 0 0 0 0 0 0 0 99 99 99 150 0 0 225 0 0 225 0 0 225 0 0 225 0 0 225 0 0 225 0 0 150 0 0 99 99 99 0 0 0 0 0 0 0 0 0 0 0 0 0 0 0 0 0 0 
0 0 0 0 0 0 0 0 0 0 0 0 0 0 0 0 0 0 99 99 99 150 0 0 225 0 0 225 0 0 225 0 0 225 0 0 225 0 0 225 0 0 150 0 0 99 99 99 99 99 99 0 0 0 0 0 0 99 99 99 150 0 0 225 0 0 225 0 0 225 0 0 225 0 0 225 0 0 225 0 0 223 148 0 223 148 0 223 148 0 223 148 0 223 148 0 223 148 0 223 148 0 223 148 0 223 148 0 223 148 0 223 148 0 223 148 0 225 0 0 225 0 0 225 0 0 225 0 0 150 0 0 99 99 99 0 0 0 0 0 0 99 99 99 99 99 99 150 0 0 225 0 0 225 0 0 225 0 0 225 0 0 225 0 0 225 0 0 150 0 0 99 99 99 0 0 0 0 0 0 0 0 0 0 0 0 0 0 0 0 0 0 
0 0 0 0 0 0 0 0 0 0 0 0 0 0 0 0 0 0 99 99 99 99 99 99 150 0 0 225 0 0 225 0 0 225 0 0 225 0 0 225 0 0 150 0 0 150 0 0 99 99 99 0 0 0 0 0 0 99 99 99 99 99 99 150 0 0 225 0 0 225 0 0 225 0 0 225 0 0 225 0 0 225 0 0 225 0 0 225 0 0 225 0 0 225 0 0 225 0 0 225 0 0 225 0 0 225 0 0 225 0 0 225 0 0 225 0 0 225 0 0 225 0 0 225 0 0 150 0 0 99 99 99 99 99 99 0 0 0 0 0 0 99 99 99 150 0 0 150 0 0 225 0 0 225 0 0 225 0 0 225 0 0 225 0 0 150 0 0 99 99 99 99 99 99 0 0 0 0 0 0 0 0 0 0 0 0 0 0 0 0 0 0 
0 0 0 0 0 0 0 0 0 0 0 0 0 0 0 0 0 0 0 0 0 99 99 99 150 0 0 225 0 0 225 0 0 150 0 0 150 0 0 150 0 0 150 0 0 99 99 99 99 99 99 0 0 0 0 0 0 0 0 0 99 99 99 150 0 0 225 0 0 225 0 0 225 0 0 225 0 0 225 0 0 225 0 0 225 0 0 225 0 0 225 0 0 225 0 0 225 0 0 225 0 0 225 0 0 225 0 0 225 0 0 225 0 0 225 0 0 225 0 0 225 0 0 225 0 0 150 0 0 99 99 99 0 0 0 0 0 0 0 0 0 99 99 99 99 99 99 150 0 0 150 0 0 150 0 0 150 0 0 225 0 0 225 0 0 150 0 0 99 99 99 0 0 0 0 0 0 0 0 0 0 0 0 0 0 0 0 0 0 0 0 0 
0 0 0 0 0 0 0 0 0 0 0 0 0 0 0 0 0 0 0 0 0 99 99 99 99 99 99 150 0 0 150 0 0 99 99 99 99 99 99 99 99 99 99 99 99 99 99 99 0 0 0 0 0 0 0 0 0 0 0 0 99 99 99 150 0 0 225 0 0 225 0 0 225 0 0 225 0 0 225 0 0 225 0 0 225 0 0 225 0 0 225 0 0 225 0 0 225 0 0 225 0 0 225 0 0 225 0 0 225 0 0 225 0 0 225 0 0 225 0 0 225 0 0 225 0 0 150 0 0 99 99 99 0 0 0 0 0 0 0 0 0 0 0 0 99 99 99 99 99 99 99 99 99 99 99 99 99 99 99 150 0 0 150 0 0 99 99 99 99 99 99 0 0 0 0 0 0 0 0 0 0 0 0 0 0 0 0 0 0 0 0 0 
0 0 0 0 0 0 0 0 0 0 0 0 0 0 0 0 0 0 0 0 0 0 0 0 99 99 99 99 99 99 99 99 99 99 99 99 0 0 0 0 0 0 0 0 0 0 0 0 0 0 0 0 0 0 0 0 0 0 0 0 99 99 99 150 0 0 225 0 0 225 0 0 225 0 0 225 0 0 225 0 0 225 0 0 225 0 0 225 0 0 99 99 99 99 99 99 99 99 99 99 99 99 225 0 0 225 0 0 225 0 0 225 0 0 225 0 0 225 0 0 225 0 0 225 0 0 150 0 0 99 99 99 0 0 0 0 0 0 0 0 0 0 0 0 0 0 0 0 0 0 0 0 0 0 0 0 99 99 99 99 99 99 99 99 99 99 99 99 0 0 0 0 0 0 0 0 0 0 0 0 0 0 0 0 0 0 0 0 0 0 0 0 
0 0 0 0 0 0 0 0 0 0 0 0 0 0 0 0 0 0 0 0 0 0 0 0 0 0 0 99 99 99 99 99 99 0 0 0 0 0 0 0 0 0 0 0 0 0 0 0 0 0 0 0 0 0 0 0 0 0 0 0 99 99 99 150 0 0 225 0 0 225 0 0 225 0 0 225 0 0 225 0 0 225 0 0 225 0 0 225 0 0 99 99 99 0 0 0 0 0 0 99 99 99 225 0 0 225 0 0 225 0 0 225 0 0 225 0 0 225 0 0 225 0 0 225 0 0 150 0 0 99 99 99 0 0 0 0 0 0 0 0 0 0 0 0 0 0 0 0 0 0 0 0 0 0 0 0 0 0 0 99 99 99 99 99 99 0 0 0 0 0 0 0 0 0 0 0 0 0 0 0 0 0 0 0 0 0 0 0 0 0 0 0 
0 0 0 0 0 0 0 0 0 0 0 0 0 0 0 0 0 0 0 0 0 0 0 0 0 0 0 0 0 0 0 0 0 0 0 0 0 0 0 0 0 0 0 0 0 0 0 0 0 0 0 0 0 0 0 0 0 0 0 0 99 99 99 150 0 0 225 0 0 225 0 0 225 0 0 225 0 0 225 0 0 225 0 0 225 0 0 225 0 0 99 99 99 0 0 0 0 0 0 99 99 99 225 0 0 225 0 0 225 0 0 225 0 0 225 0 0 225 0 0 225 0 0 225 0 0 150 0 0 99 99 99 0 0 0 0 0 0 0 0 0 0 0 0 0 0 0 0 0 0 0 0 0 0 0 0 0 0 0 0 0 0 0 0 0 0 0 0 0 0 0 0 0 0 0 0 0 0 0 0 0 0 0 0 0 0 0 0 0 0 0 0 
0 0 0 0 0 0 0 0 0 0 0 0 0 0 0 0 0 0 0 0 0 0 0 0 0 0 0 0 0 0 0 0 0 0 0 0 0 0 0 0 0 0 0 0 0 0 0 0 0 0 0 0 0 0 0 0 0 0 0 0 99 99 99 150 0 0 225 0 0 225 0 0 225 0 0 225 0 0 225 0 0 225 0 0 225 0 0 225 0 0 99 99 99 0 0 0 0 0 0 99 99 99 225 0 0 225 0 0 225 0 0 225 0 0 225 0 0 225 0 0 225 0 0 225 0 0 150 0 0 99 99 99 0 0 0 0 0 0 0 0 0 0 0 0 0 0 0 0 0 0 0 0 0 0 0 0 0 0 0 0 0 0 0 0 0 0 0 0 0 0 0 0 0 0 0 0 0 0 0 0 0 0 0 0 0 0 0 0 0 0 0 0 
0 0 0 0 0 0 0 0 0 0 0 0 0 0 0 0 0 0 0 0 0 0 0 0 0 0 0 0 0 0 0 0 0 0 0 0 0 0 0 0 0 0 0 0 0 0 0 0 0 0 0 0 0 0 0 0 0 0 0 0 99 99 99 150 0 0 225 0 0 225 0 0 225 0 0 225 0 0 225 0 0 225 0 0 225 0 0 225 0 0 99 99 99 0 0 0 0 0 0 99 99 99 225 0 0 225 0 0 225 0 0 225 0 0 225 0 0 225 0 0 225 0 0 225 0 0 150 0 0 99 99 99 0 0 0 0 0 0 0 0 0 0 0 0 0 0 0 0 0 0 0 0 0 0 0 0 0 0 0 0 0 0 0 0 0 0 0 0 0 0 0 0 0 0 0 0 0 0 0 0 0 0 0 0 0 0 0 0 0 0 0 0 
0 0 0 0 0 0 0 0 0 0 0 0 0 0 0 0 0 0 0 0 0 0 0 0 0 0 0 0 0 0 0 0 0 0 0 0 0 0 0 0 0 0 0 0 0 0 0 0 0 0 0 0 0 0 0 0 0 0 0 0 99 99 99 150 0 0 225 0 0 225 0 0 225 0 0 225 0 0 225 0 0 225 0 0 225 0 0 225 0 0 99 99 99 0 0 0 0 0 0 99 99 99 225 0 0 225 0 0 225 0 0 225 0 0 225 0 0 225 0 0 225 0 0 225 0 0 150 0 0 99 99 99 0 0 0 0 0 0 0 0 0 0 0 0 0 0 0 0 0 0 0 0 0 0 0 0 0 0 0 0 0 0 0 0 0 0 0 0 0 0 0 0 0 0 0 0 0 0 0 0 0 0 0 0 0 0 0 0 0 0 0 0 
0 0 0 0 0 0 0 0 0 0 0 0 0 0 0 0 0 0 0 0 0 0 0 0 0 0 0 0 0 0 0 0 0 0 0 0 0 0 0 0 0 0 0 0 0 0 0 0 0 0 0 0 0 0 0 0 0 0 0 0 99 99 99 150 0 0 225 0 0 225 0 0 225 0 0 225 0 0 225 0 0 225 0 0 225 0 0 225 0 0 99 99 99 0 0 0 0 0 0 99 99 99 225 0 0 225 0 0 225 0 0 225 0 0 225 0 0 225 0 0 225 0 0 225 0 0 150 0 0 99 99 99 0 0 0 0 0 0 0 0 0 0 0 0 0 0 0 0 0 0 0 0 0 0 0 0 0 0 0 0 0 0 0 0 0 0 0 0 0 0 0 0 0 0 0 0 0 0 0 0 0 0 0 0 0 0 0 0 0 0 0 0 
0 0 0 0 0 0 0 0 0 0 0 0 0 0 0 0 0 0 0 0 0 0 0 0 0 0 0 0 0 0 0 0 0 0 0 0 0 0 0 0 0 0 0 0 0 0 0 0 0 0 0 0 0 0 0 0 0 0 0 0 99 99 99 150 0 0 225 0 0 225 0 0 225 0 0 225 0 0 225 0 0 225 0 0 225 0 0 225 0 0 99 99 99 0 0 0 0 0 0 99 99 99 225 0 0 225 0 0 225 0 0 225 0 0 225 0 0 225 0 0 225 0 0 225 0 0 150 0 0 99 99 99 0 0 0 0 0 0 0 0 0 0 0 0 0 0 0 0 0 0 0 0 0 0 0 0 0 0 0 0 0 0 0 0 0 0 0 0 0 0 0 0 0 0 0 0 0 0 0 0 0 0 0 0 0 0 0 0 0 0 0 0 
0 0 0 0 0 0 0 0 0 0 0 0 0 0 0 0 0 0 0 0 0 0 0 0 0 0 0 0 0 0 0 0 0 0 0 0 0 0 0 0 0 0 0 0 0 0 0 0 0 0 0 0 0 0 0 0 0 99 99 99 99 99 99 150 0 0 225 0 0 225 0 0 225 0 0 225 0 0 225 0 0 225 0 0 225 0 0 225 0 0 99 99 99 0 0 0 0 0 0 99 99 99 225 0 0 225 0 0 225 0 0 225 0 0 225 0 0 225 0 0 225 0 0 225 0 0 150 0 0 99 99 99 99 99 99 0 0 0 0 0 0 0 0 0 0 0 0 0 0 0 0 0 0 0 0 0 0 0 0 0 0 0 0 0 0 0 0 0 0 0 0 0 0 0 0 0 0 0 0 0 0 0 0 0 0 0 0 0 0 0 0 0 
0 0 0 0 0 0 0 0 0 0 0 0 0 0 0 0 0 0 0 0 0 0 0 0 0 0 0 0 0 0 0 0 0 0 0 0 0 0 0 0 0 0 0 0 0 0 0 0 0 0 0 0 0 0 99 99 99 99 99 99 150 0 0 225 0 0 225 0 0 225 0 0 225 0 0 225 0 0 225 0 0 225 0 0 225 0 0 150 0 0 99 99 99 0 0 0 0 0 0 99 99 99 150 0 0 225 0 0 225 0 0 225 0 0 225 0 0 225 0 0 225 0 0 225 0 0 225 0 0 150 0 0 99 99 99 99 99 99 0 0 0 0 0 0 0 0 0 0 0 0 0 0 0 0 0 0 0 0 0 0 0 0 0 0 0 0 0 0 0 0 0 0 0 0 0 0 0 0 0 0 0 0 0 0 0 0 0 0 0 0 0 0 
0 0 0 0 0 0 0 0 0 0 0 0 0 0 0 0 0 0 0 0 0 0 0 0 0 0 0 0 0 0 0 0 0 0 0 0 0 0 0 0 0 0 0 0 0 0 0 0 0 0 0 0 0 0 99 99 99 150 0 0 150 0 0 225 0 0 225 0 0 225 0 0 225 0 0 225 0 0 225 0 0 225 0 0 225 0 0 150 0 0 99 99 99 0 0 0 0 0 0 99 99 99 150 0 0 225 0 0 225 0 0 225 0 0 225 0 0 225 0 0 225 0 0 225 0 0 225 0 0 150 0 0 150 0 0 99 99 99 0 0 0 0 0 0 0 0 0 0 0 0 0 0 0 0 0 0 0 0 0 0 0 0 0 0 0 0 0 0 0 0 0 0 0 0 0 0 0 0 0 0 0 0 0 0 0 0 0 0 0 0 0 0 
0 0 0 0 0 0 0 0 0 0 0 0 0 0 0 0 0 0 0 0 0 0 0 0 0 0 0 0 0 0 0 0 0 0 0 0 0 0 0 0 0 0 0 0 0 0 0 0 99 99 99 99 99 99 99 99 99 150 0 0 225 0 0 225 0 0 225 0 0 225 0 0 225 0 0 225 0 0 225 0 0 225 0 0 225 0 0 150 0 0 99 99 99 0 0 0 0 0 0 99 99 99 150 0 0 225 0 0 225 0 0 225 0 0 225 0 0 225 0 0 225 0 0 225 0 0 225 0 0 225 0 0 150 0 0 99 99 99 99 99 99 99 99 99 0 0 0 0 0 0 0 0 0 0 0 0 0 0 0 0 0 0 0 0 0 0 0 0 0 0 0 0 0 0 0 0 0 0 0 0 0 0 0 0 0 0 0 0 0 0 0 0 
0 0 0 0 0 0 0 0 0 0 0 0 0 0 0 0 0 0 0 0 0 0 0 0 0 0 0 0 0 0 0 0 0 0 0 0 0 0 0 0 0 0 0 0 0 99 99 99 99 99 99 150 0 0 150 0 0 150 0 0 225 0 0 225 0 0 225 0 0 225 0 0 225 0 0 225 0 0 225 0 0 225 0 0 225 0 0 150 0 0 99 99 99 0 0 0 0 0 0 99 99 99 150 0 0 225 0 0 225 0 0 225 0 0 225 0 0 225 0 0 225 0 0 225 0 0 225 0 0 225 0 0 150 0 0 150 0 0 150 0 0 99 99 99 99 99 99 0 0 0 0 0 0 0 0 0 0 0 0 0 0 0 0 0 0 0 0 0 0 0 0 0 0 0 0 0 0 0 0 0 0 0 0 0 0 0 0 0 0 0 0 0 
0 0 0 0 0 0 0 0 0 0 0 0 0 0 0 0 0 0 0 0 0 0 0 0 0 0 0 0 0 0 0 0 0 0 0 0 0 0 0 0 0 0 99 99 99 99 99 99 150 0 0 150 0 0 225 0 0 225 0 0 225 0 0 225 0 0 225 0 0 225 0 0 225 0 0 225 0 0 225 0 0 225 0 0 225 0 0 150 0 0 99 99 99 0 0 0 0 0 0 99 99 99 150 0 0 225 0 0 225 0 0 225 0 0 225 0 0 225 0 0 225 0 0 225 0 0 225 0 0 225 0 0 225 0 0 225 0 0 150 0 0 150 0 0 99 99 99 99 99 99 0 0 0 0 0 0 0 0 0 0 0 0 0 0 0 0 0 0 0 0 0 0 0 0 0 0 0 0 0 0 0 0 0 0 0 0 0 0 0 0 0 0 
0 0 0 0 0 0 0 0 0 0 0 0 0 0 0 0 0 0 0 0 0 0 0 0 0 0 0 0 0 0 0 0 0 0 0 0 0 0 0 0 0 0 99 99 99 150 0 0 150 0 0 225 0 0 225 0 0 225 0 0 225 0 0 225 0 0 225 0 0 225 0 0 225 0 0 225 0 0 225 0 0 225 0 0 225 0 0 150 0 0 99 99 99 0 0 0 0 0 0 99 99 99 150 0 0 225 0 0 225 0 0 225 0 0 225 0 0 225 0 0 225 0 0 225 0 0 225 0 0 225 0 0 225 0 0 225 0 0 225 0 0 150 0 0 150 0 0 99 99 99 0 0 0 0 0 0 0 0 0 0 0 0 0 0 0 0 0 0 0 0 0 0 0 0 0 0 0 0 0 0 0 0 0 0 0 0 0 0 0 0 0 0 
0 0 0 0 0 0 0 0 0 0 0 0 0 0 0 0 0 0 0 0 0 0 0 0 0 0 0 0 0 0 0 0 0 0 0 0 0 0 0 0 0 0 99 99 99 150 0 0 150 0 0 150 0 0 150 0 0 150 0 0 150 0 0 150 0 0 150 0 0 150 0 0 150 0 0 150 0 0 150 0 0 150 0 0 150 0 0 150 0 0 99 99 99 0 0 0 0 0 0 99 99 99 150 0 0 150 0 0 150 0 0 150 0 0 150 0 0 150 0 0 150 0 0 150 0 0 150 0 0 150 0 0 150 0 0 150 0 0 150 0 0 150 0 0 150 0 0 99 99 99 0 0 0 0 0 0 0 0 0 0 0 0 0 0 0 0 0 0 0 0 0 0 0 0 0 0 0 0 0 0 0 0 0 0 0 0 0 0 0 0 0 0 
0 0 0 0 0 0 0 0 0 0 0 0 0 0 0 0 0 0 0 0 0 0 0 0 0 0 0 0 0 0 0 0 0 0 0 0 0 0 0 0 0 0 99 99 99 99 99 99 99 99 99 99 99 99 99 99 99 99 99 99 99 99 99 99 99 99 99 99 99 99 99 99 99 99 99 99 99 99 99 99 99 99 99 99 99 99 99 99 99 99 99 99 99 0 0 0 0 0 0 99 99 99 99 99 99 99 99 99 99 99 99 99 99 99 99 99 99 99 99 99 99 99 99 99 99 99 99 99 99 99 99 99 99 99 99 99 99 99 99 99 99 99 99 99 99 99 99 99 99 99 0 0 0 0 0 0 0 0 0 0 0 0 0 0 0 0 0 0 0 0 0 0 0 0 0 0 0 0 0 0 0 0 0 0 0 0 0 0 0 0 0 0 
