P3
64 64
255
103 36 26 103 36 26 103 36 26 103 36 26 103 36 26 103 36 26 103 36 26 103 36 26 103 36 26 103 36 26 103 36 26 103 36 26 103 36 26 103 36 26 103 36 26 103 36 26 103 36 26 103 36 26 103 36 26 103 36 26 103 36 26 103 36 26 103 36 26 103 36 26 103 36 26 103 36 26 103 36 26 103 36 26 103 36 26 103 36 26 103 36 26 103 36 26 103 36 26 103 36 26 103 36 26 103 36 26 103 36 26 103 36 26 103 36 26 103 36 26 103 36 26 103 36 26 103 36 26 103 36 26 103 36 26 103 36 26 103 36 26 103 36 26 103 36 26 103 36 26 103 36 26 103 36 26 103 36 26 103 36 26 103 36 26 103 36 26 103 36 26 103 36 26 103 36 26 103 36 26 103 36 26 103 36 26 103 36 26 103 36 26 
103 36 26 103 36 26 103 36 26 103 36 26 103 36 26 103 36 26 103 36 26 103 36 26 103 36 26 103 36 26 103 36 26 103 36 26 103 36 26 103 36 26 103 36 26 103 36 26 103 36 26 103 36 26 103 36 26 103 36 26 103 36 26 103 36 26 103 36 26 103 36 26 103 36 26 103 36 26 103 36 26 103 36 26 103 36 26 103 36 26 103 36 26 103 36 26 103 36 26 103 36 26 103 36 26 103 36 26 103 36 26 103 36 26 103 36 26 103 36 26 103 36 26 103 36 26 103 36 26 103 36 26 103 36 26 103 36 26 103 36 26 103 36 26 103 36 26 103 36 26 103 36 26 103 36 26 103 36 26 103 36 26 103 36 26 103 36 26 103 36 26 103 36 26 103 36 26 103 36 26 103 36 26 103 36 26 103 36 26 103 36 26 
131 48 35 131 48 35 131 48 35 131 48 35 131 48 35 131 48 35 131 48 35 103 36 26 103 36 26 103 36 26 103 36 26 103 36 26 103 36 26 103 36 26 103 36 26 103 36 26 103 36 26 103 36 26 103 36 26 103 36 26 103 36 26 131 48 35 131 48 35 131 48 35 131 48 35 131 48 35 131 48 35 131 48 35 131 48 35 131 48 35 131 48 35 131 48 35 131 48 35 131 48 35 131 48 35 131 48 35 131 48 35 131 48 35 131 48 35 131 48 35 131 48 35 131 48 35 131 48 35 103 36 26 103 36 26 103 36 26 103 36 26 103 36 26 103 36 26 103 36 26 103 36 26 103 36 26 103 36 26 103 36 26 103 36 26 103 36 26 103 36 26 131 48 35 131 48 35 131 48 35 131 48 35 131 48 35 131 48 35 131 48 35 
131 48 35 131 48 35 131 48 35 131 48 35 131 48 35 131 48 35 131 48 35 131 48 35 131 48 35 103 36 26 103 36 26 103 36 26 103 36 26 103 36 26 103 36 26 103 36 26 103 36 26 103 36 26 103 36 26 131 48 35 131 48 35 131 48 35 131 48 35 131 48 35 131 48 35 131 48 35 131 48 35 131 48 35 131 48 35 131 48 35 131 48 35 131 48 35 131 48 35 131 48 35 131 48 35 131 48 35 131 48 35 131 48 35 131 48 35 131 48 35 131 48 35 131 48 35 131 48 35 131 48 35 131 48 35 103 36 26 103 36 26 103 36 26 103 36 26 103 36 26 103 36 26 103 36 26 103 36 26 103 36 26 103 36 26 131 48 35 131 48 35 131 48 35 131 48 35 131 48 35 131 48 35 131 48 35 131 48 35 131 48 35 
131 48 35 131 48 35 131 48 35 131 48 35 131 48 35 131 48 35 131 48 35 131 48 35 131 48 35 131 48 35 131 48 35 131 48 35 131 48 35 131 48 35 131 48 35 131 48 35 131 48 35 131 48 35 131 48 35 131 48 35 131 48 35 131 48 35 131 48 35 131 48 35 131 48 35 131 48 35 131 48 35 131 48 35 131 48 35 131 48 35 131 48 35 131 48 35 131 48 35 131 48 35 131 48 35 131 48 35 131 48 35 131 48 35 131 48 35 131 48 35 131 48 35 131 48 35 131 48 35 131 48 35 131 48 35 131 48 35 131 48 35 131 48 35 131 48 35 131 48 35 131 48 35 131 48 35 131 48 35 131 48 35 131 48 35 131 48 35 131 48 35 131 48 35 131 48 35 131 48 35 131 48 35 131 48 35 131 48 35 131 48 35 
131 48 35 131 48 35 131 48 35 131 48 35 131 48 35 131 48 35 131 48 35 131 48 35 131 48 35 131 48 35 131 48 35 131 48 35 131 48 35 131 48 35 131 48 35 131 48 35 131 48 35 131 48 35 131 48 35 131 48 35 131 48 35 131 48 35 131 48 35 131 48 35 131 48 35 131 48 35 131 48 35 131 48 35 131 48 35 131 48 35 131 48 35 131 48 35 131 48 35 131 48 35 131 48 35 131 48 35 131 48 35 131 48 35 131 48 35 131 48 35 131 48 35 131 48 35 131 48 35 131 48 35 131 48 35 131 48 35 131 48 35 131 48 35 131 48 35 131 48 35 131 48 35 131 48 35 131 48 35 131 48 35 131 48 35 131 48 35 131 48 35 131 48 35 131 48 35 131 48 35 131 48 35 131 48 35 131 48 35 131 48 35 
131 48 35 131 48 35 131 48 35 131 48 35 131 48 35 131 48 35 131 48 35 131 48 35 131 48 35 131 48 35 131 48 35 131 48 35 131 48 35 131 48 35 131 48 35 131 48 35 131 48 35 131 48 35 131 48 35 131 48 35 131 48 35 131 48 35 131 48 35 131 48 35 131 48 35 131 48 35 131 48 35 131 48 35 131 48 35 131 48 35 131 48 35 131 48 35 131 48 35 131 48 35 131 48 35 131 48 35 131 48 35 131 48 35 131 48 35 131 48 35 131 48 35 131 48 35 131 48 35 131 48 35 131 48 35 131 48 35 131 48 35 131 48 35 131 48 35 131 48 35 131 48 35 131 48 35 131 48 35 131 48 35 131 48 35 131 48 35 131 48 35 131 48 35 131 48 35 131 48 35 131 48 35 131 48 35 131 48 35 131 48 35 
131 48 35 131 48 35 131 48 35 131 48 35 131 48 35 131 48 35 131 48 35 131 48 35 131 48 35 131 48 35 131 48 35 131 48 35 131 48 35 131 48 35 131 48 35 131 48 35 131 48 35 131 48 35 131 48 35 131 48 35 131 48 35 131 48 35 131 48 35 131 48 35 131 48 35 131 48 35 131 48 35 131 48 35 131 48 35 131 48 35 131 48 35 131 48 35 131 48 35 131 48 35 131 48 35 131 48 35 131 48 35 131 48 35 131 48 35 131 48 35 131 48 35 131 48 35 131 48 35 131 48 35 131 48 35 131 48 35 131 48 35 131 48 35 131 48 35 131 48 35 131 48 35 131 48 35 131 48 35 131 48 35 131 48 35 131 48 35 131 48 35 131 48 35 131 48 35 131 48 35 131 48 35 131 48 35 131 48 35 131 48 35 
131 48 35 131 48 35 131 48 35 131 48 35 131 48 35 131 48 35 131 48 35 131 48 35 131 48 35 131 48 35 131 48 35 131 48 35 131 48 35 131 48 35 131 48 35 131 48 35 131 48 35 131 48 35 131 48 35 131 48 35 131 48 35 131 48 35 131 48 35 131 48 35 131 48 35 131 48 35 131 48 35 131 48 35 131 48 35 131 48 35 131 48 35 131 48 35 131 48 35 131 48 35 131 48 35 131 48 35 131 48 35 131 48 35 131 48 35 131 48 35 131 48 35 131 48 35 131 48 35 131 48 35 131 48 35 131 48 35 131 48 35 131 48 35 131 48 35 131 48 35 131 48 35 131 48 35 131 48 35 131 48 35 131 48 35 131 48 35 131 48 35 131 48 35 131 48 35 131 48 35 131 48 35 131 48 35 131 48 35 131 48 35 
131 48 35 131 48 35 131 48 35 131 48 35 131 48 35 131 48 35 131 48 35 131 48 35 131 48 35 131 48 35 131 48 35 131 48 35 131 48 35 131 48 35 131 48 35 131 48 35 131 48 35 131 48 35 131 48 35 131 48 35 131 48 35 131 48 35 131 48 35 131 48 35 131 48 35 131 48 35 131 48 35 131 48 35 131 48 35 131 48 35 131 48 35 131 48 35 131 48 35 131 48 35 131 48 35 131 48 35 131 48 35 131 48 35 131 48 35 131 48 35 131 48 35 131 48 35 131 48 35 131 48 35 131 48 35 131 48 35 131 48 35 131 48 35 131 48 35 131 48 35 131 48 35 131 48 35 131 48 35 131 48 35 131 48 35 131 48 35 131 48 35 131 48 35 131 48 35 131 48 35 131 48 35 131 48 35 131 48 35 131 48 35 
103 36 26 103 36 26 103 36 26 103 36 26 103 36 26 103 36 26 103 36 26 103 36 26 103 36 26 103 36 26 103 36 26 103 36 26 103 36 26 103 36 26 103 36 26 103 36 26 103 36 26 103 36 26 103 36 26 103 36 26 103 36 26 103 36 26 103 36 26 103 36 26 103 36 26 103 36 26 103 36 26 103 36 26 103 36 26 103 36 26 103 36 26 103 36 26 103 36 26 103 36 26 103 36 26 103 36 26 103 36 26 103 36 26 103 36 26 103 36 26 103 36 26 103 36 26 103 36 26 103 36 26 103 36 26 103 36 26 103 36 26 103 36 26 103 36 26 103 36 26 103 36 26 103 36 26 103 36 26 103 36 26 103 36 26 103 36 26 103 36 26 103 36 26 103 36 26 103 36 26 103 36 26 103 36 26 103 36 26 103 36 26 
131 48 35 131 48 35 131 48 35 131 48 35 131 48 35 131 48 35 131 48 35 131 48 35 131 48 35 131 48 35 131 48 35 131 48 35 131 48 35 131 48 35 131 48 35 131 48 35 131 48 35 131 48 35 131 48 35 131 48 35 131 48 35 131 48 35 131 48 35 131 48 35 131 48 35 131 48 35 131 48 35 131 48 35 131 48 35 131 48 35 131 48 35 131 48 35 131 48 35 131 48 35 131 48 35 131 48 35 131 48 35 131 48 35 131 48 35 131 48 35 131 48 35 131 48 35 131 48 35 131 48 35 131 48 35 131 48 35 131 48 35 131 48 35 131 48 35 131 48 35 131 48 35 131 48 35 131 48 35 131 48 35 131 48 35 131 48 35 131 48 35 131 48 35 131 48 35 131 48 35 131 48 35 131 48 35 131 48 35 131 48 35 
75 29 22 75 29 22 75 29 22 75 29 22 75 29 22 131 48 35 131 48 35 131 48 35 131 48 35 131 48 35 131 48 35 131 48 35 131 48 35 131 48 35 131 48 35 131 48 35 131 48 35 131 48 35 131 48 35 131 48 35 131 48 35 131 48 35 131 48 35 131 48 35 131 48 35 131 48 35 131 48 35 131 48 35 131 48 35 131 48 35 131 48 35 131 48 35 131 48 35 131 48 35 131 48 35 131 48 35 131 48 35 131 48 35 131 48 35 131 48 35 131 48 35 131 48 35 131 48 35 131 48 35 131 48 35 131 48 35 131 48 35 131 48 35 131 48 35 131 48 35 131 48 35 131 48 35 131 48 35 131 48 35 131 48 35 131 48 35 131 48 35 131 48 35 131 48 35 75 29 22 75 29 22 75 29 22 75 29 22 75 29 22 
75 29 22 75 29 22 75 29 22 75 29 22 75 29 22 75 29 22 131 48 35 131 48 35 131 48 35 131 48 35 131 48 35 131 48 35 131 48 35 131 48 35 131 48 35 131 48 35 131 48 35 131 48 35 131 48 35 131 48 35 131 48 35 131 48 35 131 48 35 131 48 35 131 48 35 131 48 35 131 48 35 131 48 35 131 48 35 75 29 22 75 29 22 75 29 22 75 29 22 75 29 22 75 29 22 131 48 35 131 48 35 131 48 35 131 48 35 131 48 35 131 48 35 131 48 35 131 48 35 131 48 35 131 48 35 131 48 35 131 48 35 131 48 35 131 48 35 131 48 35 131 48 35 131 48 35 131 48 35 131 48 35 131 48 35 131 48 35 131 48 35 131 48 35 75 29 22 75 29 22 75 29 22 75 29 22 75 29 22 75 29 22 
75 29 22 75 29 22 75 29 22 75 29 22 75 29 22 75 29 22 75 29 22 131 48 35 131 48 35 131 48 35 131 48 35 131 48 35 131 48 35 131 48 35 131 48 35 131 48 35 131 48 35 131 48 35 131 48 35 131 48 35 131 48 35 131 48 35 131 48 35 131 48 35 131 48 35 131 48 35 131 48 35 75 29 22 75 29 22 75 29 22 75 29 22 75 29 22 75 29 22 75 29 22 75 29 22 75 29 22 75 29 22 131 48 35 131 48 35 131 48 35 131 48 35 131 48 35 131 48 35 131 48 35 131 48 35 131 48 35 131 48 35 131 48 35 131 48 35 131 48 35 131 48 35 131 48 35 131 48 35 131 48 35 131 48 35 131 48 35 131 48 35 75 29 22 75 29 22 75 29 22 75 29 22 75 29 22 75 29 22 75 29 22 
75 29 22 75 29 22 75 29 22 75 29 22 75 29 22 75 29 22 75 29 22 131 48 35 131 48 35 131 48 35 131 48 35 131 48 35 131 48 35 131 48 35 131 48 35 131 48 35 131 48 35 131 48 35 131 48 35 131 48 35 131 48 35 131 48 35 131 48 35 131 48 35 131 48 35 75 29 22 75 29 22 75 29 22 75 29 22 75 29 22 75 29 22 75 29 22 75 29 22 75 29 22 75 29 22 75 29 22 75 29 22 75 29 22 75 29 22 131 48 35 131 48 35 131 48 35 131 48 35 131 48 35 131 48 35 131 48 35 131 48 35 131 48 35 131 48 35 131 48 35 131 48 35 131 48 35 131 48 35 131 48 35 131 48 35 131 48 35 131 48 35 75 29 22 75 29 22 75 29 22 75 29 22 75 29 22 75 29 22 75 29 22 
75 29 22 75 29 22 75 29 22 75 29 22 75 29 22 75 29 22 75 29 22 75 29 22 131 48 35 131 48 35 131 48 35 131 48 35 131 48 35 131 48 35 131 48 35 131 48 35 131 48 35 131 48 35 131 48 35 131 48 35 131 48 35 131 48 35 131 48 35 131 48 35 75 29 22 75 29 22 75 29 22 75 29 22 75 29 22 75 29 22 75 29 22 75 29 22 75 29 22 75 29 22 75 29 22 75 29 22 75 29 22 75 29 22 75 29 22 75 29 22 131 48 35 131 48 35 131 48 35 131 48 35 131 48 35 131 48 35 131 48 35 131 48 35 131 48 35 131 48 35 131 48 35 131 48 35 131 48 35 131 48 35 131 48 35 131 48 35 75 29 22 75 29 22 75 29 22 75 29 22 75 29 22 75 29 22 75 29 22 75 29 22 
75 29 22 75 29 22 75 29 22 75 29 22 75 29 22 75 29 22 75 29 22 75 29 22 131 48 35 131 48 35 131 48 35 131 48 35 131 48 35 131 48 35 131 48 35 131 48 35 131 48 35 131 48 35 131 48 35 131 48 35 131 48 35 131 48 35 131 48 35 75 29 22 75 29 22 75 29 22 75 29 22 75 29 22 75 29 22 75 29 22 75 29 22 75 29 22 75 29 22 75 29 22 75 29 22 75 29 22 75 29 22 75 29 22 75 29 22 75 29 22 75 29 22 131 48 35 131 48 35 131 48 35 131 48 35 131 48 35 131 48 35 131 48 35 131 48 35 131 48 35 131 48 35 131 48 35 131 48 35 131 48 35 131 48 35 131 48 35 75 29 22 75 29 22 75 29 22 75 29 22 75 29 22 75 29 22 75 29 22 75 29 22 
75 29 22 75 29 22 75 29 22 75 29 22 75 29 22 75 29 22 75 29 22 75 29 22 131 48 35 131 48 35 131 48 35 131 48 35 131 48 35 131 48 35 131 48 35 131 48 35 131 48 35 131 48 35 131 48 35 131 48 35 131 48 35 131 48 35 131 48 35 75 29 22 75 29 22 75 29 22 75 29 22 75 29 22 75 29 22 75 29 22 75 29 22 75 29 22 75 29 22 75 29 22 75 29 22 75 29 22 75 29 22 75 29 22 75 29 22 75 29 22 75 29 22 131 48 35 131 48 35 131 48 35 131 48 35 131 48 35 131 48 35 131 48 35 131 48 35 131 48 35 131 48 35 131 48 35 131 48 35 131 48 35 131 48 35 131 48 35 75 29 22 75 29 22 75 29 22 75 29 22 75 29 22 75 29 22 75 29 22 75 29 22 
75 29 22 75 29 22 75 29 22 75 29 22 75 29 22 75 29 22 75 29 22 75 29 22 131 48 35 131 48 35 131 48 35 131 48 35 131 48 35 131 48 35 131 48 35 131 48 35 131 48 35 131 48 35 131 48 35 131 48 35 131 48 35 131 48 35 131 48 35 75 29 22 75 29 22 75 29 22 75 29 22 75 29 22 75 29 22 75 29 22 75 29 22 75 29 22 75 29 22 75 29 22 75 29 22 75 29 22 75 29 22 75 29 22 75 29 22 75 29 22 75 29 22 131 48 35 131 48 35 131 48 35 131 48 35 131 48 35 131 48 35 131 48 35 131 48 35 131 48 35 131 48 35 131 48 35 131 48 35 131 48 35 131 48 35 131 48 35 75 29 22 75 29 22 75 29 22 75 29 22 75 29 22 75 29 22 75 29 22 75 29 22 
75 29 22 75 29 22 75 29 22 75 29 22 75 29 22 75 29 22 75 29 22 75 29 22 75 29 22 131 48 35 131 48 35 131 48 35 131 48 35 131 48 35 131 48 35 131 48 35 131 48 35 131 48 35 131 48 35 131 48 35 131 48 35 131 48 35 131 48 35 75 29 22 75 29 22 75 29 22 75 29 22 75 29 22 75 29 22 75 29 22 75 29 22 75 29 22 75 29 22 75 29 22 75 29 22 75 29 22 75 29 22 75 29 22 75 29 22 75 29 22 75 29 22 131 48 35 131 48 35 131 48 35 131 48 35 131 48 35 131 48 35 131 48 35 131 48 35 131 48 35 131 48 35 131 48 35 131 48 35 131 48 35 131 48 35 75 29 22 75 29 22 75 29 22 75 29 22 75 29 22 75 29 22 75 29 22 75 29 22 75 29 22 
75 29 22 75 29 22 75 29 22 75 29 22 75 29 22 75 29 22 75 29 22 75 29 22 75 29 22 131 48 35 131 48 35 131 48 35 131 48 35 131 48 35 131 48 35 131 48 35 131 48 35 131 48 35 131 48 35 131 48 35 131 48 35 131 48 35 131 48 35 75 29 22 75 29 22 75 29 22 75 29 22 75 29 22 75 29 22 75 29 22 75 29 22 75 29 22 75 29 22 75 29 22 75 29 22 75 29 22 75 29 22 75 29 22 75 29 22 75 29 22 75 29 22 131 48 35 131 48 35 131 48 35 131 48 35 131 48 35 131 48 35 131 48 35 131 48 35 131 48 35 131 48 35 131 48 35 131 48 35 131 48 35 131 48 35 75 29 22 75 29 22 75 29 22 75 29 22 75 29 22 75 29 22 75 29 22 75 29 22 75 29 22 
75 29 22 75 29 22 75 29 22 75 29 22 75 29 22 75 29 22 75 29 22 75 29 22 75 29 22 131 48 35 131 48 35 131 48 35 131 48 35 131 48 35 131 48 35 131 48 35 131 48 35 131 48 35 131 48 35 131 48 35 131 48 35 131 48 35 131 48 35 75 29 22 75 29 22 75 29 22 75 29 22 75 29 22 75 29 22 75 29 22 75 29 22 75 29 22 75 29 22 75 29 22 75 29 22 75 29 22 75 29 22 75 29 22 75 29 22 75 29 22 75 29 22 131 48 35 131 48 35 131 48 35 131 48 35 131 48 35 131 48 35 131 48 35 131 48 35 131 48 35 131 48 35 131 48 35 131 48 35 131 48 35 131 48 35 75 29 22 75 29 22 75 29 22 75 29 22 75 29 22 75 29 22 75 29 22 75 29 22 75 29 22 
75 29 22 75 29 22 75 29 22 75 29 22 75 29 22 75 29 22 75 29 22 75 29 22 75 29 22 75 29 22 131 48 35 131 48 35 131 48 35 131 48 35 131 48 35 131 48 35 131 48 35 131 48 35 131 48 35 131 48 35 131 48 35 131 48 35 131 48 35 75 29 22 75 29 22 75 29 22 75 29 22 75 29 22 75 29 22 75 29 22 75 29 22 75 29 22 75 29 22 75 29 22 75 29 22 75 29 22 75 29 22 75 29 22 75 29 22 75 29 22 75 29 22 131 48 35 131 48 35 131 48 35 131 48 35 131 48 35 131 48 35 131 48 35 131 48 35 131 48 35 131 48 35 131 48 35 131 48 35 131 48 35 75 29 22 75 29 22 75 29 22 75 29 22 75 29 22 75 29 22 75 29 22 75 29 22 75 29 22 75 29 22 
75 29 22 75 29 22 75 29 22 75 29 22 75 29 22 75 29 22 75 29 22 75 29 22 75 29 22 75 29 22 131 48 35 131 48 35 131 48 35 131 48 35 131 48 35 131 48 35 131 48 35 131 48 35 131 48 35 131 48 35 131 48 35 131 48 35 131 48 35 75 29 22 75 29 22 75 29 22 75 29 22 75 29 22 75 29 22 75 29 22 75 29 22 75 29 22 75 29 22 75 29 22 75 29 22 75 29 22 75 29 22 75 29 22 75 29 22 75 29 22 75 29 22 131 48 35 131 48 35 131 48 35 131 48 35 131 48 35 131 48 35 131 48 35 131 48 35 131 48 35 131 48 35 131 48 35 131 48 35 131 48 35 75 29 22 75 29 22 75 29 22 75 29 22 75 29 22 75 29 22 75 29 22 75 29 22 75 29 22 75 29 22 
75 29 22 75 29 22 75 29 22 75 29 22 75 29 22 75 29 22 75 29 22 75 29 22 75 29 22 75 29 22 131 48 35 131 48 35 131 48 35 131 48 35 131 48 35 131 48 35 131 48 35 131 48 35 131 48 35 131 48 35 131 48 35 131 48 35 131 48 35 75 29 22 75 29 22 75 29 22 75 29 22 75 29 22 75 29 22 75 29 22 75 29 22 75 29 22 75 29 22 75 29 22 75 29 22 75 29 22 75 29 22 75 29 22 75 29 22 75 29 22 75 29 22 131 48 35 131 48 35 131 48 35 131 48 35 131 48 35 131 48 35 131 48 35 131 48 35 131 48 35 131 48 35 131 48 35 131 48 35 131 48 35 75 29 22 75 29 22 75 29 22 75 29 22 75 29 22 75 29 22 75 29 22 75 29 22 75 29 22 75 29 22 
75 29 22 75 29 22 75 29 22 75 29 22 75 29 22 75 29 22 75 29 22 75 29 22 75 29 22 75 29 22 131 48 35 131 48 35 131 48 35 131 48 35 131 48 35 131 48 35 131 48 35 131 48 35 131 48 35 131 48 35 131 48 35 131 48 35 75 29 22 75 29 22 75 29 22 75 29 22 238 115 18 238 115 18 75 29 22 75 29 22 75 29 22 238 115 18 238 115 18 75 29 22 75 29 22 75 29 22 238 115 18 238 115 18 75 29 22 75 29 22 75 29 22 75 29 22 131 48 35 131 48 35 131 48 35 131 48 35 131 48 35 131 48 35 131 48 35 131 48 35 131 48 35 131 48 35 131 48 35 131 48 35 75 29 22 75 29 22 75 29 22 75 29 22 75 29 22 75 29 22 75 29 22 75 29 22 75 29 22 75 29 22 
75 29 22 75 29 22 75 29 22 75 29 22 75 29 22 75 29 22 75 29 22 75 29 22 75 29 22 75 29 22 75 29 22 131 48 35 131 48 35 131 48 35 131 48 35 131 48 35 131 48 35 131 48 35 131 48 35 131 48 35 131 48 35 131 48 35 75 29 22 75 29 22 75 29 22 75 29 22 238 115 18 238 115 18 238 115 18 75 29 22 238 115 18 238 115 18 238 115 18 238 115 18 75 29 22 238 115 18 238 115 18 238 115 18 75 29 22 75 29 22 75 29 22 75 29 22 131 48 35 131 48 35 131 48 35 131 48 35 131 48 35 131 48 35 131 48 35 131 48 35 131 48 35 131 48 35 131 48 35 75 29 22 75 29 22 75 29 22 75 29 22 75 29 22 75 29 22 75 29 22 75 29 22 75 29 22 75 29 22 75 29 22 
75 29 22 75 29 22 75 29 22 75 29 22 75 29 22 75 29 22 75 29 22 75 29 22 75 29 22 75 29 22 75 29 22 131 48 35 131 48 35 131 48 35 131 48 35 131 48 35 131 48 35 131 48 35 131 48 35 131 48 35 131 48 35 131 48 35 75 29 22 75 29 22 75 29 22 75 29 22 238 115 18 238 115 18 238 115 18 238 115 18 238 115 18 238 115 18 238 115 18 238 115 18 238 115 18 238 115 18 238 115 18 238 115 18 75 29 22 75 29 22 75 29 22 75 29 22 131 48 35 131 48 35 131 48 35 131 48 35 131 48 35 131 48 35 131 48 35 131 48 35 131 48 35 131 48 35 131 48 35 75 29 22 75 29 22 75 29 22 75 29 22 75 29 22 75 29 22 75 29 22 75 29 22 75 29 22 75 29 22 75 29 22 
75 29 22 75 29 22 75 29 22 75 29 22 75 29 22 75 29 22 75 29 22 75 29 22 75 29 22 75 29 22 75 29 22 131 48 35 131 48 35 131 48 35 131 48 35 131 48 35 131 48 35 131 48 35 131 48 35 131 48 35 131 48 35 131 48 35 75 29 22 75 29 22 75 29 22 238 115 18 238 115 18 238 115 18 238 115 18 238 115 18 238 115 18 238 115 18 238 115 18 238 115 18 238 115 18 238 115 18 238 115 18 238 115 18 238 115 18 75 29 22 75 29 22 75 29 22 131 48 35 131 48 35 131 48 35 131 48 35 131 48 35 131 48 35 131 48 35 131 48 35 131 48 35 131 48 35 131 48 35 75 29 22 75 29 22 75 29 22 75 29 22 75 29 22 75 29 22 75 29 22 75 29 22 75 29 22 75 29 22 75 29 22 
75 29 22 75 29 22 75 29 22 75 29 22 75 29 22 75 29 22 75 29 22 75 29 22 75 29 22 75 29 22 75 29 22 131 48 35 131 48 35 131 48 35 131 48 35 131 48 35 131 48 35 131 48 35 131 48 35 131 48 35 131 48 35 131 48 35 75 29 22 75 29 22 75 29 22 238 115 18 238 115 18 238 115 18 238 115 18 238 115 18 238 115 18 238 115 18 238 222 18 238 115 18 238 115 18 238 115 18 238 115 18 238 115 18 238 115 18 75 29 22 75 29 22 75 29 22 131 48 35 131 48 35 131 48 35 131 48 35 131 48 35 131 48 35 131 48 35 131 48 35 131 48 35 131 48 35 131 48 35 75 29 22 75 29 22 75 29 22 75 29 22 75 29 22 75 29 22 75 29 22 75 29 22 75 29 22 75 29 22 75 29 22 
75 29 22 75 29 22 75 29 22 75 29 22 75 29 22 75 29 22 75 29 22 75 29 22 75 29 22 75 29 22 75 29 22 131 48 35 131 48 35 131 48 35 131 48 35 131 48 35 131 48 35 131 48 35 131 48 35 131 48 35 131 48 35 131 48 35 75 29 22 75 29 22 75 29 22 238 115 18 238 115 18 238 115 18 238 115 18 238 115 18 238 222 18 238 222 18 238 222 18 238 222 18 238 115 18 238 115 18 238 115 18 238 115 18 238 115 18 75 29 22 75 29 22 75 29 22 131 48 35 131 48 35 131 48 35 131 48 35 131 48 35 131 48 35 131 48 35 131 48 35 131 48 35 131 48 35 131 48 35 75 29 22 75 29 22 75 29 22 75 29 22 75 29 22 75 29 22 75 29 22 75 29 22 75 29 22 75 29 22 75 29 22 
75 29 22 75 29 22 75 29 22 75 29 22 75 29 22 75 29 22 75 29 22 75 29 22 75 29 22 75 29 22 75 29 22 131 48 35 131 48 35 131 48 35 131 48 35 131 48 35 131 48 35 131 48 35 131 48 35 131 48 35 131 48 35 131 48 35 75 29 22 75 29 22 75 29 22 238 115 18 238 115 18 238 115 18 238 115 18 238 222 18 238 222 18 238 222 18 238 222 18 238 222 18 238 115 18 238 115 18 238 115 18 238 115 18 238 115 18 75 29 22 75 29 22 75 29 22 131 48 35 131 48 35 131 48 35 131 48 35 131 48 35 131 48 35 131 48 35 131 48 35 131 48 35 131 48 35 131 48 35 75 29 22 75 29 22 75 29 22 75 29 22 75 29 22 75 29 22 75 29 22 75 29 22 75 29 22 75 29 22 75 29 22 
75 29 22 75 29 22 75 29 22 75 29 22 75 29 22 75 29 22 75 29 22 75 29 22 75 29 22 75 29 22 75 29 22 131 48 35 131 48 35 131 48 35 131 48 35 131 48 35 131 48 35 131 48 35 131 48 35 131 48 35 131 48 35 131 48 35 75 29 22 75 29 22 75 29 22 238 115 18 238 115 18 238 115 18 238 115 18 238 222 18 238 222 18 238 222 18 238 222 18 238 222 18 238 222 18 238 222 18 238 115 18 238 115 18 238 115 18 75 29 22 75 29 22 75 29 22 131 48 35 131 48 35 131 48 35 131 48 35 131 48 35 131 48 35 131 48 35 131 48 35 131 48 35 131 48 35 131 48 35 75 29 22 75 29 22 75 29 22 75 29 22 75 29 22 75 29 22 75 29 22 75 29 22 75 29 22 75 29 22 75 29 22 
75 29 22 75 29 22 75 29 22 75 29 22 75 29 22 75 29 22 75 29 22 75 29 22 75 29 22 75 29 22 75 29 22 75 29 22 131 48 35 131 48 35 131 48 35 131 48 35 131 48 35 131 48 35 131 48 35 131 48 35 131 48 35 131 48 35 75 29 22 75 29 22 75 29 22 238 115 18 238 115 18 238 115 18 238 222 18 238 222 18 238 222 18 238 222 18 238 222 18 238 222 18 238 222 18 238 222 18 238 115 18 238 115 18 238 115 18 75 29 22 75 29 22 75 29 22 131 48 35 131 48 35 131 48 35 131 48 35 131 48 35 131 48 35 131 48 35 131 48 35 131 48 35 131 48 35 75 29 22 75 29 22 75 29 22 75 29 22 75 29 22 75 29 22 75 29 22 75 29 22 75 29 22 75 29 22 75 29 22 75 29 22 
75 29 22 75 29 22 75 29 22 75 29 22 75 29 22 75 29 22 75 29 22 75 29 22 75 29 22 75 29 22 75 29 22 75 29 22 131 48 35 131 48 35 131 48 35 131 48 35 131 48 35 131 48 35 131 48 35 131 48 35 131 48 35 131 48 35 75 29 22 75 29 22 75 29 22 238 115 18 238 115 18 238 115 18 238 222 18 238 222 18 238 222 18 238 222 18 238 222 18 238 222 18 238 222 18 238 115 18 238 115 18 238 115 18 238 115 18 75 29 22 75 29 22 75 29 22 131 48 35 131 48 35 131 48 35 131 48 35 131 48 35 131 48 35 131 48 35 131 48 35 131 48 35 131 48 35 75 29 22 75 29 22 75 29 22 75 29 22 75 29 22 75 29 22 75 29 22 75 29 22 75 29 22 75 29 22 75 29 22 75 29 22 
75 29 22 75 29 22 75 29 22 75 29 22 75 29 22 75 29 22 75 29 22 75 29 22 75 29 22 75 29 22 75 29 22 75 29 22 131 48 35 131 48 35 131 48 35 131 48 35 131 48 35 131 48 35 131 48 35 131 48 35 131 48 35 131 48 35 75 29 22 75 29 22 75 29 22 75 29 22 238 115 18 238 115 18 238 115 18 238 222 18 238 222 18 238 222 18 238 222 18 238 222 18 238 115 18 238 115 18 238 115 18 238 115 18 75 29 22 75 29 22 75 29 22 75 29 22 131 48 35 131 48 35 131 48 35 131 48 35 131 48 35 131 48 35 131 48 35 131 48 35 131 48 35 131 48 35 75 29 22 75 29 22 75 29 22 75 29 22 75 29 22 75 29 22 75 29 22 75 29 22 75 29 22 75 29 22 75 29 22 75 29 22 
75 29 22 75 29 22 75 29 22 75 29 22 75 29 22 75 29 22 75 29 22 75 29 22 75 29 22 75 29 22 75 29 22 75 29 22 131 48 35 131 48 35 131 48 35 131 48 35 131 48 35 131 48 35 131 48 35 131 48 35 131 48 35 131 48 35 75 29 22 75 29 22 75 29 22 75 29 22 75 29 22 238 115 18 238 115 18 238 115 18 238 222 18 238 222 18 238 115 18 238 115 18 238 115 18 238 115 18 238 115 18 75 29 22 75 29 22 75 29 22 75 29 22 75 29 22 131 48 35 131 48 35 131 48 35 131 48 35 131 48 35 131 48 35 131 48 35 131 48 35 131 48 35 131 48 35 75 29 22 75 29 22 75 29 22 75 29 22 75 29 22 75 29 22 75 29 22 75 29 22 75 29 22 75 29 22 75 29 22 75 29 22 
75 29 22 75 29 22 75 29 22 75 29 22 75 29 22 75 29 22 75 29 22 75 29 22 75 29 22 75 29 22 75 29 22 75 29 22 131 48 35 131 48 35 131 48 35 131 48 35 131 48 35 131 48 35 131 48 35 131 48 35 131 48 35 131 48 35 75 29 22 75 29 22 75 29 22 75 29 22 75 29 22 75 29 22 238 115 18 238 115 18 238 115 18 238 115 18 238 115 18 238 115 18 238 115 18 238 115 18 75 29 22 75 29 22 75 29 22 75 29 22 75 29 22 75 29 22 131 48 35 131 48 35 131 48 35 131 48 35 131 48 35 131 48 35 131 48 35 131 48 35 131 48 35 131 48 35 75 29 22 75 29 22 75 29 22 75 29 22 75 29 22 75 29 22 75 29 22 75 29 22 75 29 22 75 29 22 75 29 22 75 29 22 
75 29 22 75 29 22 75 29 22 75 29 22 75 29 22 75 29 22 75 29 22 75 29 22 75 29 22 75 29 22 75 29 22 75 29 22 131 48 35 131 48 35 131 48 35 131 48 35 131 48 35 131 48 35 131 48 35 131 48 35 131 48 35 131 48 35 75 29 22 75 29 22 75 29 22 75 29 22 75 29 22 75 29 22 75 29 22 238 115 18 238 115 18 238 115 18 238 115 18 238 115 18 238 115 18 75 29 22 75 29 22 75 29 22 75 29 22 75 29 22 75 29 22 75 29 22 131 48 35 131 48 35 131 48 35 131 48 35 131 48 35 131 48 35 131 48 35 131 48 35 131 48 35 131 48 35 75 29 22 75 29 22 75 29 22 75 29 22 75 29 22 75 29 22 75 29 22 75 29 22 75 29 22 75 29 22 75 29 22 75 29 22 
75 29 22 75 29 22 75 29 22 75 29 22 75 29 22 75 29 22 75 29 22 75 29 22 75 29 22 75 29 22 75 29 22 75 29 22 131 48 35 131 48 35 131 48 35 131 48 35 131 48 35 131 48 35 131 48 35 131 48 35 131 48 35 131 48 35 75 29 22 75 29 22 75 29 22 75 29 22 75 29 22 75 29 22 75 29 22 75 29 22 75 29 22 75 29 22 75 29 22 75 29 22 75 29 22 75 29 22 75 29 22 75 29 22 75 29 22 75 29 22 75 29 22 75 29 22 131 48 35 131 48 35 131 48 35 131 48 35 131 48 35 131 48 35 131 48 35 131 48 35 131 48 35 131 48 35 75 29 22 75 29 22 75 29 22 75 29 22 75 29 22 75 29 22 75 29 22 75 29 22 75 29 22 75 29 22 75 29 22 75 29 22 
131 48 35 131 48 35 131 48 35 131 48 35 131 48 35 131 48 35 131 48 35 131 48 35 131 48 35 131 48 35 131 48 35 131 48 35 131 48 35 131 48 35 131 48 35 131 48 35 131 48 35 131 48 35 131 48 35 131 48 35 131 48 35 131 48 35 131 48 35 131 48 35 131 48 35 131 48 35 131 48 35 131 48 35 131 48 35 131 48 35 131 48 35 131 48 35 131 48 35 131 48 35 131 48 35 131 48 35 131 48 35 131 48 35 131 48 35 131 48 35 131 48 35 131 48 35 131 48 35 131 48 35 131 48 35 131 48 35 131 48 35 131 48 35 131 48 35 131 48 35 131 48 35 131 48 35 131 48 35 131 48 35 131 48 35 131 48 35 131 48 35 131 48 35 131 48 35 131 48 35 131 48 35 131 48 35 131 48 35 131 48 35 
103 36 26 103 36 26 103 36 26 103 36 26 103 36 26 103 36 26 103 36 26 103 36 26 103 36 26 103 36 26 103 36 26 103 36 26 103 36 26 103 36 26 103 36 26 103 36 26 103 36 26 103 36 26 103 36 26 103 36 26 103 36 26 103 36 26 103 36 26 103 36 26 103 36 26 103 36 26 103 36 26 103 36 26 103 36 26 103 36 26 103 36 26 103 36 26 103 36 26 103 36 26 103 36 26 103 36 26 103 36 26 103 36 26 103 36 26 103 36 26 103 36 26 103 36 26 103 36 26 103 36 26 103 36 26 103 36 26 103 36 26 103 36 26 103 36 26 103 36 26 103 36 26 103 36 26 103 36 26 103 36 26 103 36 26 103 36 26 103 36 26 103 36 26 103 36 26 103 36 26 103 36 26 103 36 26 103 36 26 103 36 26 
131 48 35 131 48 35 131 48 35 131 48 35 131 48 35 131 48 35 131 48 35 131 48 35 131 48 35 131 48 35 131 48 35 131 48 35 131 48 35 131 48 35 131 48 35 131 48 35 131 48 35 131 48 35 131 48 35 131 48 35 131 48 35 131 48 35 131 48 35 131 48 35 131 48 35 131 48 35 131 48 35 131 48 35 131 48 35 131 48 35 131 48 35 131 48 35 131 48 35 131 48 35 131 48 35 131 48 35 131 48 35 131 48 35 131 48 35 131 48 35 131 48 35 131 48 35 131 48 35 131 48 35 131 48 35 131 48 35 131 48 35 131 48 35 131 48 35 131 48 35 131 48 35 131 48 35 131 48 35 131 48 35 131 48 35 131 48 35 131 48 35 131 48 35 131 48 35 131 48 35 131 48 35 131 48 35 131 48 35 131 48 35 
131 48 35 131 48 35 131 48 35 131 48 35 131 48 35 131 48 35 131 48 35 131 48 35 131 48 35 131 48 35 131 48 35 131 48 35 131 48 35 131 48 35 131 48 35 131 48 35 131 48 35 131 48 35 131 48 35 131 48 35 131 48 35 131 48 35 131 48 35 131 48 35 131 48 35 131 48 35 131 48 35 131 48 35 131 48 35 131 48 35 131 48 35 131 48 35 131 48 35 131 48 35 131 48 35 131 48 35 131 48 35 131 48 35 131 48 35 131 48 35 131 48 35 131 48 35 131 48 35 131 48 35 131 48 35 131 48 35 131 48 35 131 48 35 131 48 35 131 48 35 131 48 35 131 48 35 131 48 35 131 48 35 131 48 35 131 48 35 131 48 35 131 48 35 131 48 35 131 48 35 131 48 35 131 48 35 131 48 35 131 48 35 
131 48 35 131 48 35 131 48 35 131 48 35 131 48 35 131 48 35 131 48 35 131 48 35 131 48 35 131 48 35 131 48 35 131 48 35 131 48 35 131 48 35 131 48 35 103 36 26 103 36 26 131 48 35 131 48 35 131 48 35 131 48 35 131 48 35 131 48 35 131 48 35 131 48 35 131 48 35 131 48 35 131 48 35 131 48 35 131 48 35 131 48 35 131 48 35 131 48 35 131 48 35 131 48 35 131 48 35 131 48 35 131 48 35 131 48 35 131 48 35 131 48 35 131 48 35 131 48 35 131 48 35 131 48 35 131 48 35 131 48 35 103 36 26 103 36 26 131 48 35 131 48 35 131 48 35 131 48 35 131 48 35 131 48 35 131 48 35 131 48 35 131 48 35 131 48 35 131 48 35 131 48 35 131 48 35 131 48 35 131 48 35 
131 48 35 131 48 35 131 48 35 131 48 35 131 48 35 131 48 35 131 48 35 131 48 35 131 48 35 131 48 35 131 48 35 131 48 35 131 48 35 131 48 35 131 48 35 131 48 35 131 48 35 103 36 26 103 36 26 103 36 26 103 36 26 131 48 35 131 48 35 131 48 35 131 48 35 131 48 35 131 48 35 131 48 35 131 48 35 131 48 35 131 48 35 131 48 35 131 48 35 131 48 35 131 48 35 131 48 35 131 48 35 131 48 35 131 48 35 131 48 35 131 48 35 131 48 35 131 48 35 103 36 26 103 36 26 103 36 26 103 36 26 131 48 35 131 48 35 131 48 35 131 48 35 131 48 35 131 48 35 131 48 35 131 48 35 131 48 35 131 48 35 131 48 35 131 48 35 131 48 35 131 48 35 131 48 35 131 48 35 131 48 35 
131 48 35 131 48 35 131 48 35 131 48 35 131 48 35 131 48 35 131 48 35 131 48 35 131 48 35 131 48 35 131 48 35 131 48 35 131 48 35 131 48 35 131 48 35 131 48 35 131 48 35 131 48 35 131 48 35 131 48 35 103 36 26 103 36 26 131 48 35 131 48 35 131 48 35 131 48 35 131 48 35 131 48 35 131 48 35 131 48 35 131 48 35 131 48 35 131 48 35 131 48 35 131 48 35 131 48 35 131 48 35 131 48 35 131 48 35 131 48 35 131 48 35 131 48 35 103 36 26 103 36 26 131 48 35 131 48 35 131 48 35 131 48 35 131 48 35 131 48 35 131 48 35 131 48 35 131 48 35 131 48 35 131 48 35 131 48 35 131 48 35 131 48 35 131 48 35 131 48 35 131 48 35 131 48 35 131 48 35 131 48 35 
131 48 35 131 48 35 131 48 35 131 48 35 131 48 35 131 48 35 131 48 35 131 48 35 131 48 35 131 48 35 131 48 35 131 48 35 131 48 35 131 48 35 131 48 35 131 48 35 131 48 35 131 48 35 131 48 35 131 48 35 131 48 35 103 36 26 103 36 26 131 48 35 131 48 35 131 48 35 131 48 35 131 48 35 131 48 35 131 48 35 131 48 35 131 48 35 131 48 35 131 48 35 131 48 35 131 48 35 131 48 35 131 48 35 131 48 35 131 48 35 131 48 35 103 36 26 103 36 26 131 48 35 131 48 35 131 48 35 131 48 35 131 48 35 131 48 35 131 48 35 131 48 35 131 48 35 131 48 35 131 48 35 131 48 35 131 48 35 131 48 35 131 48 35 131 48 35 131 48 35 131 48 35 131 48 35 131 48 35 131 48 35 
131 48 35 131 48 35 131 48 35 131 48 35 131 48 35 131 48 35 131 48 35 131 48 35 131 48 35 131 48 35 131 48 35 131 48 35 131 48 35 131 48 35 131 48 35 131 48 35 131 48 35 131 48 35 131 48 35 131 48 35 131 48 35 131 48 35 103 36 26 103 36 26 131 48 35 131 48 35 131 48 35 131 48 35 131 48 35 131 48 35 131 48 35 131 48 35 131 48 35 131 48 35 131 48 35 131 48 35 131 48 35 131 48 35 131 48 35 131 48 35 103 36 26 103 36 26 131 48 35 131 48 35 131 48 35 131 48 35 131 48 35 131 48 35 131 48 35 131 48 35 131 48 35 131 48 35 131 48 35 131 48 35 131 48 35 131 48 35 131 48 35 131 48 35 131 48 35 131 48 35 131 48 35 131 48 35 131 48 35 131 48 35 
131 48 35 131 48 35 131 48 35 131 48 35 131 48 35 131 48 35 131 48 35 131 48 35 131 48 35 131 48 35 131 48 35 131 48 35 103 36 26 103 36 26 103 36 26 103 36 26 103 36 26 103 36 26 131 48 35 131 48 35 131 48 35 131 48 35 131 48 35 103 36 26 131 48 35 131 48 35 131 48 35 131 48 35 131 48 35 131 48 35 131 48 35 131 48 35 131 48 35 131 48 35 131 48 35 131 48 35 131 48 35 131 48 35 131 48 35 131 48 35 103 36 26 131 48 35 131 48 35 131 48 35 131 48 35 131 48 35 103 36 26 103 36 26 103 36 26 103 36 26 103 36 26 103 36 26 131 48 35 131 48 35 131 48 35 131 48 35 131 48 35 131 48 35 131 48 35 131 48 35 131 48 35 131 48 35 131 48 35 131 48 35 
131 48 35 131 48 35 131 48 35 131 48 35 131 48 35 131 48 35 131 48 35 131 48 35 131 48 35 103 36 26 103 36 26 103 36 26 103 36 26 131 48 35 131 48 35 131 48 35 131 48 35 131 48 35 103 36 26 103 36 26 131 48 35 131 48 35 131 48 35 103 36 26 103 36 26 131 48 35 131 48 35 131 48 35 131 48 35 131 48 35 131 48 35 131 48 35 131 48 35 131 48 35 131 48 35 131 48 35 131 48 35 131 48 35 131 48 35 103 36 26 103 36 26 131 48 35 131 48 35 131 48 35 103 36 26 103 36 26 131 48 35 131 48 35 131 48 35 131 48 35 131 48 35 103 36 26 103 36 26 103 36 26 103 36 26 131 48 35 131 48 35 131 48 35 131 48 35 131 48 35 131 48 35 131 48 35 131 48 35 131 48 35 
131 48 35 131 48 35 131 48 35 131 48 35 131 48 35 131 48 35 131 48 35 131 48 35 131 48 35 103 36 26 131 48 35 131 48 35 131 48 35 131 48 35 131 48 35 131 48 35 131 48 35 131 48 35 131 48 35 103 36 26 131 48 35 131 48 35 131 48 35 131 48 35 103 36 26 131 48 35 131 48 35 131 48 35 131 48 35 131 48 35 131 48 35 131 48 35 131 48 35 131 48 35 131 48 35 131 48 35 131 48 35 131 48 35 131 48 35 103 36 26 131 48 35 131 48 35 131 48 35 131 48 35 103 36 26 131 48 35 131 48 35 131 48 35 131 48 35 131 48 35 131 48 35 131 48 35 131 48 35 131 48 35 103 36 26 131 48 35 131 48 35 131 48 35 131 48 35 131 48 35 131 48 35 131 48 35 131 48 35 131 48 35 
131 48 35 131 48 35 131 48 35 131 48 35 131 48 35 131 48 35 131 48 35 131 48 35 103 36 26 131 48 35 131 48 35 131 48 35 131 48 35 131 48 35 103 36 26 103 36 26 131 48 35 131 48 35 131 48 35 103 36 26 131 48 35 131 48 35 131 48 35 131 48 35 103 36 26 131 48 35 131 48 35 131 48 35 131 48 35 131 48 35 131 48 35 131 48 35 131 48 35 131 48 35 131 48 35 131 48 35 131 48 35 131 48 35 131 48 35 103 36 26 131 48 35 131 48 35 131 48 35 131 48 35 103 36 26 131 48 35 131 48 35 131 48 35 103 36 26 103 36 26 131 48 35 131 48 35 131 48 35 131 48 35 131 48 35 103 36 26 131 48 35 131 48 35 131 48 35 131 48 35 131 48 35 131 48 35 131 48 35 131 48 35 
131 48 35 131 48 35 131 48 35 131 48 35 131 48 35 131 48 35 131 48 35 131 48 35 103 36 26 131 48 35 131 48 35 131 48 35 131 48 35 131 48 35 103 36 26 131 48 35 131 48 35 131 48 35 103 36 26 103 36 26 131 48 35 131 48 35 131 48 35 131 48 35 103 36 26 131 48 35 131 48 35 131 48 35 131 48 35 131 48 35 131 48 35 131 48 35 131 48 35 131 48 35 131 48 35 131 48 35 131 48 35 131 48 35 131 48 35 103 36 26 131 48 35 131 48 35 131 48 35 131 48 35 103 36 26 103 36 26 131 48 35 131 48 35 131 48 35 103 36 26 131 48 35 131 48 35 131 48 35 131 48 35 131 48 35 103 36 26 131 48 35 131 48 35 131 48 35 131 48 35 131 48 35 131 48 35 131 48 35 131 48 35 
131 48 35 131 48 35 131 48 35 131 48 35 131 48 35 131 48 35 131 48 35 131 48 35 103 36 26 103 36 26 131 48 35 131 48 35 131 48 35 131 48 35 131 48 35 103 36 26 103 36 26 103 36 26 103 36 26 131 48 35 131 48 35 131 48 35 131 48 35 103 36 26 103 36 26 131 48 35 131 48 35 131 48 35 131 48 35 131 48 35 131 48 35 131 48 35 131 48 35 131 48 35 131 48 35 131 48 35 131 48 35 131 48 35 131 48 35 103 36 26 103 36 26 131 48 35 131 48 35 131 48 35 131 48 35 103 36 26 103 36 26 103 36 26 103 36 26 131 48 35 131 48 35 131 48 35 131 48 35 131 48 35 103 36 26 103 36 26 131 48 35 131 48 35 131 48 35 131 48 35 131 48 35 131 48 35 131 48 35 131 48 35 
131 48 35 131 48 35 131 48 35 131 48 35 131 48 35 131 48 35 131 48 35 131 48 35 131 48 35 103 36 26 103 36 26 103 36 26 131 48 35 131 48 35 131 48 35 131 48 35 131 48 35 131 48 35 131 48 35 131 48 35 131 48 35 131 48 35 131 48 35 103 36 26 131 48 35 131 48 35 131 48 35 131 48 35 131 48 35 131 48 35 131 48 35 131 48 35 131 48 35 131 48 35 131 48 35 131 48 35 131 48 35 131 48 35 131 48 35 131 48 35 103 36 26 131 48 35 131 48 35 131 48 35 131 48 35 131 48 35 131 48 35 131 48 35 131 48 35 131 48 35 131 48 35 131 48 35 103 36 26 103 36 26 103 36 26 131 48 35 131 48 35 131 48 35 131 48 35 131 48 35 131 48 35 131 48 35 131 48 35 131 48 35 
131 48 35 131 48 35 131 48 35 131 48 35 131 48 35 131 48 35 131 48 35 131 48 35 131 48 35 131 48 35 131 48 35 103 36 26 103 36 26 131 48 35 131 48 35 131 48 35 131 48 35 131 48 35 131 48 35 131 48 35 131 48 35 131 48 35 103 36 26 131 48 35 131 48 35 131 48 35 131 48 35 131 48 35 131 48 35 131 48 35 131 48 35 131 48 35 131 48 35 131 48 35 131 48 35 131 48 35 131 48 35 131 48 35 131 48 35 131 48 35 131 48 35 103 36 26 131 48 35 131 48 35 131 48 35 131 48 35 131 48 35 131 48 35 131 48 35 131 48 35 131 48 35 103 36 26 103 36 26 131 48 35 131 48 35 131 48 35 131 48 35 131 48 35 131 48 35 131 48 35 131 48 35 131 48 35 131 48 35 131 48 35 
131 48 35 131 48 35 131 48 35 131 48 35 131 48 35 131 48 35 131 48 35 131 48 35 131 48 35 131 48 35 131 48 35 131 48 35 131 48 35 103 36 26 103 36 26 131 48 35 131 48 35 131 48 35 131 48 35 131 48 35 103 36 26 103 36 26 131 48 35 131 48 35 131 48 35 131 48 35 131 48 35 131 48 35 131 48 35 131 48 35 131 48 35 131 48 35 131 48 35 131 48 35 131 48 35 131 48 35 131 48 35 131 48 35 131 48 35 131 48 35 131 48 35 131 48 35 103 36 26 103 36 26 131 48 35 131 48 35 131 48 35 131 48 35 131 48 35 103 36 26 103 36 26 131 48 35 131 48 35 131 48 35 131 48 35 131 48 35 131 48 35 131 48 35 131 48 35 131 48 35 131 48 35 131 48 35 131 48 35 131 48 35 
131 48 35 131 48 35 131 48 35 131 48 35 131 48 35 131 48 35 131 48 35 131 48 35 131 48 35 131 48 35 131 48 35 131 48 35 131 48 35 131 48 35 103 36 26 103 36 26 103 36 26 103 36 26 103 36 26 103 36 26 103 36 26 131 48 35 131 48 35 131 48 35 131 48 35 131 48 35 131 48 35 131 48 35 131 48 35 131 48 35 131 48 35 131 48 35 131 48 35 131 48 35 131 48 35 131 48 35 131 48 35 131 48 35 131 48 35 131 48 35 131 48 35 131 48 35 131 48 35 103 36 26 103 36 26 103 36 26 103 36 26 103 36 26 103 36 26 103 36 26 131 48 35 131 48 35 131 48 35 131 48 35 131 48 35 131 48 35 131 48 35 131 48 35 131 48 35 131 48 35 131 48 35 131 48 35 131 48 35 131 48 35 
103 36 26 131 48 35 131 48 35 131 48 35 131 48 35 131 48 35 131 48 35 131 48 35 131 48 35 131 48 35 131 48 35 131 48 35 131 48 35 131 48 35 131 48 35 131 48 35 131 48 35 131 48 35 131 48 35 131 48 35 131 48 35 131 48 35 131 48 35 131 48 35 131 48 35 131 48 35 131 48 35 131 48 35 131 48 35 131 48 35 131 48 35 131 48 35 131 48 35 131 48 35 131 48 35 131 48 35 131 48 35 131 48 35 131 48 35 131 48 35 131 48 35 131 48 35 131 48 35 131 48 35 131 48 35 131 48 35 131 48 35 131 48 35 131 48 35 131 48 35 131 48 35 131 48 35 131 48 35 131 48 35 131 48 35 131 48 35 131 48 35 131 48 35 131 48 35 131 48 35 131 48 35 131 48 35 131 48 35 103 36 26 
103 36 26 103 36 26 131 48 35 131 48 35 131 48 35 131 48 35 131 48 35 131 48 35 131 48 35 131 48 35 131 48 35 131 48 35 131 48 35 131 48 35 131 48 35 131 48 35 131 48 35 131 48 35 131 48 35 131 48 35 131 48 35 131 48 35 131 48 35 131 48 35 131 48 35 131 48 35 131 48 35 131 48 35 131 48 35 131 48 35 131 48 35 131 48 35 131 48 35 131 48 35 131 48 35 131 48 35 131 48 35 131 48 35 131 48 35 131 48 35 131 48 35 131 48 35 131 48 35 131 48 35 131 48 35 131 48 35 131 48 35 131 48 35 131 48 35 131 48 35 131 48 35 131 48 35 131 48 35 131 48 35 131 48 35 131 48 35 131 48 35 131 48 35 131 48 35 131 48 35 131 48 35 131 48 35 103 36 26 103 36 26 
103 36 26 103 36 26 103 36 26 103 36 26 103 36 26 103 36 26 103 36 26 103 36 26 103 36 26 103 36 26 103 36 26 103 36 26 103 36 26 103 36 26 103 36 26 103 36 26 103 36 26 103 36 26 103 36 26 103 36 26 103 36 26 103 36 26 103 36 26 103 36 26 103 36 26 103 36 26 103 36 26 103 36 26 103 36 26 103 36 26 103 36 26 103 36 26 103 36 26 103 36 26 103 36 26 103 36 26 103 36 26 103 36 26 103 36 26 103 36 26 103 36 26 103 36 26 103 36 26 103 36 26 103 36 26 103 36 26 103 36 26 103 36 26 103 36 26 103 36 26 103 36 26 103 36 26 103 36 26 103 36 26 103 36 26 103 36 26 103 36 26 103 36 26 103 36 26 103 36 26 103 36 26 103 36 26 103 36 26 103 36 26 
103 36 26 103 36 26 103 36 26 103 36 26 103 36 26 103 36 26 103 36 26 103 36 26 103 36 26 103 36 26 103 36 26 103 36 26 103 36 26 103 36 26 103 36 26 103 36 26 103 36 26 103 36 26 103 36 26 103 36 26 103 36 26 103 36 26 103 36 26 103 36 26 103 36 26 103 36 26 103 36 26 103 36 26 103 36 26 103 36 26 103 36 26 103 36 26 103 36 26 103 36 26 103 36 26 103 36 26 103 36 26 103 36 26 103 36 26 103 36 26 103 36 26 103 36 26 103 36 26 103 36 26 103 36 26 103 36 26 103 36 26 103 36 26 103 36 26 103 36 26 103 36 26 103 36 26 103 36 26 103 36 26 103 36 26 103 36 26 103 36 26 103 36 26 103 36 26 103 36 26 103 36 26 103 36 26 103 36 26 103 36 26 
